ISO-10303-21;
HEADER;
/* Generated by software containing ST-Developer
 * from STEP Tools, Inc. (www.steptools.com) 
 */

FILE_DESCRIPTION(
/* description */ (''),
/* implementation_level */ '2;1');

FILE_NAME(
/* name */ 'MIDDLE PUSHERnew.step',
/* time_stamp */ '2026-03-21T13:52:44+08:00',
/* author */ (''),
/* organization */ (''),
/* preprocessor_version */ 'ST-DEVELOPER v20.1',
/* originating_system */ 'Autodesk Translation Framework v14.24.0.0',
/* authorisation */ '');

FILE_SCHEMA (('AUTOMOTIVE_DESIGN { 1 0 10303 214 3 1 1 }'));
ENDSEC;

DATA;
#10=MECHANICAL_DESIGN_GEOMETRIC_PRESENTATION_REPRESENTATION('',(#13),#1568);
#11=SHAPE_REPRESENTATION_RELATIONSHIP('SRR','None',#1575,#12);
#12=ADVANCED_BREP_SHAPE_REPRESENTATION('',(#14),#1567);
#13=STYLED_ITEM('',(#1584),#14);
#14=MANIFOLD_SOLID_BREP('Body1',#858);
#15=SPHERICAL_SURFACE('',#936,4.375);
#16=SPHERICAL_SURFACE('',#938,4.375);
#17=SPHERICAL_SURFACE('',#940,4.375);
#18=SPHERICAL_SURFACE('',#942,4.375);
#19=SPHERICAL_SURFACE('',#944,4.375);
#20=SPHERICAL_SURFACE('',#946,4.375);
#21=SPHERICAL_SURFACE('',#948,4.375);
#22=SPHERICAL_SURFACE('',#950,4.375);
#23=SPHERICAL_SURFACE('',#952,4.375);
#24=SPHERICAL_SURFACE('',#954,4.375);
#25=SPHERICAL_SURFACE('',#956,4.375);
#26=SPHERICAL_SURFACE('',#958,4.375);
#27=SPHERICAL_SURFACE('',#960,4.375);
#28=SPHERICAL_SURFACE('',#962,4.375);
#29=SPHERICAL_SURFACE('',#964,4.375);
#30=SPHERICAL_SURFACE('',#966,4.375);
#31=SPHERICAL_SURFACE('',#968,4.375);
#32=SPHERICAL_SURFACE('',#970,4.375);
#33=SPHERICAL_SURFACE('',#972,4.375);
#34=SPHERICAL_SURFACE('',#974,4.375);
#35=SPHERICAL_SURFACE('',#976,4.375);
#36=SPHERICAL_SURFACE('',#978,4.375);
#37=SPHERICAL_SURFACE('',#980,4.375);
#38=SPHERICAL_SURFACE('',#982,4.375);
#39=SPHERICAL_SURFACE('',#984,4.375);
#40=SPHERICAL_SURFACE('',#986,4.375);
#41=SPHERICAL_SURFACE('',#988,4.375);
#42=SPHERICAL_SURFACE('',#990,4.375);
#43=SPHERICAL_SURFACE('',#992,4.375);
#44=SPHERICAL_SURFACE('',#994,4.375);
#45=SPHERICAL_SURFACE('',#996,4.375);
#46=SPHERICAL_SURFACE('',#998,4.375);
#47=SPHERICAL_SURFACE('',#1000,4.375);
#48=SPHERICAL_SURFACE('',#1002,4.375);
#49=SPHERICAL_SURFACE('',#1004,4.375);
#50=CYLINDRICAL_SURFACE('',#891,30.);
#51=CYLINDRICAL_SURFACE('',#918,30.);
#52=CYLINDRICAL_SURFACE('',#919,5.);
#53=CYLINDRICAL_SURFACE('',#926,3.50000007450594);
#54=CYLINDRICAL_SURFACE('',#929,3.50000007450596);
#55=CYLINDRICAL_SURFACE('',#935,10.);
#56=CYLINDRICAL_SURFACE('',#1007,10.);
#57=FACE_BOUND('',#149,.T.);
#58=FACE_BOUND('',#150,.T.);
#59=FACE_BOUND('',#151,.T.);
#60=FACE_BOUND('',#152,.T.);
#61=FACE_BOUND('',#153,.T.);
#62=FACE_BOUND('',#154,.T.);
#63=FACE_BOUND('',#155,.T.);
#64=FACE_BOUND('',#156,.T.);
#65=FACE_BOUND('',#157,.T.);
#66=FACE_BOUND('',#158,.T.);
#67=FACE_BOUND('',#159,.T.);
#68=FACE_BOUND('',#160,.T.);
#69=FACE_BOUND('',#161,.T.);
#70=FACE_BOUND('',#162,.T.);
#71=FACE_BOUND('',#163,.T.);
#72=FACE_BOUND('',#167,.T.);
#73=FACE_BOUND('',#168,.T.);
#74=FACE_BOUND('',#169,.T.);
#75=FACE_BOUND('',#170,.T.);
#76=FACE_BOUND('',#171,.T.);
#77=FACE_BOUND('',#172,.T.);
#78=FACE_BOUND('',#173,.T.);
#79=FACE_BOUND('',#174,.T.);
#80=FACE_BOUND('',#175,.T.);
#81=FACE_BOUND('',#176,.T.);
#82=FACE_BOUND('',#177,.T.);
#83=FACE_BOUND('',#178,.T.);
#84=FACE_BOUND('',#179,.T.);
#85=FACE_BOUND('',#180,.T.);
#86=FACE_BOUND('',#181,.T.);
#87=FACE_BOUND('',#182,.T.);
#88=FACE_BOUND('',#183,.T.);
#89=FACE_BOUND('',#184,.T.);
#90=FACE_BOUND('',#185,.T.);
#91=FACE_BOUND('',#186,.T.);
#92=FACE_BOUND('',#187,.T.);
#93=FACE_BOUND('',#193,.T.);
#94=FACE_BOUND('',#196,.T.);
#95=FACE_BOUND('',#199,.T.);
#96=FACE_OUTER_BOUND('',#148,.T.);
#97=FACE_OUTER_BOUND('',#164,.T.);
#98=FACE_OUTER_BOUND('',#165,.T.);
#99=FACE_OUTER_BOUND('',#166,.T.);
#100=FACE_OUTER_BOUND('',#188,.T.);
#101=FACE_OUTER_BOUND('',#189,.T.);
#102=FACE_OUTER_BOUND('',#190,.T.);
#103=FACE_OUTER_BOUND('',#191,.T.);
#104=FACE_OUTER_BOUND('',#192,.T.);
#105=FACE_OUTER_BOUND('',#194,.T.);
#106=FACE_OUTER_BOUND('',#195,.T.);
#107=FACE_OUTER_BOUND('',#197,.T.);
#108=FACE_OUTER_BOUND('',#198,.T.);
#109=FACE_OUTER_BOUND('',#200,.T.);
#110=FACE_OUTER_BOUND('',#201,.T.);
#111=FACE_OUTER_BOUND('',#202,.T.);
#112=FACE_OUTER_BOUND('',#203,.T.);
#113=FACE_OUTER_BOUND('',#204,.T.);
#114=FACE_OUTER_BOUND('',#205,.T.);
#115=FACE_OUTER_BOUND('',#206,.T.);
#116=FACE_OUTER_BOUND('',#207,.T.);
#117=FACE_OUTER_BOUND('',#208,.T.);
#118=FACE_OUTER_BOUND('',#209,.T.);
#119=FACE_OUTER_BOUND('',#210,.T.);
#120=FACE_OUTER_BOUND('',#211,.T.);
#121=FACE_OUTER_BOUND('',#212,.T.);
#122=FACE_OUTER_BOUND('',#213,.T.);
#123=FACE_OUTER_BOUND('',#214,.T.);
#124=FACE_OUTER_BOUND('',#215,.T.);
#125=FACE_OUTER_BOUND('',#216,.T.);
#126=FACE_OUTER_BOUND('',#217,.T.);
#127=FACE_OUTER_BOUND('',#218,.T.);
#128=FACE_OUTER_BOUND('',#219,.T.);
#129=FACE_OUTER_BOUND('',#220,.T.);
#130=FACE_OUTER_BOUND('',#221,.T.);
#131=FACE_OUTER_BOUND('',#222,.T.);
#132=FACE_OUTER_BOUND('',#223,.T.);
#133=FACE_OUTER_BOUND('',#224,.T.);
#134=FACE_OUTER_BOUND('',#225,.T.);
#135=FACE_OUTER_BOUND('',#226,.T.);
#136=FACE_OUTER_BOUND('',#227,.T.);
#137=FACE_OUTER_BOUND('',#228,.T.);
#138=FACE_OUTER_BOUND('',#229,.T.);
#139=FACE_OUTER_BOUND('',#230,.T.);
#140=FACE_OUTER_BOUND('',#231,.T.);
#141=FACE_OUTER_BOUND('',#232,.T.);
#142=FACE_OUTER_BOUND('',#233,.T.);
#143=FACE_OUTER_BOUND('',#234,.T.);
#144=FACE_OUTER_BOUND('',#235,.T.);
#145=FACE_OUTER_BOUND('',#236,.T.);
#146=FACE_OUTER_BOUND('',#237,.T.);
#147=FACE_OUTER_BOUND('',#238,.T.);
#148=EDGE_LOOP('',(#578,#579,#580,#581));
#149=EDGE_LOOP('',(#582));
#150=EDGE_LOOP('',(#583));
#151=EDGE_LOOP('',(#584));
#152=EDGE_LOOP('',(#585));
#153=EDGE_LOOP('',(#586));
#154=EDGE_LOOP('',(#587));
#155=EDGE_LOOP('',(#588));
#156=EDGE_LOOP('',(#589));
#157=EDGE_LOOP('',(#590));
#158=EDGE_LOOP('',(#591));
#159=EDGE_LOOP('',(#592));
#160=EDGE_LOOP('',(#593));
#161=EDGE_LOOP('',(#594));
#162=EDGE_LOOP('',(#595));
#163=EDGE_LOOP('',(#596,#597,#598,#599));
#164=EDGE_LOOP('',(#600,#601,#602,#603));
#165=EDGE_LOOP('',(#604,#605,#606,#607));
#166=EDGE_LOOP('',(#608,#609,#610,#611));
#167=EDGE_LOOP('',(#612));
#168=EDGE_LOOP('',(#613));
#169=EDGE_LOOP('',(#614));
#170=EDGE_LOOP('',(#615));
#171=EDGE_LOOP('',(#616));
#172=EDGE_LOOP('',(#617));
#173=EDGE_LOOP('',(#618));
#174=EDGE_LOOP('',(#619));
#175=EDGE_LOOP('',(#620));
#176=EDGE_LOOP('',(#621));
#177=EDGE_LOOP('',(#622));
#178=EDGE_LOOP('',(#623));
#179=EDGE_LOOP('',(#624));
#180=EDGE_LOOP('',(#625));
#181=EDGE_LOOP('',(#626));
#182=EDGE_LOOP('',(#627));
#183=EDGE_LOOP('',(#628));
#184=EDGE_LOOP('',(#629));
#185=EDGE_LOOP('',(#630));
#186=EDGE_LOOP('',(#631));
#187=EDGE_LOOP('',(#632));
#188=EDGE_LOOP('',(#633,#634,#635,#636));
#189=EDGE_LOOP('',(#637,#638,#639,#640));
#190=EDGE_LOOP('',(#641,#642,#643,#644));
#191=EDGE_LOOP('',(#645,#646,#647,#648));
#192=EDGE_LOOP('',(#649,#650,#651,#652));
#193=EDGE_LOOP('',(#653));
#194=EDGE_LOOP('',(#654,#655,#656,#657));
#195=EDGE_LOOP('',(#658,#659,#660,#661));
#196=EDGE_LOOP('',(#662));
#197=EDGE_LOOP('',(#663,#664,#665,#666));
#198=EDGE_LOOP('',(#667,#668,#669,#670));
#199=EDGE_LOOP('',(#671,#672,#673,#674));
#200=EDGE_LOOP('',(#675,#676,#677,#678));
#201=EDGE_LOOP('',(#679,#680,#681,#682));
#202=EDGE_LOOP('',(#683,#684,#685));
#203=EDGE_LOOP('',(#686,#687,#688));
#204=EDGE_LOOP('',(#689,#690,#691));
#205=EDGE_LOOP('',(#692,#693,#694));
#206=EDGE_LOOP('',(#695,#696,#697));
#207=EDGE_LOOP('',(#698,#699,#700));
#208=EDGE_LOOP('',(#701,#702,#703));
#209=EDGE_LOOP('',(#704,#705,#706));
#210=EDGE_LOOP('',(#707,#708,#709));
#211=EDGE_LOOP('',(#710,#711,#712));
#212=EDGE_LOOP('',(#713,#714,#715));
#213=EDGE_LOOP('',(#716,#717,#718));
#214=EDGE_LOOP('',(#719,#720,#721));
#215=EDGE_LOOP('',(#722,#723,#724));
#216=EDGE_LOOP('',(#725,#726,#727));
#217=EDGE_LOOP('',(#728,#729,#730));
#218=EDGE_LOOP('',(#731,#732,#733));
#219=EDGE_LOOP('',(#734,#735,#736));
#220=EDGE_LOOP('',(#737,#738,#739));
#221=EDGE_LOOP('',(#740,#741,#742));
#222=EDGE_LOOP('',(#743,#744,#745));
#223=EDGE_LOOP('',(#746,#747,#748));
#224=EDGE_LOOP('',(#749,#750,#751));
#225=EDGE_LOOP('',(#752,#753,#754));
#226=EDGE_LOOP('',(#755,#756,#757));
#227=EDGE_LOOP('',(#758,#759,#760));
#228=EDGE_LOOP('',(#761,#762,#763));
#229=EDGE_LOOP('',(#764,#765,#766));
#230=EDGE_LOOP('',(#767,#768,#769));
#231=EDGE_LOOP('',(#770,#771,#772));
#232=EDGE_LOOP('',(#773,#774,#775));
#233=EDGE_LOOP('',(#776,#777,#778));
#234=EDGE_LOOP('',(#779,#780,#781));
#235=EDGE_LOOP('',(#782,#783,#784));
#236=EDGE_LOOP('',(#785,#786,#787));
#237=EDGE_LOOP('',(#788,#789,#790,#791));
#238=EDGE_LOOP('',(#792,#793,#794,#795));
#239=CIRCLE('',#873,30.);
#240=CIRCLE('',#874,30.);
#241=CIRCLE('',#875,3.59035165408627);
#242=CIRCLE('',#876,3.59035165408627);
#243=CIRCLE('',#877,3.59035165408627);
#244=CIRCLE('',#878,3.59035165408627);
#245=CIRCLE('',#879,3.59035165408627);
#246=CIRCLE('',#880,3.59035165408627);
#247=CIRCLE('',#881,3.59035165408627);
#248=CIRCLE('',#882,3.59035165408627);
#249=CIRCLE('',#883,3.59035165408627);
#250=CIRCLE('',#884,3.59035165408627);
#251=CIRCLE('',#885,3.59035165408627);
#252=CIRCLE('',#886,3.59035165408627);
#253=CIRCLE('',#887,3.59035165408627);
#254=CIRCLE('',#888,3.59035165408627);
#255=CIRCLE('',#889,10.);
#256=CIRCLE('',#890,10.);
#257=CIRCLE('',#892,30.);
#258=CIRCLE('',#895,30.);
#259=CIRCLE('',#896,3.59035165408627);
#260=CIRCLE('',#897,3.59035165408627);
#261=CIRCLE('',#898,3.59035165408627);
#262=CIRCLE('',#899,3.59035165408627);
#263=CIRCLE('',#900,3.59035165408627);
#264=CIRCLE('',#901,3.59035165408627);
#265=CIRCLE('',#902,3.59035165408627);
#266=CIRCLE('',#903,3.59035165408627);
#267=CIRCLE('',#904,3.59035165408627);
#268=CIRCLE('',#905,3.59035165408627);
#269=CIRCLE('',#906,3.59035165408627);
#270=CIRCLE('',#907,3.59035165408627);
#271=CIRCLE('',#908,3.59035165408627);
#272=CIRCLE('',#909,3.59035165408627);
#273=CIRCLE('',#910,3.59035165408627);
#274=CIRCLE('',#911,3.59035165408627);
#275=CIRCLE('',#912,3.59035165408627);
#276=CIRCLE('',#913,3.59035165408627);
#277=CIRCLE('',#914,3.59035165408627);
#278=CIRCLE('',#915,3.59035165408627);
#279=CIRCLE('',#916,3.59035165408627);
#280=CIRCLE('',#920,5.);
#281=CIRCLE('',#921,5.);
#282=CIRCLE('',#923,3.50000007450596);
#283=CIRCLE('',#924,3.50000007450594);
#284=CIRCLE('',#927,3.50000007450594);
#285=CIRCLE('',#930,3.50000007450596);
#286=CIRCLE('',#932,10.);
#287=CIRCLE('',#933,10.);
#288=CIRCLE('',#937,4.375);
#289=CIRCLE('',#939,4.375);
#290=CIRCLE('',#941,4.375);
#291=CIRCLE('',#943,4.375);
#292=CIRCLE('',#945,4.375);
#293=CIRCLE('',#947,4.375);
#294=CIRCLE('',#949,4.375);
#295=CIRCLE('',#951,4.375);
#296=CIRCLE('',#953,4.375);
#297=CIRCLE('',#955,4.375);
#298=CIRCLE('',#957,4.375);
#299=CIRCLE('',#959,4.375);
#300=CIRCLE('',#961,4.375);
#301=CIRCLE('',#963,4.375);
#302=CIRCLE('',#965,4.375);
#303=CIRCLE('',#967,4.375);
#304=CIRCLE('',#969,4.375);
#305=CIRCLE('',#971,4.375);
#306=CIRCLE('',#973,4.375);
#307=CIRCLE('',#975,4.375);
#308=CIRCLE('',#977,4.375);
#309=CIRCLE('',#979,4.375);
#310=CIRCLE('',#981,4.375);
#311=CIRCLE('',#983,4.375);
#312=CIRCLE('',#985,4.375);
#313=CIRCLE('',#987,4.375);
#314=CIRCLE('',#989,4.375);
#315=CIRCLE('',#991,4.375);
#316=CIRCLE('',#993,4.375);
#317=CIRCLE('',#995,4.375);
#318=CIRCLE('',#997,4.375);
#319=CIRCLE('',#999,4.375);
#320=CIRCLE('',#1001,4.375);
#321=CIRCLE('',#1003,4.375);
#322=CIRCLE('',#1005,4.375);
#323=LINE('',#1311,#348);
#324=LINE('',#1315,#349);
#325=LINE('',#1349,#350);
#326=LINE('',#1352,#351);
#327=LINE('',#1355,#352);
#328=LINE('',#1358,#353);
#329=LINE('',#1361,#354);
#330=LINE('',#1362,#355);
#331=LINE('',#1366,#356);
#332=LINE('',#1410,#357);
#333=LINE('',#1416,#358);
#334=LINE('',#1423,#359);
#335=LINE('',#1426,#360);
#336=LINE('',#1430,#361);
#337=LINE('',#1431,#362);
#338=LINE('',#1432,#363);
#339=LINE('',#1436,#364);
#340=LINE('',#1439,#365);
#341=LINE('',#1440,#366);
#342=LINE('',#1448,#367);
#343=LINE('',#1451,#368);
#344=LINE('',#1453,#369);
#345=LINE('',#1454,#370);
#346=LINE('',#1456,#371);
#347=LINE('',#1563,#372);
#348=VECTOR('',#1012,10.);
#349=VECTOR('',#1015,10.);
#350=VECTOR('',#1048,10.);
#351=VECTOR('',#1051,10.);
#352=VECTOR('',#1054,10.);
#353=VECTOR('',#1057,10.);
#354=VECTOR('',#1060,10.);
#355=VECTOR('',#1061,10.);
#356=VECTOR('',#1066,10.);
#357=VECTOR('',#1111,10.);
#358=VECTOR('',#1118,5.);
#359=VECTOR('',#1125,10.);
#360=VECTOR('',#1128,10.);
#361=VECTOR('',#1131,10.);
#362=VECTOR('',#1132,10.);
#363=VECTOR('',#1133,10.);
#364=VECTOR('',#1138,10.);
#365=VECTOR('',#1141,10.);
#366=VECTOR('',#1142,10.);
#367=VECTOR('',#1151,10.);
#368=VECTOR('',#1154,10.);
#369=VECTOR('',#1157,10.);
#370=VECTOR('',#1158,10.);
#371=VECTOR('',#1161,10.);
#372=VECTOR('',#1304,10.);
#373=VERTEX_POINT('',#1309);
#374=VERTEX_POINT('',#1310);
#375=VERTEX_POINT('',#1312);
#376=VERTEX_POINT('',#1314);
#377=VERTEX_POINT('',#1317);
#378=VERTEX_POINT('',#1319);
#379=VERTEX_POINT('',#1321);
#380=VERTEX_POINT('',#1323);
#381=VERTEX_POINT('',#1325);
#382=VERTEX_POINT('',#1327);
#383=VERTEX_POINT('',#1329);
#384=VERTEX_POINT('',#1331);
#385=VERTEX_POINT('',#1333);
#386=VERTEX_POINT('',#1335);
#387=VERTEX_POINT('',#1337);
#388=VERTEX_POINT('',#1339);
#389=VERTEX_POINT('',#1341);
#390=VERTEX_POINT('',#1343);
#391=VERTEX_POINT('',#1345);
#392=VERTEX_POINT('',#1346);
#393=VERTEX_POINT('',#1348);
#394=VERTEX_POINT('',#1350);
#395=VERTEX_POINT('',#1354);
#396=VERTEX_POINT('',#1356);
#397=VERTEX_POINT('',#1360);
#398=VERTEX_POINT('',#1364);
#399=VERTEX_POINT('',#1367);
#400=VERTEX_POINT('',#1369);
#401=VERTEX_POINT('',#1371);
#402=VERTEX_POINT('',#1373);
#403=VERTEX_POINT('',#1375);
#404=VERTEX_POINT('',#1377);
#405=VERTEX_POINT('',#1379);
#406=VERTEX_POINT('',#1381);
#407=VERTEX_POINT('',#1383);
#408=VERTEX_POINT('',#1385);
#409=VERTEX_POINT('',#1387);
#410=VERTEX_POINT('',#1389);
#411=VERTEX_POINT('',#1391);
#412=VERTEX_POINT('',#1393);
#413=VERTEX_POINT('',#1395);
#414=VERTEX_POINT('',#1397);
#415=VERTEX_POINT('',#1399);
#416=VERTEX_POINT('',#1401);
#417=VERTEX_POINT('',#1403);
#418=VERTEX_POINT('',#1405);
#419=VERTEX_POINT('',#1407);
#420=VERTEX_POINT('',#1413);
#421=VERTEX_POINT('',#1415);
#422=VERTEX_POINT('',#1419);
#423=VERTEX_POINT('',#1420);
#424=VERTEX_POINT('',#1422);
#425=VERTEX_POINT('',#1424);
#426=VERTEX_POINT('',#1428);
#427=VERTEX_POINT('',#1429);
#428=VERTEX_POINT('',#1434);
#429=VERTEX_POINT('',#1438);
#430=VERTEX_POINT('',#1444);
#431=VERTEX_POINT('',#1445);
#432=VERTEX_POINT('',#1447);
#433=VERTEX_POINT('',#1449);
#434=VERTEX_POINT('',#1458);
#435=VERTEX_POINT('',#1461);
#436=VERTEX_POINT('',#1464);
#437=VERTEX_POINT('',#1467);
#438=VERTEX_POINT('',#1470);
#439=VERTEX_POINT('',#1473);
#440=VERTEX_POINT('',#1476);
#441=VERTEX_POINT('',#1479);
#442=VERTEX_POINT('',#1482);
#443=VERTEX_POINT('',#1485);
#444=VERTEX_POINT('',#1488);
#445=VERTEX_POINT('',#1491);
#446=VERTEX_POINT('',#1494);
#447=VERTEX_POINT('',#1497);
#448=VERTEX_POINT('',#1500);
#449=VERTEX_POINT('',#1503);
#450=VERTEX_POINT('',#1506);
#451=VERTEX_POINT('',#1509);
#452=VERTEX_POINT('',#1512);
#453=VERTEX_POINT('',#1515);
#454=VERTEX_POINT('',#1518);
#455=VERTEX_POINT('',#1521);
#456=VERTEX_POINT('',#1524);
#457=VERTEX_POINT('',#1527);
#458=VERTEX_POINT('',#1530);
#459=VERTEX_POINT('',#1533);
#460=VERTEX_POINT('',#1536);
#461=VERTEX_POINT('',#1539);
#462=VERTEX_POINT('',#1542);
#463=VERTEX_POINT('',#1545);
#464=VERTEX_POINT('',#1548);
#465=VERTEX_POINT('',#1551);
#466=VERTEX_POINT('',#1554);
#467=VERTEX_POINT('',#1557);
#468=VERTEX_POINT('',#1560);
#469=EDGE_CURVE('',#373,#374,#323,.T.);
#470=EDGE_CURVE('',#375,#373,#239,.T.);
#471=EDGE_CURVE('',#376,#375,#324,.T.);
#472=EDGE_CURVE('',#374,#376,#240,.T.);
#473=EDGE_CURVE('',#377,#377,#241,.T.);
#474=EDGE_CURVE('',#378,#378,#242,.T.);
#475=EDGE_CURVE('',#379,#379,#243,.T.);
#476=EDGE_CURVE('',#380,#380,#244,.T.);
#477=EDGE_CURVE('',#381,#381,#245,.T.);
#478=EDGE_CURVE('',#382,#382,#246,.T.);
#479=EDGE_CURVE('',#383,#383,#247,.T.);
#480=EDGE_CURVE('',#384,#384,#248,.T.);
#481=EDGE_CURVE('',#385,#385,#249,.T.);
#482=EDGE_CURVE('',#386,#386,#250,.T.);
#483=EDGE_CURVE('',#387,#387,#251,.T.);
#484=EDGE_CURVE('',#388,#388,#252,.T.);
#485=EDGE_CURVE('',#389,#389,#253,.T.);
#486=EDGE_CURVE('',#390,#390,#254,.T.);
#487=EDGE_CURVE('',#391,#392,#255,.T.);
#488=EDGE_CURVE('',#393,#391,#325,.T.);
#489=EDGE_CURVE('',#394,#393,#256,.T.);
#490=EDGE_CURVE('',#392,#394,#326,.T.);
#491=EDGE_CURVE('',#395,#373,#327,.T.);
#492=EDGE_CURVE('',#395,#396,#257,.T.);
#493=EDGE_CURVE('',#396,#375,#328,.T.);
#494=EDGE_CURVE('',#397,#374,#329,.T.);
#495=EDGE_CURVE('',#397,#395,#330,.T.);
#496=EDGE_CURVE('',#398,#397,#258,.T.);
#497=EDGE_CURVE('',#396,#398,#331,.T.);
#498=EDGE_CURVE('',#399,#399,#259,.T.);
#499=EDGE_CURVE('',#400,#400,#260,.T.);
#500=EDGE_CURVE('',#401,#401,#261,.T.);
#501=EDGE_CURVE('',#402,#402,#262,.T.);
#502=EDGE_CURVE('',#403,#403,#263,.T.);
#503=EDGE_CURVE('',#404,#404,#264,.T.);
#504=EDGE_CURVE('',#405,#405,#265,.T.);
#505=EDGE_CURVE('',#406,#406,#266,.T.);
#506=EDGE_CURVE('',#407,#407,#267,.T.);
#507=EDGE_CURVE('',#408,#408,#268,.T.);
#508=EDGE_CURVE('',#409,#409,#269,.T.);
#509=EDGE_CURVE('',#410,#410,#270,.T.);
#510=EDGE_CURVE('',#411,#411,#271,.T.);
#511=EDGE_CURVE('',#412,#412,#272,.T.);
#512=EDGE_CURVE('',#413,#413,#273,.T.);
#513=EDGE_CURVE('',#414,#414,#274,.T.);
#514=EDGE_CURVE('',#415,#415,#275,.T.);
#515=EDGE_CURVE('',#416,#416,#276,.T.);
#516=EDGE_CURVE('',#417,#417,#277,.T.);
#517=EDGE_CURVE('',#418,#418,#278,.T.);
#518=EDGE_CURVE('',#419,#419,#279,.T.);
#519=EDGE_CURVE('',#398,#376,#332,.T.);
#520=EDGE_CURVE('',#420,#420,#280,.F.);
#521=EDGE_CURVE('',#420,#421,#333,.T.);
#522=EDGE_CURVE('',#421,#421,#281,.F.);
#523=EDGE_CURVE('',#422,#423,#282,.F.);
#524=EDGE_CURVE('',#423,#424,#334,.F.);
#525=EDGE_CURVE('',#424,#425,#283,.F.);
#526=EDGE_CURVE('',#425,#422,#335,.F.);
#527=EDGE_CURVE('',#426,#427,#336,.T.);
#528=EDGE_CURVE('',#426,#422,#337,.T.);
#529=EDGE_CURVE('',#427,#425,#338,.T.);
#530=EDGE_CURVE('',#427,#428,#284,.T.);
#531=EDGE_CURVE('',#428,#424,#339,.T.);
#532=EDGE_CURVE('',#428,#429,#340,.T.);
#533=EDGE_CURVE('',#429,#423,#341,.T.);
#534=EDGE_CURVE('',#429,#426,#285,.T.);
#535=EDGE_CURVE('',#430,#431,#286,.T.);
#536=EDGE_CURVE('',#432,#430,#342,.T.);
#537=EDGE_CURVE('',#433,#432,#287,.T.);
#538=EDGE_CURVE('',#431,#433,#343,.T.);
#539=EDGE_CURVE('',#430,#393,#344,.T.);
#540=EDGE_CURVE('',#432,#391,#345,.T.);
#541=EDGE_CURVE('',#394,#431,#346,.T.);
#542=EDGE_CURVE('',#434,#377,#288,.T.);
#543=EDGE_CURVE('',#435,#378,#289,.T.);
#544=EDGE_CURVE('',#436,#379,#290,.T.);
#545=EDGE_CURVE('',#437,#380,#291,.T.);
#546=EDGE_CURVE('',#438,#381,#292,.T.);
#547=EDGE_CURVE('',#439,#382,#293,.T.);
#548=EDGE_CURVE('',#440,#383,#294,.T.);
#549=EDGE_CURVE('',#441,#384,#295,.T.);
#550=EDGE_CURVE('',#442,#385,#296,.T.);
#551=EDGE_CURVE('',#443,#386,#297,.T.);
#552=EDGE_CURVE('',#444,#387,#298,.T.);
#553=EDGE_CURVE('',#445,#388,#299,.T.);
#554=EDGE_CURVE('',#446,#389,#300,.T.);
#555=EDGE_CURVE('',#447,#390,#301,.T.);
#556=EDGE_CURVE('',#399,#448,#302,.T.);
#557=EDGE_CURVE('',#400,#449,#303,.T.);
#558=EDGE_CURVE('',#401,#450,#304,.T.);
#559=EDGE_CURVE('',#402,#451,#305,.T.);
#560=EDGE_CURVE('',#403,#452,#306,.T.);
#561=EDGE_CURVE('',#404,#453,#307,.T.);
#562=EDGE_CURVE('',#405,#454,#308,.T.);
#563=EDGE_CURVE('',#406,#455,#309,.T.);
#564=EDGE_CURVE('',#407,#456,#310,.T.);
#565=EDGE_CURVE('',#408,#457,#311,.T.);
#566=EDGE_CURVE('',#409,#458,#312,.T.);
#567=EDGE_CURVE('',#410,#459,#313,.T.);
#568=EDGE_CURVE('',#411,#460,#314,.T.);
#569=EDGE_CURVE('',#412,#461,#315,.T.);
#570=EDGE_CURVE('',#413,#462,#316,.T.);
#571=EDGE_CURVE('',#414,#463,#317,.T.);
#572=EDGE_CURVE('',#415,#464,#318,.T.);
#573=EDGE_CURVE('',#416,#465,#319,.T.);
#574=EDGE_CURVE('',#417,#466,#320,.T.);
#575=EDGE_CURVE('',#418,#467,#321,.T.);
#576=EDGE_CURVE('',#419,#468,#322,.T.);
#577=EDGE_CURVE('',#433,#392,#347,.T.);
#578=ORIENTED_EDGE('',*,*,#469,.F.);
#579=ORIENTED_EDGE('',*,*,#470,.F.);
#580=ORIENTED_EDGE('',*,*,#471,.F.);
#581=ORIENTED_EDGE('',*,*,#472,.F.);
#582=ORIENTED_EDGE('',*,*,#473,.F.);
#583=ORIENTED_EDGE('',*,*,#474,.F.);
#584=ORIENTED_EDGE('',*,*,#475,.F.);
#585=ORIENTED_EDGE('',*,*,#476,.F.);
#586=ORIENTED_EDGE('',*,*,#477,.F.);
#587=ORIENTED_EDGE('',*,*,#478,.F.);
#588=ORIENTED_EDGE('',*,*,#479,.F.);
#589=ORIENTED_EDGE('',*,*,#480,.F.);
#590=ORIENTED_EDGE('',*,*,#481,.F.);
#591=ORIENTED_EDGE('',*,*,#482,.F.);
#592=ORIENTED_EDGE('',*,*,#483,.F.);
#593=ORIENTED_EDGE('',*,*,#484,.F.);
#594=ORIENTED_EDGE('',*,*,#485,.F.);
#595=ORIENTED_EDGE('',*,*,#486,.F.);
#596=ORIENTED_EDGE('',*,*,#487,.F.);
#597=ORIENTED_EDGE('',*,*,#488,.F.);
#598=ORIENTED_EDGE('',*,*,#489,.F.);
#599=ORIENTED_EDGE('',*,*,#490,.F.);
#600=ORIENTED_EDGE('',*,*,#470,.T.);
#601=ORIENTED_EDGE('',*,*,#491,.F.);
#602=ORIENTED_EDGE('',*,*,#492,.T.);
#603=ORIENTED_EDGE('',*,*,#493,.T.);
#604=ORIENTED_EDGE('',*,*,#469,.T.);
#605=ORIENTED_EDGE('',*,*,#494,.F.);
#606=ORIENTED_EDGE('',*,*,#495,.T.);
#607=ORIENTED_EDGE('',*,*,#491,.T.);
#608=ORIENTED_EDGE('',*,*,#495,.F.);
#609=ORIENTED_EDGE('',*,*,#496,.F.);
#610=ORIENTED_EDGE('',*,*,#497,.F.);
#611=ORIENTED_EDGE('',*,*,#492,.F.);
#612=ORIENTED_EDGE('',*,*,#498,.F.);
#613=ORIENTED_EDGE('',*,*,#499,.F.);
#614=ORIENTED_EDGE('',*,*,#500,.F.);
#615=ORIENTED_EDGE('',*,*,#501,.F.);
#616=ORIENTED_EDGE('',*,*,#502,.F.);
#617=ORIENTED_EDGE('',*,*,#503,.F.);
#618=ORIENTED_EDGE('',*,*,#504,.F.);
#619=ORIENTED_EDGE('',*,*,#505,.F.);
#620=ORIENTED_EDGE('',*,*,#506,.F.);
#621=ORIENTED_EDGE('',*,*,#507,.F.);
#622=ORIENTED_EDGE('',*,*,#508,.F.);
#623=ORIENTED_EDGE('',*,*,#509,.F.);
#624=ORIENTED_EDGE('',*,*,#510,.F.);
#625=ORIENTED_EDGE('',*,*,#511,.F.);
#626=ORIENTED_EDGE('',*,*,#512,.F.);
#627=ORIENTED_EDGE('',*,*,#513,.F.);
#628=ORIENTED_EDGE('',*,*,#514,.F.);
#629=ORIENTED_EDGE('',*,*,#515,.F.);
#630=ORIENTED_EDGE('',*,*,#516,.F.);
#631=ORIENTED_EDGE('',*,*,#517,.F.);
#632=ORIENTED_EDGE('',*,*,#518,.F.);
#633=ORIENTED_EDGE('',*,*,#471,.T.);
#634=ORIENTED_EDGE('',*,*,#493,.F.);
#635=ORIENTED_EDGE('',*,*,#497,.T.);
#636=ORIENTED_EDGE('',*,*,#519,.T.);
#637=ORIENTED_EDGE('',*,*,#472,.T.);
#638=ORIENTED_EDGE('',*,*,#519,.F.);
#639=ORIENTED_EDGE('',*,*,#496,.T.);
#640=ORIENTED_EDGE('',*,*,#494,.T.);
#641=ORIENTED_EDGE('',*,*,#520,.F.);
#642=ORIENTED_EDGE('',*,*,#521,.T.);
#643=ORIENTED_EDGE('',*,*,#522,.F.);
#644=ORIENTED_EDGE('',*,*,#521,.F.);
#645=ORIENTED_EDGE('',*,*,#523,.T.);
#646=ORIENTED_EDGE('',*,*,#524,.T.);
#647=ORIENTED_EDGE('',*,*,#525,.T.);
#648=ORIENTED_EDGE('',*,*,#526,.T.);
#649=ORIENTED_EDGE('',*,*,#527,.F.);
#650=ORIENTED_EDGE('',*,*,#528,.T.);
#651=ORIENTED_EDGE('',*,*,#526,.F.);
#652=ORIENTED_EDGE('',*,*,#529,.F.);
#653=ORIENTED_EDGE('',*,*,#520,.T.);
#654=ORIENTED_EDGE('',*,*,#530,.F.);
#655=ORIENTED_EDGE('',*,*,#529,.T.);
#656=ORIENTED_EDGE('',*,*,#525,.F.);
#657=ORIENTED_EDGE('',*,*,#531,.F.);
#658=ORIENTED_EDGE('',*,*,#532,.F.);
#659=ORIENTED_EDGE('',*,*,#531,.T.);
#660=ORIENTED_EDGE('',*,*,#524,.F.);
#661=ORIENTED_EDGE('',*,*,#533,.F.);
#662=ORIENTED_EDGE('',*,*,#522,.T.);
#663=ORIENTED_EDGE('',*,*,#534,.F.);
#664=ORIENTED_EDGE('',*,*,#533,.T.);
#665=ORIENTED_EDGE('',*,*,#523,.F.);
#666=ORIENTED_EDGE('',*,*,#528,.F.);
#667=ORIENTED_EDGE('',*,*,#535,.F.);
#668=ORIENTED_EDGE('',*,*,#536,.F.);
#669=ORIENTED_EDGE('',*,*,#537,.F.);
#670=ORIENTED_EDGE('',*,*,#538,.F.);
#671=ORIENTED_EDGE('',*,*,#527,.T.);
#672=ORIENTED_EDGE('',*,*,#530,.T.);
#673=ORIENTED_EDGE('',*,*,#532,.T.);
#674=ORIENTED_EDGE('',*,*,#534,.T.);
#675=ORIENTED_EDGE('',*,*,#536,.T.);
#676=ORIENTED_EDGE('',*,*,#539,.T.);
#677=ORIENTED_EDGE('',*,*,#488,.T.);
#678=ORIENTED_EDGE('',*,*,#540,.F.);
#679=ORIENTED_EDGE('',*,*,#535,.T.);
#680=ORIENTED_EDGE('',*,*,#541,.F.);
#681=ORIENTED_EDGE('',*,*,#489,.T.);
#682=ORIENTED_EDGE('',*,*,#539,.F.);
#683=ORIENTED_EDGE('',*,*,#473,.T.);
#684=ORIENTED_EDGE('',*,*,#542,.F.);
#685=ORIENTED_EDGE('',*,*,#542,.T.);
#686=ORIENTED_EDGE('',*,*,#474,.T.);
#687=ORIENTED_EDGE('',*,*,#543,.F.);
#688=ORIENTED_EDGE('',*,*,#543,.T.);
#689=ORIENTED_EDGE('',*,*,#475,.T.);
#690=ORIENTED_EDGE('',*,*,#544,.F.);
#691=ORIENTED_EDGE('',*,*,#544,.T.);
#692=ORIENTED_EDGE('',*,*,#476,.T.);
#693=ORIENTED_EDGE('',*,*,#545,.F.);
#694=ORIENTED_EDGE('',*,*,#545,.T.);
#695=ORIENTED_EDGE('',*,*,#477,.T.);
#696=ORIENTED_EDGE('',*,*,#546,.F.);
#697=ORIENTED_EDGE('',*,*,#546,.T.);
#698=ORIENTED_EDGE('',*,*,#478,.T.);
#699=ORIENTED_EDGE('',*,*,#547,.F.);
#700=ORIENTED_EDGE('',*,*,#547,.T.);
#701=ORIENTED_EDGE('',*,*,#479,.T.);
#702=ORIENTED_EDGE('',*,*,#548,.F.);
#703=ORIENTED_EDGE('',*,*,#548,.T.);
#704=ORIENTED_EDGE('',*,*,#480,.T.);
#705=ORIENTED_EDGE('',*,*,#549,.F.);
#706=ORIENTED_EDGE('',*,*,#549,.T.);
#707=ORIENTED_EDGE('',*,*,#481,.T.);
#708=ORIENTED_EDGE('',*,*,#550,.F.);
#709=ORIENTED_EDGE('',*,*,#550,.T.);
#710=ORIENTED_EDGE('',*,*,#482,.T.);
#711=ORIENTED_EDGE('',*,*,#551,.F.);
#712=ORIENTED_EDGE('',*,*,#551,.T.);
#713=ORIENTED_EDGE('',*,*,#483,.T.);
#714=ORIENTED_EDGE('',*,*,#552,.F.);
#715=ORIENTED_EDGE('',*,*,#552,.T.);
#716=ORIENTED_EDGE('',*,*,#484,.T.);
#717=ORIENTED_EDGE('',*,*,#553,.F.);
#718=ORIENTED_EDGE('',*,*,#553,.T.);
#719=ORIENTED_EDGE('',*,*,#485,.T.);
#720=ORIENTED_EDGE('',*,*,#554,.F.);
#721=ORIENTED_EDGE('',*,*,#554,.T.);
#722=ORIENTED_EDGE('',*,*,#486,.T.);
#723=ORIENTED_EDGE('',*,*,#555,.F.);
#724=ORIENTED_EDGE('',*,*,#555,.T.);
#725=ORIENTED_EDGE('',*,*,#498,.T.);
#726=ORIENTED_EDGE('',*,*,#556,.T.);
#727=ORIENTED_EDGE('',*,*,#556,.F.);
#728=ORIENTED_EDGE('',*,*,#499,.T.);
#729=ORIENTED_EDGE('',*,*,#557,.T.);
#730=ORIENTED_EDGE('',*,*,#557,.F.);
#731=ORIENTED_EDGE('',*,*,#500,.T.);
#732=ORIENTED_EDGE('',*,*,#558,.T.);
#733=ORIENTED_EDGE('',*,*,#558,.F.);
#734=ORIENTED_EDGE('',*,*,#501,.T.);
#735=ORIENTED_EDGE('',*,*,#559,.T.);
#736=ORIENTED_EDGE('',*,*,#559,.F.);
#737=ORIENTED_EDGE('',*,*,#502,.T.);
#738=ORIENTED_EDGE('',*,*,#560,.T.);
#739=ORIENTED_EDGE('',*,*,#560,.F.);
#740=ORIENTED_EDGE('',*,*,#503,.T.);
#741=ORIENTED_EDGE('',*,*,#561,.T.);
#742=ORIENTED_EDGE('',*,*,#561,.F.);
#743=ORIENTED_EDGE('',*,*,#504,.T.);
#744=ORIENTED_EDGE('',*,*,#562,.T.);
#745=ORIENTED_EDGE('',*,*,#562,.F.);
#746=ORIENTED_EDGE('',*,*,#505,.T.);
#747=ORIENTED_EDGE('',*,*,#563,.T.);
#748=ORIENTED_EDGE('',*,*,#563,.F.);
#749=ORIENTED_EDGE('',*,*,#506,.T.);
#750=ORIENTED_EDGE('',*,*,#564,.T.);
#751=ORIENTED_EDGE('',*,*,#564,.F.);
#752=ORIENTED_EDGE('',*,*,#507,.T.);
#753=ORIENTED_EDGE('',*,*,#565,.T.);
#754=ORIENTED_EDGE('',*,*,#565,.F.);
#755=ORIENTED_EDGE('',*,*,#508,.T.);
#756=ORIENTED_EDGE('',*,*,#566,.T.);
#757=ORIENTED_EDGE('',*,*,#566,.F.);
#758=ORIENTED_EDGE('',*,*,#509,.T.);
#759=ORIENTED_EDGE('',*,*,#567,.T.);
#760=ORIENTED_EDGE('',*,*,#567,.F.);
#761=ORIENTED_EDGE('',*,*,#510,.T.);
#762=ORIENTED_EDGE('',*,*,#568,.T.);
#763=ORIENTED_EDGE('',*,*,#568,.F.);
#764=ORIENTED_EDGE('',*,*,#511,.T.);
#765=ORIENTED_EDGE('',*,*,#569,.T.);
#766=ORIENTED_EDGE('',*,*,#569,.F.);
#767=ORIENTED_EDGE('',*,*,#512,.T.);
#768=ORIENTED_EDGE('',*,*,#570,.T.);
#769=ORIENTED_EDGE('',*,*,#570,.F.);
#770=ORIENTED_EDGE('',*,*,#513,.T.);
#771=ORIENTED_EDGE('',*,*,#571,.T.);
#772=ORIENTED_EDGE('',*,*,#571,.F.);
#773=ORIENTED_EDGE('',*,*,#514,.T.);
#774=ORIENTED_EDGE('',*,*,#572,.T.);
#775=ORIENTED_EDGE('',*,*,#572,.F.);
#776=ORIENTED_EDGE('',*,*,#515,.T.);
#777=ORIENTED_EDGE('',*,*,#573,.T.);
#778=ORIENTED_EDGE('',*,*,#573,.F.);
#779=ORIENTED_EDGE('',*,*,#516,.T.);
#780=ORIENTED_EDGE('',*,*,#574,.T.);
#781=ORIENTED_EDGE('',*,*,#574,.F.);
#782=ORIENTED_EDGE('',*,*,#517,.T.);
#783=ORIENTED_EDGE('',*,*,#575,.T.);
#784=ORIENTED_EDGE('',*,*,#575,.F.);
#785=ORIENTED_EDGE('',*,*,#518,.T.);
#786=ORIENTED_EDGE('',*,*,#576,.T.);
#787=ORIENTED_EDGE('',*,*,#576,.F.);
#788=ORIENTED_EDGE('',*,*,#538,.T.);
#789=ORIENTED_EDGE('',*,*,#577,.T.);
#790=ORIENTED_EDGE('',*,*,#490,.T.);
#791=ORIENTED_EDGE('',*,*,#541,.T.);
#792=ORIENTED_EDGE('',*,*,#537,.T.);
#793=ORIENTED_EDGE('',*,*,#540,.T.);
#794=ORIENTED_EDGE('',*,*,#487,.T.);
#795=ORIENTED_EDGE('',*,*,#577,.F.);
#796=PLANE('',#872);
#797=PLANE('',#893);
#798=PLANE('',#894);
#799=PLANE('',#917);
#800=PLANE('',#922);
#801=PLANE('',#925);
#802=PLANE('',#928);
#803=PLANE('',#931);
#804=PLANE('',#934);
#805=PLANE('',#1006);
#806=ADVANCED_FACE('',(#96,#57,#58,#59,#60,#61,#62,#63,#64,#65,#66,#67,
#68,#69,#70,#71),#796,.T.);
#807=ADVANCED_FACE('',(#97),#50,.T.);
#808=ADVANCED_FACE('',(#98),#797,.T.);
#809=ADVANCED_FACE('',(#99,#72,#73,#74,#75,#76,#77,#78,#79,#80,#81,#82,
#83,#84,#85,#86,#87,#88,#89,#90,#91,#92),#798,.F.);
#810=ADVANCED_FACE('',(#100),#799,.T.);
#811=ADVANCED_FACE('',(#101),#51,.T.);
#812=ADVANCED_FACE('',(#102),#52,.F.);
#813=ADVANCED_FACE('',(#103),#800,.T.);
#814=ADVANCED_FACE('',(#104,#93),#801,.T.);
#815=ADVANCED_FACE('',(#105),#53,.T.);
#816=ADVANCED_FACE('',(#106,#94),#802,.T.);
#817=ADVANCED_FACE('',(#107),#54,.T.);
#818=ADVANCED_FACE('',(#108,#95),#803,.T.);
#819=ADVANCED_FACE('',(#109),#804,.T.);
#820=ADVANCED_FACE('',(#110),#55,.T.);
#821=ADVANCED_FACE('',(#111),#15,.F.);
#822=ADVANCED_FACE('',(#112),#16,.F.);
#823=ADVANCED_FACE('',(#113),#17,.F.);
#824=ADVANCED_FACE('',(#114),#18,.F.);
#825=ADVANCED_FACE('',(#115),#19,.F.);
#826=ADVANCED_FACE('',(#116),#20,.F.);
#827=ADVANCED_FACE('',(#117),#21,.F.);
#828=ADVANCED_FACE('',(#118),#22,.F.);
#829=ADVANCED_FACE('',(#119),#23,.F.);
#830=ADVANCED_FACE('',(#120),#24,.F.);
#831=ADVANCED_FACE('',(#121),#25,.F.);
#832=ADVANCED_FACE('',(#122),#26,.F.);
#833=ADVANCED_FACE('',(#123),#27,.F.);
#834=ADVANCED_FACE('',(#124),#28,.F.);
#835=ADVANCED_FACE('',(#125),#29,.F.);
#836=ADVANCED_FACE('',(#126),#30,.F.);
#837=ADVANCED_FACE('',(#127),#31,.F.);
#838=ADVANCED_FACE('',(#128),#32,.F.);
#839=ADVANCED_FACE('',(#129),#33,.F.);
#840=ADVANCED_FACE('',(#130),#34,.F.);
#841=ADVANCED_FACE('',(#131),#35,.F.);
#842=ADVANCED_FACE('',(#132),#36,.F.);
#843=ADVANCED_FACE('',(#133),#37,.F.);
#844=ADVANCED_FACE('',(#134),#38,.F.);
#845=ADVANCED_FACE('',(#135),#39,.F.);
#846=ADVANCED_FACE('',(#136),#40,.F.);
#847=ADVANCED_FACE('',(#137),#41,.F.);
#848=ADVANCED_FACE('',(#138),#42,.F.);
#849=ADVANCED_FACE('',(#139),#43,.F.);
#850=ADVANCED_FACE('',(#140),#44,.F.);
#851=ADVANCED_FACE('',(#141),#45,.F.);
#852=ADVANCED_FACE('',(#142),#46,.F.);
#853=ADVANCED_FACE('',(#143),#47,.F.);
#854=ADVANCED_FACE('',(#144),#48,.F.);
#855=ADVANCED_FACE('',(#145),#49,.F.);
#856=ADVANCED_FACE('',(#146),#805,.T.);
#857=ADVANCED_FACE('',(#147),#56,.T.);
#858=CLOSED_SHELL('',(#806,#807,#808,#809,#810,#811,#812,#813,#814,#815,
#816,#817,#818,#819,#820,#821,#822,#823,#824,#825,#826,#827,#828,#829,#830,
#831,#832,#833,#834,#835,#836,#837,#838,#839,#840,#841,#842,#843,#844,#845,
#846,#847,#848,#849,#850,#851,#852,#853,#854,#855,#856,#857));
#859=DERIVED_UNIT_ELEMENT(#861,1.);
#860=DERIVED_UNIT_ELEMENT(#1570,-3.);
#861=(
MASS_UNIT()
NAMED_UNIT(*)
SI_UNIT(.KILO.,.GRAM.)
);
#862=DERIVED_UNIT((#859,#860));
#863=MEASURE_REPRESENTATION_ITEM('density measure',
POSITIVE_RATIO_MEASURE(7850.),#862);
#864=PROPERTY_DEFINITION_REPRESENTATION(#869,#866);
#865=PROPERTY_DEFINITION_REPRESENTATION(#870,#867);
#866=REPRESENTATION('material name',(#868),#1567);
#867=REPRESENTATION('density',(#863),#1567);
#868=DESCRIPTIVE_REPRESENTATION_ITEM('Steel','Steel');
#869=PROPERTY_DEFINITION('material property','material name',#1577);
#870=PROPERTY_DEFINITION('material property','density of part',#1577);
#871=AXIS2_PLACEMENT_3D('',#1307,#1008,#1009);
#872=AXIS2_PLACEMENT_3D('',#1308,#1010,#1011);
#873=AXIS2_PLACEMENT_3D('',#1313,#1013,#1014);
#874=AXIS2_PLACEMENT_3D('',#1316,#1016,#1017);
#875=AXIS2_PLACEMENT_3D('',#1318,#1018,#1019);
#876=AXIS2_PLACEMENT_3D('',#1320,#1020,#1021);
#877=AXIS2_PLACEMENT_3D('',#1322,#1022,#1023);
#878=AXIS2_PLACEMENT_3D('',#1324,#1024,#1025);
#879=AXIS2_PLACEMENT_3D('',#1326,#1026,#1027);
#880=AXIS2_PLACEMENT_3D('',#1328,#1028,#1029);
#881=AXIS2_PLACEMENT_3D('',#1330,#1030,#1031);
#882=AXIS2_PLACEMENT_3D('',#1332,#1032,#1033);
#883=AXIS2_PLACEMENT_3D('',#1334,#1034,#1035);
#884=AXIS2_PLACEMENT_3D('',#1336,#1036,#1037);
#885=AXIS2_PLACEMENT_3D('',#1338,#1038,#1039);
#886=AXIS2_PLACEMENT_3D('',#1340,#1040,#1041);
#887=AXIS2_PLACEMENT_3D('',#1342,#1042,#1043);
#888=AXIS2_PLACEMENT_3D('',#1344,#1044,#1045);
#889=AXIS2_PLACEMENT_3D('',#1347,#1046,#1047);
#890=AXIS2_PLACEMENT_3D('',#1351,#1049,#1050);
#891=AXIS2_PLACEMENT_3D('',#1353,#1052,#1053);
#892=AXIS2_PLACEMENT_3D('',#1357,#1055,#1056);
#893=AXIS2_PLACEMENT_3D('',#1359,#1058,#1059);
#894=AXIS2_PLACEMENT_3D('',#1363,#1062,#1063);
#895=AXIS2_PLACEMENT_3D('',#1365,#1064,#1065);
#896=AXIS2_PLACEMENT_3D('',#1368,#1067,#1068);
#897=AXIS2_PLACEMENT_3D('',#1370,#1069,#1070);
#898=AXIS2_PLACEMENT_3D('',#1372,#1071,#1072);
#899=AXIS2_PLACEMENT_3D('',#1374,#1073,#1074);
#900=AXIS2_PLACEMENT_3D('',#1376,#1075,#1076);
#901=AXIS2_PLACEMENT_3D('',#1378,#1077,#1078);
#902=AXIS2_PLACEMENT_3D('',#1380,#1079,#1080);
#903=AXIS2_PLACEMENT_3D('',#1382,#1081,#1082);
#904=AXIS2_PLACEMENT_3D('',#1384,#1083,#1084);
#905=AXIS2_PLACEMENT_3D('',#1386,#1085,#1086);
#906=AXIS2_PLACEMENT_3D('',#1388,#1087,#1088);
#907=AXIS2_PLACEMENT_3D('',#1390,#1089,#1090);
#908=AXIS2_PLACEMENT_3D('',#1392,#1091,#1092);
#909=AXIS2_PLACEMENT_3D('',#1394,#1093,#1094);
#910=AXIS2_PLACEMENT_3D('',#1396,#1095,#1096);
#911=AXIS2_PLACEMENT_3D('',#1398,#1097,#1098);
#912=AXIS2_PLACEMENT_3D('',#1400,#1099,#1100);
#913=AXIS2_PLACEMENT_3D('',#1402,#1101,#1102);
#914=AXIS2_PLACEMENT_3D('',#1404,#1103,#1104);
#915=AXIS2_PLACEMENT_3D('',#1406,#1105,#1106);
#916=AXIS2_PLACEMENT_3D('',#1408,#1107,#1108);
#917=AXIS2_PLACEMENT_3D('',#1409,#1109,#1110);
#918=AXIS2_PLACEMENT_3D('',#1411,#1112,#1113);
#919=AXIS2_PLACEMENT_3D('',#1412,#1114,#1115);
#920=AXIS2_PLACEMENT_3D('',#1414,#1116,#1117);
#921=AXIS2_PLACEMENT_3D('',#1417,#1119,#1120);
#922=AXIS2_PLACEMENT_3D('',#1418,#1121,#1122);
#923=AXIS2_PLACEMENT_3D('',#1421,#1123,#1124);
#924=AXIS2_PLACEMENT_3D('',#1425,#1126,#1127);
#925=AXIS2_PLACEMENT_3D('',#1427,#1129,#1130);
#926=AXIS2_PLACEMENT_3D('',#1433,#1134,#1135);
#927=AXIS2_PLACEMENT_3D('',#1435,#1136,#1137);
#928=AXIS2_PLACEMENT_3D('',#1437,#1139,#1140);
#929=AXIS2_PLACEMENT_3D('',#1441,#1143,#1144);
#930=AXIS2_PLACEMENT_3D('',#1442,#1145,#1146);
#931=AXIS2_PLACEMENT_3D('',#1443,#1147,#1148);
#932=AXIS2_PLACEMENT_3D('',#1446,#1149,#1150);
#933=AXIS2_PLACEMENT_3D('',#1450,#1152,#1153);
#934=AXIS2_PLACEMENT_3D('',#1452,#1155,#1156);
#935=AXIS2_PLACEMENT_3D('',#1455,#1159,#1160);
#936=AXIS2_PLACEMENT_3D('',#1457,#1162,#1163);
#937=AXIS2_PLACEMENT_3D('',#1459,#1164,#1165);
#938=AXIS2_PLACEMENT_3D('',#1460,#1166,#1167);
#939=AXIS2_PLACEMENT_3D('',#1462,#1168,#1169);
#940=AXIS2_PLACEMENT_3D('',#1463,#1170,#1171);
#941=AXIS2_PLACEMENT_3D('',#1465,#1172,#1173);
#942=AXIS2_PLACEMENT_3D('',#1466,#1174,#1175);
#943=AXIS2_PLACEMENT_3D('',#1468,#1176,#1177);
#944=AXIS2_PLACEMENT_3D('',#1469,#1178,#1179);
#945=AXIS2_PLACEMENT_3D('',#1471,#1180,#1181);
#946=AXIS2_PLACEMENT_3D('',#1472,#1182,#1183);
#947=AXIS2_PLACEMENT_3D('',#1474,#1184,#1185);
#948=AXIS2_PLACEMENT_3D('',#1475,#1186,#1187);
#949=AXIS2_PLACEMENT_3D('',#1477,#1188,#1189);
#950=AXIS2_PLACEMENT_3D('',#1478,#1190,#1191);
#951=AXIS2_PLACEMENT_3D('',#1480,#1192,#1193);
#952=AXIS2_PLACEMENT_3D('',#1481,#1194,#1195);
#953=AXIS2_PLACEMENT_3D('',#1483,#1196,#1197);
#954=AXIS2_PLACEMENT_3D('',#1484,#1198,#1199);
#955=AXIS2_PLACEMENT_3D('',#1486,#1200,#1201);
#956=AXIS2_PLACEMENT_3D('',#1487,#1202,#1203);
#957=AXIS2_PLACEMENT_3D('',#1489,#1204,#1205);
#958=AXIS2_PLACEMENT_3D('',#1490,#1206,#1207);
#959=AXIS2_PLACEMENT_3D('',#1492,#1208,#1209);
#960=AXIS2_PLACEMENT_3D('',#1493,#1210,#1211);
#961=AXIS2_PLACEMENT_3D('',#1495,#1212,#1213);
#962=AXIS2_PLACEMENT_3D('',#1496,#1214,#1215);
#963=AXIS2_PLACEMENT_3D('',#1498,#1216,#1217);
#964=AXIS2_PLACEMENT_3D('',#1499,#1218,#1219);
#965=AXIS2_PLACEMENT_3D('',#1501,#1220,#1221);
#966=AXIS2_PLACEMENT_3D('',#1502,#1222,#1223);
#967=AXIS2_PLACEMENT_3D('',#1504,#1224,#1225);
#968=AXIS2_PLACEMENT_3D('',#1505,#1226,#1227);
#969=AXIS2_PLACEMENT_3D('',#1507,#1228,#1229);
#970=AXIS2_PLACEMENT_3D('',#1508,#1230,#1231);
#971=AXIS2_PLACEMENT_3D('',#1510,#1232,#1233);
#972=AXIS2_PLACEMENT_3D('',#1511,#1234,#1235);
#973=AXIS2_PLACEMENT_3D('',#1513,#1236,#1237);
#974=AXIS2_PLACEMENT_3D('',#1514,#1238,#1239);
#975=AXIS2_PLACEMENT_3D('',#1516,#1240,#1241);
#976=AXIS2_PLACEMENT_3D('',#1517,#1242,#1243);
#977=AXIS2_PLACEMENT_3D('',#1519,#1244,#1245);
#978=AXIS2_PLACEMENT_3D('',#1520,#1246,#1247);
#979=AXIS2_PLACEMENT_3D('',#1522,#1248,#1249);
#980=AXIS2_PLACEMENT_3D('',#1523,#1250,#1251);
#981=AXIS2_PLACEMENT_3D('',#1525,#1252,#1253);
#982=AXIS2_PLACEMENT_3D('',#1526,#1254,#1255);
#983=AXIS2_PLACEMENT_3D('',#1528,#1256,#1257);
#984=AXIS2_PLACEMENT_3D('',#1529,#1258,#1259);
#985=AXIS2_PLACEMENT_3D('',#1531,#1260,#1261);
#986=AXIS2_PLACEMENT_3D('',#1532,#1262,#1263);
#987=AXIS2_PLACEMENT_3D('',#1534,#1264,#1265);
#988=AXIS2_PLACEMENT_3D('',#1535,#1266,#1267);
#989=AXIS2_PLACEMENT_3D('',#1537,#1268,#1269);
#990=AXIS2_PLACEMENT_3D('',#1538,#1270,#1271);
#991=AXIS2_PLACEMENT_3D('',#1540,#1272,#1273);
#992=AXIS2_PLACEMENT_3D('',#1541,#1274,#1275);
#993=AXIS2_PLACEMENT_3D('',#1543,#1276,#1277);
#994=AXIS2_PLACEMENT_3D('',#1544,#1278,#1279);
#995=AXIS2_PLACEMENT_3D('',#1546,#1280,#1281);
#996=AXIS2_PLACEMENT_3D('',#1547,#1282,#1283);
#997=AXIS2_PLACEMENT_3D('',#1549,#1284,#1285);
#998=AXIS2_PLACEMENT_3D('',#1550,#1286,#1287);
#999=AXIS2_PLACEMENT_3D('',#1552,#1288,#1289);
#1000=AXIS2_PLACEMENT_3D('',#1553,#1290,#1291);
#1001=AXIS2_PLACEMENT_3D('',#1555,#1292,#1293);
#1002=AXIS2_PLACEMENT_3D('',#1556,#1294,#1295);
#1003=AXIS2_PLACEMENT_3D('',#1558,#1296,#1297);
#1004=AXIS2_PLACEMENT_3D('',#1559,#1298,#1299);
#1005=AXIS2_PLACEMENT_3D('',#1561,#1300,#1301);
#1006=AXIS2_PLACEMENT_3D('',#1562,#1302,#1303);
#1007=AXIS2_PLACEMENT_3D('',#1564,#1305,#1306);
#1008=DIRECTION('axis',(0.,0.,1.));
#1009=DIRECTION('refdir',(1.,0.,0.));
#1010=DIRECTION('center_axis',(0.,0.,1.));
#1011=DIRECTION('ref_axis',(-1.,0.,0.));
#1012=DIRECTION('',(-1.,0.,0.));
#1013=DIRECTION('center_axis',(0.,0.,-1.));
#1014=DIRECTION('ref_axis',(0.,-1.,0.));
#1015=DIRECTION('',(1.,0.,0.));
#1016=DIRECTION('center_axis',(0.,0.,-1.));
#1017=DIRECTION('ref_axis',(0.,1.,0.));
#1018=DIRECTION('center_axis',(0.,0.,1.));
#1019=DIRECTION('ref_axis',(0.,-1.,0.));
#1020=DIRECTION('center_axis',(0.,0.,1.));
#1021=DIRECTION('ref_axis',(0.,-1.,0.));
#1022=DIRECTION('center_axis',(0.,0.,1.));
#1023=DIRECTION('ref_axis',(0.,-1.,0.));
#1024=DIRECTION('center_axis',(0.,0.,1.));
#1025=DIRECTION('ref_axis',(0.,-1.,0.));
#1026=DIRECTION('center_axis',(0.,0.,1.));
#1027=DIRECTION('ref_axis',(0.,-1.,0.));
#1028=DIRECTION('center_axis',(0.,0.,1.));
#1029=DIRECTION('ref_axis',(0.,-1.,0.));
#1030=DIRECTION('center_axis',(0.,0.,1.));
#1031=DIRECTION('ref_axis',(0.,-1.,0.));
#1032=DIRECTION('center_axis',(0.,0.,1.));
#1033=DIRECTION('ref_axis',(0.,-1.,0.));
#1034=DIRECTION('center_axis',(0.,0.,1.));
#1035=DIRECTION('ref_axis',(0.,-1.,0.));
#1036=DIRECTION('center_axis',(0.,0.,1.));
#1037=DIRECTION('ref_axis',(0.,-1.,0.));
#1038=DIRECTION('center_axis',(0.,0.,1.));
#1039=DIRECTION('ref_axis',(0.,-1.,0.));
#1040=DIRECTION('center_axis',(0.,0.,1.));
#1041=DIRECTION('ref_axis',(0.,-1.,0.));
#1042=DIRECTION('center_axis',(0.,0.,1.));
#1043=DIRECTION('ref_axis',(0.,-1.,0.));
#1044=DIRECTION('center_axis',(0.,0.,1.));
#1045=DIRECTION('ref_axis',(0.,-1.,0.));
#1046=DIRECTION('center_axis',(0.,0.,1.));
#1047=DIRECTION('ref_axis',(1.77635683940025E-15,1.,0.));
#1048=DIRECTION('',(-1.,0.,0.));
#1049=DIRECTION('center_axis',(0.,0.,1.));
#1050=DIRECTION('ref_axis',(-1.77635683940025E-15,-1.,0.));
#1051=DIRECTION('',(1.,0.,0.));
#1052=DIRECTION('center_axis',(0.,0.,1.));
#1053=DIRECTION('ref_axis',(0.,-1.,0.));
#1054=DIRECTION('',(0.,0.,1.));
#1055=DIRECTION('center_axis',(0.,0.,1.));
#1056=DIRECTION('ref_axis',(0.,-1.,0.));
#1057=DIRECTION('',(0.,0.,1.));
#1058=DIRECTION('center_axis',(0.,-1.,0.));
#1059=DIRECTION('ref_axis',(1.,0.,0.));
#1060=DIRECTION('',(0.,0.,1.));
#1061=DIRECTION('',(1.,0.,0.));
#1062=DIRECTION('center_axis',(0.,0.,1.));
#1063=DIRECTION('ref_axis',(1.,0.,0.));
#1064=DIRECTION('center_axis',(0.,0.,1.));
#1065=DIRECTION('ref_axis',(0.,1.,0.));
#1066=DIRECTION('',(-1.,0.,0.));
#1067=DIRECTION('center_axis',(0.,0.,-1.));
#1068=DIRECTION('ref_axis',(0.,1.,0.));
#1069=DIRECTION('center_axis',(0.,0.,-1.));
#1070=DIRECTION('ref_axis',(0.,1.,0.));
#1071=DIRECTION('center_axis',(0.,0.,-1.));
#1072=DIRECTION('ref_axis',(0.,1.,0.));
#1073=DIRECTION('center_axis',(0.,0.,-1.));
#1074=DIRECTION('ref_axis',(0.,1.,0.));
#1075=DIRECTION('center_axis',(0.,0.,-1.));
#1076=DIRECTION('ref_axis',(0.,1.,0.));
#1077=DIRECTION('center_axis',(0.,0.,-1.));
#1078=DIRECTION('ref_axis',(0.,1.,0.));
#1079=DIRECTION('center_axis',(0.,0.,-1.));
#1080=DIRECTION('ref_axis',(0.,1.,0.));
#1081=DIRECTION('center_axis',(0.,0.,-1.));
#1082=DIRECTION('ref_axis',(0.,1.,0.));
#1083=DIRECTION('center_axis',(0.,0.,-1.));
#1084=DIRECTION('ref_axis',(0.,1.,0.));
#1085=DIRECTION('center_axis',(0.,0.,-1.));
#1086=DIRECTION('ref_axis',(0.,1.,0.));
#1087=DIRECTION('center_axis',(0.,0.,-1.));
#1088=DIRECTION('ref_axis',(0.,1.,0.));
#1089=DIRECTION('center_axis',(0.,0.,-1.));
#1090=DIRECTION('ref_axis',(0.,1.,0.));
#1091=DIRECTION('center_axis',(0.,0.,-1.));
#1092=DIRECTION('ref_axis',(0.,1.,0.));
#1093=DIRECTION('center_axis',(0.,0.,-1.));
#1094=DIRECTION('ref_axis',(0.,1.,0.));
#1095=DIRECTION('center_axis',(0.,0.,-1.));
#1096=DIRECTION('ref_axis',(0.,1.,0.));
#1097=DIRECTION('center_axis',(0.,0.,-1.));
#1098=DIRECTION('ref_axis',(0.,1.,0.));
#1099=DIRECTION('center_axis',(0.,0.,-1.));
#1100=DIRECTION('ref_axis',(0.,1.,0.));
#1101=DIRECTION('center_axis',(0.,0.,-1.));
#1102=DIRECTION('ref_axis',(0.,1.,0.));
#1103=DIRECTION('center_axis',(0.,0.,-1.));
#1104=DIRECTION('ref_axis',(0.,1.,0.));
#1105=DIRECTION('center_axis',(0.,0.,-1.));
#1106=DIRECTION('ref_axis',(0.,1.,0.));
#1107=DIRECTION('center_axis',(0.,0.,-1.));
#1108=DIRECTION('ref_axis',(0.,1.,0.));
#1109=DIRECTION('center_axis',(0.,1.,0.));
#1110=DIRECTION('ref_axis',(-1.,0.,0.));
#1111=DIRECTION('',(0.,0.,1.));
#1112=DIRECTION('center_axis',(0.,0.,1.));
#1113=DIRECTION('ref_axis',(0.,1.,0.));
#1114=DIRECTION('center_axis',(0.,-1.,0.));
#1115=DIRECTION('ref_axis',(-1.,0.,0.));
#1116=DIRECTION('center_axis',(0.,1.,0.));
#1117=DIRECTION('ref_axis',(-1.,0.,0.));
#1118=DIRECTION('',(0.,-1.,0.));
#1119=DIRECTION('center_axis',(-6.93889385220844E-16,-1.,0.));
#1120=DIRECTION('ref_axis',(-1.,0.,0.));
#1121=DIRECTION('center_axis',(0.,0.,1.));
#1122=DIRECTION('ref_axis',(-1.,0.,0.));
#1123=DIRECTION('center_axis',(0.,0.,-1.));
#1124=DIRECTION('ref_axis',(-2.38418575548842E-7,0.999999999999972,0.));
#1125=DIRECTION('',(-1.,6.93889385220844E-16,0.));
#1126=DIRECTION('center_axis',(0.,0.,-1.));
#1127=DIRECTION('ref_axis',(0.,-1.,0.));
#1128=DIRECTION('',(1.,0.,0.));
#1129=DIRECTION('center_axis',(0.,1.,0.));
#1130=DIRECTION('ref_axis',(-1.,0.,0.));
#1131=DIRECTION('',(1.,0.,0.));
#1132=DIRECTION('',(0.,0.,1.));
#1133=DIRECTION('',(0.,0.,1.));
#1134=DIRECTION('center_axis',(0.,0.,1.));
#1135=DIRECTION('ref_axis',(0.999999999999993,1.19209289933638E-7,0.));
#1136=DIRECTION('center_axis',(0.,0.,-1.));
#1137=DIRECTION('ref_axis',(0.,-1.,0.));
#1138=DIRECTION('',(0.,0.,1.));
#1139=DIRECTION('center_axis',(-6.93889385220844E-16,-1.,0.));
#1140=DIRECTION('ref_axis',(1.,-6.93889385220844E-16,0.));
#1141=DIRECTION('',(-1.,6.93889385220844E-16,0.));
#1142=DIRECTION('',(0.,0.,1.));
#1143=DIRECTION('center_axis',(0.,0.,1.));
#1144=DIRECTION('ref_axis',(-0.999999999999886,-4.76837153700978E-7,0.));
#1145=DIRECTION('center_axis',(0.,0.,-1.));
#1146=DIRECTION('ref_axis',(-2.38418575548842E-7,0.999999999999972,0.));
#1147=DIRECTION('center_axis',(0.,0.,1.));
#1148=DIRECTION('ref_axis',(-1.,0.,0.));
#1149=DIRECTION('center_axis',(0.,0.,-1.));
#1150=DIRECTION('ref_axis',(-1.77635683940025E-15,-1.,0.));
#1151=DIRECTION('',(1.,0.,0.));
#1152=DIRECTION('center_axis',(0.,0.,-1.));
#1153=DIRECTION('ref_axis',(1.77635683940025E-15,1.,0.));
#1154=DIRECTION('',(-1.,0.,0.));
#1155=DIRECTION('center_axis',(0.,1.,0.));
#1156=DIRECTION('ref_axis',(-1.,0.,0.));
#1157=DIRECTION('',(0.,0.,-1.));
#1158=DIRECTION('',(0.,0.,-1.));
#1159=DIRECTION('center_axis',(0.,0.,1.));
#1160=DIRECTION('ref_axis',(-1.77635683940025E-15,-1.,0.));
#1161=DIRECTION('',(0.,0.,1.));
#1162=DIRECTION('center_axis',(0.,0.,1.));
#1163=DIRECTION('ref_axis',(1.,0.,0.));
#1164=DIRECTION('center_axis',(0.,1.,0.));
#1165=DIRECTION('ref_axis',(-1.,0.,0.));
#1166=DIRECTION('center_axis',(0.,0.,1.));
#1167=DIRECTION('ref_axis',(1.,0.,0.));
#1168=DIRECTION('center_axis',(0.,1.,0.));
#1169=DIRECTION('ref_axis',(-1.,0.,0.));
#1170=DIRECTION('center_axis',(0.,0.,1.));
#1171=DIRECTION('ref_axis',(1.,0.,0.));
#1172=DIRECTION('center_axis',(0.,1.,0.));
#1173=DIRECTION('ref_axis',(-1.,0.,0.));
#1174=DIRECTION('center_axis',(0.,0.,1.));
#1175=DIRECTION('ref_axis',(1.,0.,0.));
#1176=DIRECTION('center_axis',(0.,1.,0.));
#1177=DIRECTION('ref_axis',(-1.,0.,0.));
#1178=DIRECTION('center_axis',(0.,0.,1.));
#1179=DIRECTION('ref_axis',(1.,0.,0.));
#1180=DIRECTION('center_axis',(0.,1.,0.));
#1181=DIRECTION('ref_axis',(-1.,0.,0.));
#1182=DIRECTION('center_axis',(0.,0.,1.));
#1183=DIRECTION('ref_axis',(1.,0.,0.));
#1184=DIRECTION('center_axis',(0.,1.,0.));
#1185=DIRECTION('ref_axis',(-1.,0.,0.));
#1186=DIRECTION('center_axis',(6.12323399573679E-17,0.,1.));
#1187=DIRECTION('ref_axis',(1.,0.,0.));
#1188=DIRECTION('center_axis',(0.,1.,0.));
#1189=DIRECTION('ref_axis',(-1.,0.,0.));
#1190=DIRECTION('center_axis',(0.,0.,1.));
#1191=DIRECTION('ref_axis',(1.,0.,0.));
#1192=DIRECTION('center_axis',(0.,1.,0.));
#1193=DIRECTION('ref_axis',(-1.,0.,0.));
#1194=DIRECTION('center_axis',(0.,0.,1.));
#1195=DIRECTION('ref_axis',(1.,0.,0.));
#1196=DIRECTION('center_axis',(0.,1.,0.));
#1197=DIRECTION('ref_axis',(-1.,0.,0.));
#1198=DIRECTION('center_axis',(0.,0.,1.));
#1199=DIRECTION('ref_axis',(1.,0.,0.));
#1200=DIRECTION('center_axis',(0.,1.,0.));
#1201=DIRECTION('ref_axis',(-1.,0.,0.));
#1202=DIRECTION('center_axis',(0.,0.,1.));
#1203=DIRECTION('ref_axis',(1.,0.,0.));
#1204=DIRECTION('center_axis',(0.,1.,0.));
#1205=DIRECTION('ref_axis',(-1.,0.,0.));
#1206=DIRECTION('center_axis',(0.,0.,1.));
#1207=DIRECTION('ref_axis',(1.,0.,0.));
#1208=DIRECTION('center_axis',(0.,1.,0.));
#1209=DIRECTION('ref_axis',(-1.,0.,0.));
#1210=DIRECTION('center_axis',(0.,0.,1.));
#1211=DIRECTION('ref_axis',(1.,0.,0.));
#1212=DIRECTION('center_axis',(0.,1.,0.));
#1213=DIRECTION('ref_axis',(-1.,0.,0.));
#1214=DIRECTION('center_axis',(6.12323399573679E-17,0.,1.));
#1215=DIRECTION('ref_axis',(1.,0.,0.));
#1216=DIRECTION('center_axis',(0.,1.,0.));
#1217=DIRECTION('ref_axis',(-1.,0.,0.));
#1218=DIRECTION('center_axis',(0.,0.,1.));
#1219=DIRECTION('ref_axis',(1.,0.,0.));
#1220=DIRECTION('center_axis',(0.,1.,0.));
#1221=DIRECTION('ref_axis',(-1.,0.,0.));
#1222=DIRECTION('center_axis',(0.,0.,1.));
#1223=DIRECTION('ref_axis',(1.,0.,0.));
#1224=DIRECTION('center_axis',(0.,1.,0.));
#1225=DIRECTION('ref_axis',(-1.,0.,0.));
#1226=DIRECTION('center_axis',(0.,0.,1.));
#1227=DIRECTION('ref_axis',(1.,0.,0.));
#1228=DIRECTION('center_axis',(0.,1.,0.));
#1229=DIRECTION('ref_axis',(-1.,0.,0.));
#1230=DIRECTION('center_axis',(6.12323399573677E-17,0.,1.));
#1231=DIRECTION('ref_axis',(1.,0.,0.));
#1232=DIRECTION('center_axis',(0.,1.,0.));
#1233=DIRECTION('ref_axis',(-1.,0.,0.));
#1234=DIRECTION('center_axis',(0.,0.,1.));
#1235=DIRECTION('ref_axis',(1.,0.,0.));
#1236=DIRECTION('center_axis',(0.,1.,0.));
#1237=DIRECTION('ref_axis',(-1.,0.,0.));
#1238=DIRECTION('center_axis',(0.,0.,1.));
#1239=DIRECTION('ref_axis',(1.,0.,0.));
#1240=DIRECTION('center_axis',(0.,1.,0.));
#1241=DIRECTION('ref_axis',(-1.,0.,0.));
#1242=DIRECTION('center_axis',(0.,0.,1.));
#1243=DIRECTION('ref_axis',(1.,0.,0.));
#1244=DIRECTION('center_axis',(0.,1.,0.));
#1245=DIRECTION('ref_axis',(-1.,0.,0.));
#1246=DIRECTION('center_axis',(0.,0.,1.));
#1247=DIRECTION('ref_axis',(1.,0.,0.));
#1248=DIRECTION('center_axis',(-1.22464679914735E-16,1.,0.));
#1249=DIRECTION('ref_axis',(-1.,-1.22464679914735E-16,0.));
#1250=DIRECTION('center_axis',(0.,0.,1.));
#1251=DIRECTION('ref_axis',(1.,0.,0.));
#1252=DIRECTION('center_axis',(-1.22464679914735E-16,1.,0.));
#1253=DIRECTION('ref_axis',(-1.,-1.22464679914735E-16,0.));
#1254=DIRECTION('center_axis',(0.,0.,1.));
#1255=DIRECTION('ref_axis',(1.,0.,0.));
#1256=DIRECTION('center_axis',(-1.22464679914735E-16,1.,0.));
#1257=DIRECTION('ref_axis',(-1.,-1.22464679914735E-16,0.));
#1258=DIRECTION('center_axis',(0.,0.,1.));
#1259=DIRECTION('ref_axis',(1.,0.,0.));
#1260=DIRECTION('center_axis',(-1.22464679914735E-16,1.,0.));
#1261=DIRECTION('ref_axis',(-1.,-1.22464679914735E-16,0.));
#1262=DIRECTION('center_axis',(0.,0.,1.));
#1263=DIRECTION('ref_axis',(1.,0.,0.));
#1264=DIRECTION('center_axis',(-1.22464679914735E-16,1.,0.));
#1265=DIRECTION('ref_axis',(-1.,-1.22464679914735E-16,0.));
#1266=DIRECTION('center_axis',(0.,0.,1.));
#1267=DIRECTION('ref_axis',(1.,0.,0.));
#1268=DIRECTION('center_axis',(-1.22464679914735E-16,1.,0.));
#1269=DIRECTION('ref_axis',(-1.,-1.22464679914735E-16,0.));
#1270=DIRECTION('center_axis',(0.,0.,1.));
#1271=DIRECTION('ref_axis',(1.,0.,0.));
#1272=DIRECTION('center_axis',(0.,1.,0.));
#1273=DIRECTION('ref_axis',(-1.,0.,0.));
#1274=DIRECTION('center_axis',(0.,0.,1.));
#1275=DIRECTION('ref_axis',(1.,0.,0.));
#1276=DIRECTION('center_axis',(0.,1.,0.));
#1277=DIRECTION('ref_axis',(-1.,0.,0.));
#1278=DIRECTION('center_axis',(0.,0.,1.));
#1279=DIRECTION('ref_axis',(1.,0.,0.));
#1280=DIRECTION('center_axis',(0.,1.,0.));
#1281=DIRECTION('ref_axis',(-1.,0.,0.));
#1282=DIRECTION('center_axis',(6.12323399573677E-17,0.,1.));
#1283=DIRECTION('ref_axis',(1.,0.,0.));
#1284=DIRECTION('center_axis',(0.,1.,0.));
#1285=DIRECTION('ref_axis',(-1.,0.,0.));
#1286=DIRECTION('center_axis',(0.,0.,1.));
#1287=DIRECTION('ref_axis',(1.,0.,0.));
#1288=DIRECTION('center_axis',(0.,1.,0.));
#1289=DIRECTION('ref_axis',(-1.,0.,0.));
#1290=DIRECTION('center_axis',(0.,0.,1.));
#1291=DIRECTION('ref_axis',(1.,0.,0.));
#1292=DIRECTION('center_axis',(0.,1.,0.));
#1293=DIRECTION('ref_axis',(-1.,0.,0.));
#1294=DIRECTION('center_axis',(0.,0.,1.));
#1295=DIRECTION('ref_axis',(1.,0.,0.));
#1296=DIRECTION('center_axis',(0.,1.,0.));
#1297=DIRECTION('ref_axis',(-1.,0.,0.));
#1298=DIRECTION('center_axis',(6.12323399573677E-17,0.,1.));
#1299=DIRECTION('ref_axis',(1.,0.,0.));
#1300=DIRECTION('center_axis',(-1.22464679914735E-16,1.,0.));
#1301=DIRECTION('ref_axis',(-1.,-1.22464679914735E-16,0.));
#1302=DIRECTION('center_axis',(0.,-1.,0.));
#1303=DIRECTION('ref_axis',(1.,0.,0.));
#1304=DIRECTION('',(0.,0.,-1.));
#1305=DIRECTION('center_axis',(0.,0.,1.));
#1306=DIRECTION('ref_axis',(1.77635683940025E-15,1.,0.));
#1307=CARTESIAN_POINT('',(0.,0.,0.));
#1308=CARTESIAN_POINT('Origin',(0.,0.,14.5));
#1309=CARTESIAN_POINT('',(90.,-30.,14.5));
#1310=CARTESIAN_POINT('',(-90.,-30.,14.5));
#1311=CARTESIAN_POINT('',(-45.,-30.,14.5));
#1312=CARTESIAN_POINT('',(90.,30.,14.5));
#1313=CARTESIAN_POINT('Origin',(90.,0.,14.5));
#1314=CARTESIAN_POINT('',(-90.,30.,14.5));
#1315=CARTESIAN_POINT('',(45.,30.,14.5));
#1316=CARTESIAN_POINT('Origin',(-90.,0.,14.5));
#1317=CARTESIAN_POINT('',(86.4096483459137,22.5000003352761,14.5));
#1318=CARTESIAN_POINT('Origin',(90.,22.5000003352761,14.5));
#1319=CARTESIAN_POINT('',(56.4096483459137,22.5000003352761,14.5));
#1320=CARTESIAN_POINT('Origin',(60.,22.5000003352761,14.5));
#1321=CARTESIAN_POINT('',(26.4096483459137,22.5000003352761,14.5));
#1322=CARTESIAN_POINT('Origin',(30.,22.5000003352761,14.5));
#1323=CARTESIAN_POINT('',(-33.5903516540863,22.5000003352761,14.5));
#1324=CARTESIAN_POINT('Origin',(-30.,22.5000003352761,14.5));
#1325=CARTESIAN_POINT('',(-63.5903516540863,22.5000003352761,14.5));
#1326=CARTESIAN_POINT('Origin',(-60.,22.5000003352761,14.5));
#1327=CARTESIAN_POINT('',(-93.5903516540863,22.5000003352761,14.5));
#1328=CARTESIAN_POINT('Origin',(-90.,22.5000003352761,14.5));
#1329=CARTESIAN_POINT('',(-3.59035165408629,22.5000003352761,14.5));
#1330=CARTESIAN_POINT('Origin',(-1.77635683940025E-14,22.5000003352761,
14.5));
#1331=CARTESIAN_POINT('',(86.4096483459137,-22.5000003352761,14.5));
#1332=CARTESIAN_POINT('Origin',(90.,-22.5000003352761,14.5));
#1333=CARTESIAN_POINT('',(56.4096483459137,-22.5000003352761,14.5));
#1334=CARTESIAN_POINT('Origin',(60.,-22.5000003352761,14.5));
#1335=CARTESIAN_POINT('',(26.4096483459137,-22.5000003352761,14.5));
#1336=CARTESIAN_POINT('Origin',(30.,-22.5000003352761,14.5));
#1337=CARTESIAN_POINT('',(-33.5903516540863,-22.5000003352761,14.5));
#1338=CARTESIAN_POINT('Origin',(-30.,-22.5000003352761,14.5));
#1339=CARTESIAN_POINT('',(-63.5903516540863,-22.5000003352761,14.5));
#1340=CARTESIAN_POINT('Origin',(-60.,-22.5000003352761,14.5));
#1341=CARTESIAN_POINT('',(-93.5903516540863,-22.5000003352761,14.5));
#1342=CARTESIAN_POINT('Origin',(-90.,-22.5000003352761,14.5));
#1343=CARTESIAN_POINT('',(-3.59035165408629,-22.5000003352761,14.5));
#1344=CARTESIAN_POINT('Origin',(-1.77635683940025E-14,-22.5000003352761,
14.5));
#1345=CARTESIAN_POINT('',(-90.,10.,14.5));
#1346=CARTESIAN_POINT('',(-90.,-10.,14.5));
#1347=CARTESIAN_POINT('Origin',(-90.,-8.88178419700125E-15,14.5));
#1348=CARTESIAN_POINT('',(90.,10.,14.5));
#1349=CARTESIAN_POINT('',(-90.,10.,14.5));
#1350=CARTESIAN_POINT('',(90.,-10.,14.5));
#1351=CARTESIAN_POINT('Origin',(90.,8.88178419700125E-15,14.5));
#1352=CARTESIAN_POINT('',(90.,-10.,14.5));
#1353=CARTESIAN_POINT('Origin',(90.,0.,0.));
#1354=CARTESIAN_POINT('',(90.,-30.,2.5));
#1355=CARTESIAN_POINT('',(90.,-30.,0.));
#1356=CARTESIAN_POINT('',(90.,30.,2.5));
#1357=CARTESIAN_POINT('Origin',(90.,0.,2.5));
#1358=CARTESIAN_POINT('',(90.,30.,0.));
#1359=CARTESIAN_POINT('Origin',(-90.,-30.,0.));
#1360=CARTESIAN_POINT('',(-90.,-30.,2.5));
#1361=CARTESIAN_POINT('',(-90.,-30.,0.));
#1362=CARTESIAN_POINT('',(-45.,-30.,2.5));
#1363=CARTESIAN_POINT('Origin',(0.,0.,2.5));
#1364=CARTESIAN_POINT('',(-90.,30.,2.5));
#1365=CARTESIAN_POINT('Origin',(-90.,0.,2.5));
#1366=CARTESIAN_POINT('',(45.,30.,2.5));
#1367=CARTESIAN_POINT('',(86.4096483459137,20.,2.5));
#1368=CARTESIAN_POINT('Origin',(90.,20.,2.5));
#1369=CARTESIAN_POINT('',(56.4096483459137,20.,2.5));
#1370=CARTESIAN_POINT('Origin',(60.,20.,2.5));
#1371=CARTESIAN_POINT('',(26.4096483459137,20.,2.5));
#1372=CARTESIAN_POINT('Origin',(30.,20.,2.5));
#1373=CARTESIAN_POINT('',(-3.59035165408627,20.,2.5));
#1374=CARTESIAN_POINT('Origin',(0.,20.,2.5));
#1375=CARTESIAN_POINT('',(-33.5903516540863,20.,2.5));
#1376=CARTESIAN_POINT('Origin',(-30.,20.,2.5));
#1377=CARTESIAN_POINT('',(-63.5903516540863,20.,2.5));
#1378=CARTESIAN_POINT('Origin',(-60.,20.,2.5));
#1379=CARTESIAN_POINT('',(-93.5903516540863,20.,2.5));
#1380=CARTESIAN_POINT('Origin',(-90.,20.,2.5));
#1381=CARTESIAN_POINT('',(86.4096483459137,-4.39691266099015E-16,2.5));
#1382=CARTESIAN_POINT('Origin',(90.,0.,2.5));
#1383=CARTESIAN_POINT('',(56.4096483459137,-4.39691266099015E-16,2.5));
#1384=CARTESIAN_POINT('Origin',(60.,0.,2.5));
#1385=CARTESIAN_POINT('',(26.4096483459137,-4.39691266099015E-16,2.5));
#1386=CARTESIAN_POINT('Origin',(30.,0.,2.5));
#1387=CARTESIAN_POINT('',(-33.5903516540863,-4.39691266099015E-16,2.5));
#1388=CARTESIAN_POINT('Origin',(-30.,0.,2.5));
#1389=CARTESIAN_POINT('',(-63.5903516540863,-4.39691266099015E-16,2.5));
#1390=CARTESIAN_POINT('Origin',(-60.,0.,2.5));
#1391=CARTESIAN_POINT('',(-93.5903516540863,-4.39691266099015E-16,2.5));
#1392=CARTESIAN_POINT('Origin',(-90.,0.,2.5));
#1393=CARTESIAN_POINT('',(86.4096483459137,-20.,2.5));
#1394=CARTESIAN_POINT('Origin',(90.,-20.,2.5));
#1395=CARTESIAN_POINT('',(56.4096483459137,-20.,2.5));
#1396=CARTESIAN_POINT('Origin',(60.,-20.,2.5));
#1397=CARTESIAN_POINT('',(26.4096483459137,-20.,2.5));
#1398=CARTESIAN_POINT('Origin',(30.,-20.,2.5));
#1399=CARTESIAN_POINT('',(-3.59035165408627,-20.,2.5));
#1400=CARTESIAN_POINT('Origin',(0.,-20.,2.5));
#1401=CARTESIAN_POINT('',(-33.5903516540863,-20.,2.5));
#1402=CARTESIAN_POINT('Origin',(-30.,-20.,2.5));
#1403=CARTESIAN_POINT('',(-63.5903516540863,-20.,2.5));
#1404=CARTESIAN_POINT('Origin',(-60.,-20.,2.5));
#1405=CARTESIAN_POINT('',(-93.5903516540863,-20.,2.5));
#1406=CARTESIAN_POINT('Origin',(-90.,-20.,2.5));
#1407=CARTESIAN_POINT('',(-3.59035165408627,-4.39691266099015E-16,2.5));
#1408=CARTESIAN_POINT('Origin',(0.,0.,2.5));
#1409=CARTESIAN_POINT('Origin',(90.,30.,0.));
#1410=CARTESIAN_POINT('',(-90.,30.,0.));
#1411=CARTESIAN_POINT('Origin',(-90.,0.,0.));
#1412=CARTESIAN_POINT('Origin',(0.,5.00000007450581,100.));
#1413=CARTESIAN_POINT('',(5.,3.50000007450581,100.));
#1414=CARTESIAN_POINT('Origin',(0.,3.50000007450581,100.));
#1415=CARTESIAN_POINT('',(5.,-3.50000007450582,100.));
#1416=CARTESIAN_POINT('',(5.,5.00000007450581,100.));
#1417=CARTESIAN_POINT('Origin',(0.,-3.50000007450582,100.));
#1418=CARTESIAN_POINT('Origin',(0.,-6.32827124036339E-14,111.));
#1419=CARTESIAN_POINT('',(-80.0000011920929,3.50000007450581,111.));
#1420=CARTESIAN_POINT('',(-80.0000011920929,-3.50000007450582,111.));
#1421=CARTESIAN_POINT('Origin',(-80.,-7.89491928622334E-15,111.));
#1422=CARTESIAN_POINT('',(80.,-3.50000007450593,111.));
#1423=CARTESIAN_POINT('',(-40.0000005960464,-3.50000007450585,111.));
#1424=CARTESIAN_POINT('',(80.0000011920929,3.50000007450581,111.));
#1425=CARTESIAN_POINT('Origin',(80.,7.89491928622334E-15,111.));
#1426=CARTESIAN_POINT('',(40.0000005960464,3.50000007450581,111.));
#1427=CARTESIAN_POINT('Origin',(80.0000011920929,3.50000007450581,41.));
#1428=CARTESIAN_POINT('',(-80.0000011920929,3.50000007450581,41.));
#1429=CARTESIAN_POINT('',(80.0000011920929,3.50000007450581,41.));
#1430=CARTESIAN_POINT('',(40.0000005960464,3.50000007450581,41.));
#1431=CARTESIAN_POINT('',(-80.0000011920929,3.50000007450581,41.));
#1432=CARTESIAN_POINT('',(80.0000011920929,3.50000007450581,41.));
#1433=CARTESIAN_POINT('Origin',(80.,7.89491928622334E-15,41.));
#1434=CARTESIAN_POINT('',(80.,-3.50000007450593,41.));
#1435=CARTESIAN_POINT('Origin',(80.,7.89491928622334E-15,41.));
#1436=CARTESIAN_POINT('',(80.,-3.50000007450593,41.));
#1437=CARTESIAN_POINT('Origin',(-80.0000011920929,-3.50000007450582,41.));
#1438=CARTESIAN_POINT('',(-80.0000011920929,-3.50000007450582,41.));
#1439=CARTESIAN_POINT('',(-40.0000005960464,-3.50000007450585,41.));
#1440=CARTESIAN_POINT('',(-80.0000011920929,-3.50000007450582,41.));
#1441=CARTESIAN_POINT('Origin',(-80.,-7.89491928622334E-15,41.));
#1442=CARTESIAN_POINT('Origin',(-80.,-7.89491928622334E-15,41.));
#1443=CARTESIAN_POINT('Origin',(0.,0.,41.));
#1444=CARTESIAN_POINT('',(90.,10.,41.));
#1445=CARTESIAN_POINT('',(90.,-10.,41.));
#1446=CARTESIAN_POINT('Origin',(90.,0.,41.));
#1447=CARTESIAN_POINT('',(-90.,10.,41.));
#1448=CARTESIAN_POINT('',(45.,10.,41.));
#1449=CARTESIAN_POINT('',(-90.,-10.,41.));
#1450=CARTESIAN_POINT('Origin',(-90.,0.,41.));
#1451=CARTESIAN_POINT('',(-45.,-10.,41.));
#1452=CARTESIAN_POINT('Origin',(90.,10.,17.));
#1453=CARTESIAN_POINT('',(90.,10.,17.));
#1454=CARTESIAN_POINT('',(-90.,10.,17.));
#1455=CARTESIAN_POINT('Origin',(90.,0.,17.));
#1456=CARTESIAN_POINT('',(90.,-10.,17.));
#1457=CARTESIAN_POINT('Origin',(90.,22.5000003352761,17.));
#1458=CARTESIAN_POINT('',(90.,22.5000003352761,12.625));
#1459=CARTESIAN_POINT('Origin',(90.,22.5000003352761,17.));
#1460=CARTESIAN_POINT('Origin',(60.,22.5000003352761,17.));
#1461=CARTESIAN_POINT('',(60.,22.5000003352761,12.625));
#1462=CARTESIAN_POINT('Origin',(60.,22.5000003352761,17.));
#1463=CARTESIAN_POINT('Origin',(30.,22.5000003352761,17.));
#1464=CARTESIAN_POINT('',(30.,22.5000003352761,12.625));
#1465=CARTESIAN_POINT('Origin',(30.,22.5000003352761,17.));
#1466=CARTESIAN_POINT('Origin',(-30.,22.5000003352761,17.));
#1467=CARTESIAN_POINT('',(-30.,22.5000003352761,12.625));
#1468=CARTESIAN_POINT('Origin',(-30.,22.5000003352761,17.));
#1469=CARTESIAN_POINT('Origin',(-60.,22.5000003352761,17.));
#1470=CARTESIAN_POINT('',(-60.,22.5000003352761,12.625));
#1471=CARTESIAN_POINT('Origin',(-60.,22.5000003352761,17.));
#1472=CARTESIAN_POINT('Origin',(-90.,22.5000003352761,17.));
#1473=CARTESIAN_POINT('',(-90.,22.5000003352761,12.625));
#1474=CARTESIAN_POINT('Origin',(-90.,22.5000003352761,17.));
#1475=CARTESIAN_POINT('Origin',(-1.77635683940025E-14,22.5000003352761,
17.));
#1476=CARTESIAN_POINT('',(-1.8031459881316E-14,22.5000003352761,12.625));
#1477=CARTESIAN_POINT('Origin',(-1.77635683940025E-14,22.5000003352761,
17.));
#1478=CARTESIAN_POINT('Origin',(90.,-22.5000003352761,17.));
#1479=CARTESIAN_POINT('',(90.,-22.5000003352761,12.625));
#1480=CARTESIAN_POINT('Origin',(90.,-22.5000003352761,17.));
#1481=CARTESIAN_POINT('Origin',(60.,-22.5000003352761,17.));
#1482=CARTESIAN_POINT('',(60.,-22.5000003352761,12.625));
#1483=CARTESIAN_POINT('Origin',(60.,-22.5000003352761,17.));
#1484=CARTESIAN_POINT('Origin',(30.,-22.5000003352761,17.));
#1485=CARTESIAN_POINT('',(30.,-22.5000003352761,12.625));
#1486=CARTESIAN_POINT('Origin',(30.,-22.5000003352761,17.));
#1487=CARTESIAN_POINT('Origin',(-30.,-22.5000003352761,17.));
#1488=CARTESIAN_POINT('',(-30.,-22.5000003352761,12.625));
#1489=CARTESIAN_POINT('Origin',(-30.,-22.5000003352761,17.));
#1490=CARTESIAN_POINT('Origin',(-60.,-22.5000003352761,17.));
#1491=CARTESIAN_POINT('',(-60.,-22.5000003352761,12.625));
#1492=CARTESIAN_POINT('Origin',(-60.,-22.5000003352761,17.));
#1493=CARTESIAN_POINT('Origin',(-90.,-22.5000003352761,17.));
#1494=CARTESIAN_POINT('',(-90.,-22.5000003352761,12.625));
#1495=CARTESIAN_POINT('Origin',(-90.,-22.5000003352761,17.));
#1496=CARTESIAN_POINT('Origin',(-1.77635683940025E-14,-22.5000003352761,
17.));
#1497=CARTESIAN_POINT('',(-1.8031459881316E-14,-22.5000003352761,12.625));
#1498=CARTESIAN_POINT('Origin',(-1.77635683940025E-14,-22.5000003352761,
17.));
#1499=CARTESIAN_POINT('Origin',(90.,20.,0.));
#1500=CARTESIAN_POINT('',(90.,20.,4.375));
#1501=CARTESIAN_POINT('Origin',(90.,20.,0.));
#1502=CARTESIAN_POINT('Origin',(60.,20.,0.));
#1503=CARTESIAN_POINT('',(60.,20.,4.375));
#1504=CARTESIAN_POINT('Origin',(60.,20.,0.));
#1505=CARTESIAN_POINT('Origin',(30.,20.,0.));
#1506=CARTESIAN_POINT('',(30.,20.,4.375));
#1507=CARTESIAN_POINT('Origin',(30.,20.,0.));
#1508=CARTESIAN_POINT('Origin',(0.,20.,0.));
#1509=CARTESIAN_POINT('',(-2.67891487313484E-16,20.,4.375));
#1510=CARTESIAN_POINT('Origin',(0.,20.,0.));
#1511=CARTESIAN_POINT('Origin',(-30.,20.,0.));
#1512=CARTESIAN_POINT('',(-30.,20.,4.375));
#1513=CARTESIAN_POINT('Origin',(-30.,20.,0.));
#1514=CARTESIAN_POINT('Origin',(-60.,20.,0.));
#1515=CARTESIAN_POINT('',(-60.,20.,4.375));
#1516=CARTESIAN_POINT('Origin',(-60.,20.,0.));
#1517=CARTESIAN_POINT('Origin',(-90.,20.,0.));
#1518=CARTESIAN_POINT('',(-90.,20.,4.375));
#1519=CARTESIAN_POINT('Origin',(-90.,20.,0.));
#1520=CARTESIAN_POINT('Origin',(90.,0.,0.));
#1521=CARTESIAN_POINT('',(90.,-3.28072452457281E-32,4.375));
#1522=CARTESIAN_POINT('Origin',(90.,0.,0.));
#1523=CARTESIAN_POINT('Origin',(60.,0.,0.));
#1524=CARTESIAN_POINT('',(60.,-3.28072452457281E-32,4.375));
#1525=CARTESIAN_POINT('Origin',(60.,0.,0.));
#1526=CARTESIAN_POINT('Origin',(30.,0.,0.));
#1527=CARTESIAN_POINT('',(30.,-3.28072452457281E-32,4.375));
#1528=CARTESIAN_POINT('Origin',(30.,0.,0.));
#1529=CARTESIAN_POINT('Origin',(-30.,0.,0.));
#1530=CARTESIAN_POINT('',(-30.,-3.28072452457281E-32,4.375));
#1531=CARTESIAN_POINT('Origin',(-30.,0.,0.));
#1532=CARTESIAN_POINT('Origin',(-60.,0.,0.));
#1533=CARTESIAN_POINT('',(-60.,-3.28072452457281E-32,4.375));
#1534=CARTESIAN_POINT('Origin',(-60.,0.,0.));
#1535=CARTESIAN_POINT('Origin',(-90.,0.,0.));
#1536=CARTESIAN_POINT('',(-90.,-3.28072452457281E-32,4.375));
#1537=CARTESIAN_POINT('Origin',(-90.,0.,0.));
#1538=CARTESIAN_POINT('Origin',(90.,-20.,0.));
#1539=CARTESIAN_POINT('',(90.,-20.,4.375));
#1540=CARTESIAN_POINT('Origin',(90.,-20.,0.));
#1541=CARTESIAN_POINT('Origin',(60.,-20.,0.));
#1542=CARTESIAN_POINT('',(60.,-20.,4.375));
#1543=CARTESIAN_POINT('Origin',(60.,-20.,0.));
#1544=CARTESIAN_POINT('Origin',(30.,-20.,0.));
#1545=CARTESIAN_POINT('',(30.,-20.,4.375));
#1546=CARTESIAN_POINT('Origin',(30.,-20.,0.));
#1547=CARTESIAN_POINT('Origin',(0.,-20.,0.));
#1548=CARTESIAN_POINT('',(-2.67891487313484E-16,-20.,4.375));
#1549=CARTESIAN_POINT('Origin',(0.,-20.,0.));
#1550=CARTESIAN_POINT('Origin',(-30.,-20.,0.));
#1551=CARTESIAN_POINT('',(-30.,-20.,4.375));
#1552=CARTESIAN_POINT('Origin',(-30.,-20.,0.));
#1553=CARTESIAN_POINT('Origin',(-60.,-20.,0.));
#1554=CARTESIAN_POINT('',(-60.,-20.,4.375));
#1555=CARTESIAN_POINT('Origin',(-60.,-20.,0.));
#1556=CARTESIAN_POINT('Origin',(-90.,-20.,0.));
#1557=CARTESIAN_POINT('',(-90.,-20.,4.375));
#1558=CARTESIAN_POINT('Origin',(-90.,-20.,0.));
#1559=CARTESIAN_POINT('Origin',(0.,0.,0.));
#1560=CARTESIAN_POINT('',(-2.67891487313484E-16,-3.28072452457281E-32,4.375));
#1561=CARTESIAN_POINT('Origin',(0.,0.,0.));
#1562=CARTESIAN_POINT('Origin',(-90.,-10.,17.));
#1563=CARTESIAN_POINT('',(-90.,-10.,17.));
#1564=CARTESIAN_POINT('Origin',(-90.,0.,17.));
#1565=UNCERTAINTY_MEASURE_WITH_UNIT(LENGTH_MEASURE(0.01),#1569,
'DISTANCE_ACCURACY_VALUE',
'Maximum model space distance between geometric entities at asserted c
onnectivities');
#1566=UNCERTAINTY_MEASURE_WITH_UNIT(LENGTH_MEASURE(0.01),#1569,
'DISTANCE_ACCURACY_VALUE',
'Maximum model space distance between geometric entities at asserted c
onnectivities');
#1567=(
GEOMETRIC_REPRESENTATION_CONTEXT(3)
GLOBAL_UNCERTAINTY_ASSIGNED_CONTEXT((#1565))
GLOBAL_UNIT_ASSIGNED_CONTEXT((#1569,#1571,#1572))
REPRESENTATION_CONTEXT('','3D')
);
#1568=(
GEOMETRIC_REPRESENTATION_CONTEXT(3)
GLOBAL_UNCERTAINTY_ASSIGNED_CONTEXT((#1566))
GLOBAL_UNIT_ASSIGNED_CONTEXT((#1569,#1571,#1572))
REPRESENTATION_CONTEXT('','3D')
);
#1569=(
LENGTH_UNIT()
NAMED_UNIT(*)
SI_UNIT(.MILLI.,.METRE.)
);
#1570=(
LENGTH_UNIT()
NAMED_UNIT(*)
SI_UNIT($,.METRE.)
);
#1571=(
NAMED_UNIT(*)
PLANE_ANGLE_UNIT()
SI_UNIT($,.RADIAN.)
);
#1572=(
NAMED_UNIT(*)
SI_UNIT($,.STERADIAN.)
SOLID_ANGLE_UNIT()
);
#1573=SHAPE_DEFINITION_REPRESENTATION(#1574,#1575);
#1574=PRODUCT_DEFINITION_SHAPE('',$,#1577);
#1575=SHAPE_REPRESENTATION('',(#871),#1567);
#1576=PRODUCT_DEFINITION_CONTEXT('part definition',#1581,'design');
#1577=PRODUCT_DEFINITION('MIDDLE PUSHER','MIDDLE PUSHER v5',#1578,#1576);
#1578=PRODUCT_DEFINITION_FORMATION('',$,#1583);
#1579=PRODUCT_RELATED_PRODUCT_CATEGORY('MIDDLE PUSHER v5',
'MIDDLE PUSHER v5',(#1583));
#1580=APPLICATION_PROTOCOL_DEFINITION('international standard',
'automotive_design',2009,#1581);
#1581=APPLICATION_CONTEXT(
'Core Data for Automotive Mechanical Design Process');
#1582=PRODUCT_CONTEXT('part definition',#1581,'mechanical');
#1583=PRODUCT('MIDDLE PUSHER','MIDDLE PUSHER v5',$,(#1582));
#1584=PRESENTATION_STYLE_ASSIGNMENT((#1585));
#1585=SURFACE_STYLE_USAGE(.BOTH.,#1586);
#1586=SURFACE_SIDE_STYLE('',(#1587));
#1587=SURFACE_STYLE_FILL_AREA(#1588);
#1588=FILL_AREA_STYLE('Steel - Satin',(#1589));
#1589=FILL_AREA_STYLE_COLOUR('Steel - Satin',#1590);
#1590=COLOUR_RGB('Steel - Satin',0.627450980392157,0.627450980392157,0.627450980392157);
ENDSEC;
END-ISO-10303-21;
