ISO-10303-21;
HEADER;
/* Generated by software containing ST-Developer
 * from STEP Tools, Inc. (www.steptools.com) 
 */

FILE_DESCRIPTION(
/* description */ (''),
/* implementation_level */ '2;1');

FILE_NAME(
/* name */ 'pusher front edited.step',
/* time_stamp */ '2026-04-04T11:57:56+08:00',
/* author */ (''),
/* organization */ (''),
/* preprocessor_version */ 'ST-DEVELOPER v20.1',
/* originating_system */ 'Autodesk Translation Framework v14.24.0.0',
/* authorisation */ '');

FILE_SCHEMA (('AUTOMOTIVE_DESIGN { 1 0 10303 214 3 1 1 }'));
ENDSEC;

DATA;
#10=MECHANICAL_DESIGN_GEOMETRIC_PRESENTATION_REPRESENTATION('',(#13),#2136);
#11=SHAPE_REPRESENTATION_RELATIONSHIP('SRR','None',#2143,#12);
#12=ADVANCED_BREP_SHAPE_REPRESENTATION('',(#14),#2135);
#13=STYLED_ITEM('',(#2152),#14);
#14=MANIFOLD_SOLID_BREP('Body1',#1244);
#15=CYLINDRICAL_SURFACE('',#1284,3.9);
#16=CYLINDRICAL_SURFACE('',#1288,3.9);
#17=CYLINDRICAL_SURFACE('',#1292,3.9);
#18=CYLINDRICAL_SURFACE('',#1296,3.9);
#19=CYLINDRICAL_SURFACE('',#1300,3.9);
#20=CYLINDRICAL_SURFACE('',#1304,3.9);
#21=CYLINDRICAL_SURFACE('',#1308,3.9);
#22=CYLINDRICAL_SURFACE('',#1312,3.9);
#23=CYLINDRICAL_SURFACE('',#1316,3.9);
#24=CYLINDRICAL_SURFACE('',#1320,3.9);
#25=CYLINDRICAL_SURFACE('',#1324,3.9);
#26=CYLINDRICAL_SURFACE('',#1328,3.9);
#27=CYLINDRICAL_SURFACE('',#1332,3.9);
#28=CYLINDRICAL_SURFACE('',#1336,3.9);
#29=CYLINDRICAL_SURFACE('',#1340,3.9);
#30=CYLINDRICAL_SURFACE('',#1344,3.9);
#31=CYLINDRICAL_SURFACE('',#1348,3.9);
#32=CYLINDRICAL_SURFACE('',#1352,3.9);
#33=CYLINDRICAL_SURFACE('',#1356,3.9);
#34=CYLINDRICAL_SURFACE('',#1360,3.9);
#35=CYLINDRICAL_SURFACE('',#1362,3.9);
#36=CYLINDRICAL_SURFACE('',#1374,1.5);
#37=CYLINDRICAL_SURFACE('',#1376,1.5);
#38=CYLINDRICAL_SURFACE('',#1378,1.5);
#39=CYLINDRICAL_SURFACE('',#1380,1.5);
#40=CYLINDRICAL_SURFACE('',#1382,1.5);
#41=CYLINDRICAL_SURFACE('',#1384,1.5);
#42=CYLINDRICAL_SURFACE('',#1393,30.);
#43=CYLINDRICAL_SURFACE('',#1399,35.0001141280186);
#44=CYLINDRICAL_SURFACE('',#1401,35.0001141280186);
#45=CYLINDRICAL_SURFACE('',#1402,35.);
#46=CYLINDRICAL_SURFACE('',#1404,30.);
#47=FACE_BOUND('',#185,.T.);
#48=FACE_BOUND('',#186,.T.);
#49=FACE_BOUND('',#187,.T.);
#50=FACE_BOUND('',#188,.T.);
#51=FACE_BOUND('',#189,.T.);
#52=FACE_BOUND('',#190,.T.);
#53=FACE_BOUND('',#191,.T.);
#54=FACE_BOUND('',#192,.T.);
#55=FACE_BOUND('',#193,.T.);
#56=FACE_BOUND('',#194,.T.);
#57=FACE_BOUND('',#195,.T.);
#58=FACE_BOUND('',#196,.T.);
#59=FACE_BOUND('',#197,.T.);
#60=FACE_BOUND('',#198,.T.);
#61=FACE_BOUND('',#199,.T.);
#62=FACE_BOUND('',#200,.T.);
#63=FACE_BOUND('',#201,.T.);
#64=FACE_BOUND('',#202,.T.);
#65=FACE_BOUND('',#203,.T.);
#66=FACE_BOUND('',#204,.T.);
#67=FACE_BOUND('',#205,.T.);
#68=FACE_BOUND('',#247,.T.);
#69=FACE_BOUND('',#248,.T.);
#70=FACE_BOUND('',#249,.T.);
#71=FACE_BOUND('',#250,.T.);
#72=FACE_BOUND('',#251,.T.);
#73=FACE_BOUND('',#252,.T.);
#74=FACE_BOUND('',#253,.T.);
#75=FACE_BOUND('',#254,.T.);
#76=FACE_BOUND('',#255,.T.);
#77=FACE_BOUND('',#256,.T.);
#78=FACE_BOUND('',#257,.T.);
#79=FACE_BOUND('',#258,.T.);
#80=FACE_BOUND('',#259,.T.);
#81=FACE_BOUND('',#260,.T.);
#82=FACE_BOUND('',#261,.T.);
#83=FACE_BOUND('',#262,.T.);
#84=FACE_BOUND('',#263,.T.);
#85=FACE_BOUND('',#264,.T.);
#86=FACE_BOUND('',#265,.T.);
#87=FACE_BOUND('',#266,.T.);
#88=FACE_BOUND('',#267,.T.);
#89=FACE_BOUND('',#268,.T.);
#90=FACE_BOUND('',#269,.T.);
#91=FACE_BOUND('',#270,.T.);
#92=FACE_BOUND('',#271,.T.);
#93=FACE_BOUND('',#272,.T.);
#94=FACE_BOUND('',#273,.T.);
#95=FACE_BOUND('',#285,.T.);
#96=FACE_BOUND('',#286,.T.);
#97=FACE_BOUND('',#287,.T.);
#98=FACE_BOUND('',#291,.T.);
#99=FACE_BOUND('',#292,.T.);
#100=FACE_BOUND('',#293,.T.);
#101=PLANE('',#1261);
#102=PLANE('',#1364);
#103=PLANE('',#1386);
#104=PLANE('',#1387);
#105=PLANE('',#1388);
#106=PLANE('',#1389);
#107=PLANE('',#1390);
#108=PLANE('',#1394);
#109=PLANE('',#1395);
#110=PLANE('',#1400);
#111=PLANE('',#1403);
#112=PLANE('',#1405);
#113=PLANE('',#1406);
#114=PLANE('',#1407);
#115=PLANE('',#1408);
#116=FACE_OUTER_BOUND('',#183,.T.);
#117=FACE_OUTER_BOUND('',#184,.T.);
#118=FACE_OUTER_BOUND('',#206,.T.);
#119=FACE_OUTER_BOUND('',#207,.T.);
#120=FACE_OUTER_BOUND('',#208,.T.);
#121=FACE_OUTER_BOUND('',#209,.T.);
#122=FACE_OUTER_BOUND('',#210,.T.);
#123=FACE_OUTER_BOUND('',#211,.T.);
#124=FACE_OUTER_BOUND('',#212,.T.);
#125=FACE_OUTER_BOUND('',#213,.T.);
#126=FACE_OUTER_BOUND('',#214,.T.);
#127=FACE_OUTER_BOUND('',#215,.T.);
#128=FACE_OUTER_BOUND('',#216,.T.);
#129=FACE_OUTER_BOUND('',#217,.T.);
#130=FACE_OUTER_BOUND('',#218,.T.);
#131=FACE_OUTER_BOUND('',#219,.T.);
#132=FACE_OUTER_BOUND('',#220,.T.);
#133=FACE_OUTER_BOUND('',#221,.T.);
#134=FACE_OUTER_BOUND('',#222,.T.);
#135=FACE_OUTER_BOUND('',#223,.T.);
#136=FACE_OUTER_BOUND('',#224,.T.);
#137=FACE_OUTER_BOUND('',#225,.T.);
#138=FACE_OUTER_BOUND('',#226,.T.);
#139=FACE_OUTER_BOUND('',#227,.T.);
#140=FACE_OUTER_BOUND('',#228,.T.);
#141=FACE_OUTER_BOUND('',#229,.T.);
#142=FACE_OUTER_BOUND('',#230,.T.);
#143=FACE_OUTER_BOUND('',#231,.T.);
#144=FACE_OUTER_BOUND('',#232,.T.);
#145=FACE_OUTER_BOUND('',#233,.T.);
#146=FACE_OUTER_BOUND('',#234,.T.);
#147=FACE_OUTER_BOUND('',#235,.T.);
#148=FACE_OUTER_BOUND('',#236,.T.);
#149=FACE_OUTER_BOUND('',#237,.T.);
#150=FACE_OUTER_BOUND('',#238,.T.);
#151=FACE_OUTER_BOUND('',#239,.T.);
#152=FACE_OUTER_BOUND('',#240,.T.);
#153=FACE_OUTER_BOUND('',#241,.T.);
#154=FACE_OUTER_BOUND('',#242,.T.);
#155=FACE_OUTER_BOUND('',#243,.T.);
#156=FACE_OUTER_BOUND('',#244,.T.);
#157=FACE_OUTER_BOUND('',#245,.T.);
#158=FACE_OUTER_BOUND('',#246,.T.);
#159=FACE_OUTER_BOUND('',#274,.T.);
#160=FACE_OUTER_BOUND('',#275,.T.);
#161=FACE_OUTER_BOUND('',#276,.T.);
#162=FACE_OUTER_BOUND('',#277,.T.);
#163=FACE_OUTER_BOUND('',#278,.T.);
#164=FACE_OUTER_BOUND('',#279,.T.);
#165=FACE_OUTER_BOUND('',#280,.T.);
#166=FACE_OUTER_BOUND('',#281,.T.);
#167=FACE_OUTER_BOUND('',#282,.T.);
#168=FACE_OUTER_BOUND('',#283,.T.);
#169=FACE_OUTER_BOUND('',#284,.T.);
#170=FACE_OUTER_BOUND('',#288,.T.);
#171=FACE_OUTER_BOUND('',#289,.T.);
#172=FACE_OUTER_BOUND('',#290,.T.);
#173=FACE_OUTER_BOUND('',#294,.T.);
#174=FACE_OUTER_BOUND('',#295,.T.);
#175=FACE_OUTER_BOUND('',#296,.T.);
#176=FACE_OUTER_BOUND('',#297,.T.);
#177=FACE_OUTER_BOUND('',#298,.T.);
#178=FACE_OUTER_BOUND('',#299,.T.);
#179=FACE_OUTER_BOUND('',#300,.T.);
#180=FACE_OUTER_BOUND('',#301,.T.);
#181=FACE_OUTER_BOUND('',#302,.T.);
#182=FACE_OUTER_BOUND('',#303,.T.);
#183=EDGE_LOOP('',(#823,#824,#825,#826));
#184=EDGE_LOOP('',(#827,#828,#829,#830));
#185=EDGE_LOOP('',(#831));
#186=EDGE_LOOP('',(#832));
#187=EDGE_LOOP('',(#833));
#188=EDGE_LOOP('',(#834));
#189=EDGE_LOOP('',(#835));
#190=EDGE_LOOP('',(#836));
#191=EDGE_LOOP('',(#837));
#192=EDGE_LOOP('',(#838));
#193=EDGE_LOOP('',(#839));
#194=EDGE_LOOP('',(#840));
#195=EDGE_LOOP('',(#841));
#196=EDGE_LOOP('',(#842));
#197=EDGE_LOOP('',(#843));
#198=EDGE_LOOP('',(#844));
#199=EDGE_LOOP('',(#845));
#200=EDGE_LOOP('',(#846));
#201=EDGE_LOOP('',(#847));
#202=EDGE_LOOP('',(#848));
#203=EDGE_LOOP('',(#849));
#204=EDGE_LOOP('',(#850));
#205=EDGE_LOOP('',(#851));
#206=EDGE_LOOP('',(#852,#853,#854,#855));
#207=EDGE_LOOP('',(#856,#857,#858,#859));
#208=EDGE_LOOP('',(#860,#861,#862,#863));
#209=EDGE_LOOP('',(#864,#865,#866,#867));
#210=EDGE_LOOP('',(#868,#869,#870,#871));
#211=EDGE_LOOP('',(#872,#873,#874,#875));
#212=EDGE_LOOP('',(#876,#877,#878,#879));
#213=EDGE_LOOP('',(#880,#881,#882,#883));
#214=EDGE_LOOP('',(#884,#885,#886,#887));
#215=EDGE_LOOP('',(#888,#889,#890,#891));
#216=EDGE_LOOP('',(#892,#893,#894,#895));
#217=EDGE_LOOP('',(#896,#897,#898,#899));
#218=EDGE_LOOP('',(#900,#901,#902,#903));
#219=EDGE_LOOP('',(#904,#905,#906,#907));
#220=EDGE_LOOP('',(#908,#909,#910,#911));
#221=EDGE_LOOP('',(#912,#913,#914,#915));
#222=EDGE_LOOP('',(#916,#917,#918,#919));
#223=EDGE_LOOP('',(#920,#921,#922,#923));
#224=EDGE_LOOP('',(#924,#925,#926,#927));
#225=EDGE_LOOP('',(#928,#929,#930,#931));
#226=EDGE_LOOP('',(#932,#933,#934,#935));
#227=EDGE_LOOP('',(#936,#937,#938,#939));
#228=EDGE_LOOP('',(#940,#941,#942,#943));
#229=EDGE_LOOP('',(#944,#945,#946,#947));
#230=EDGE_LOOP('',(#948,#949,#950,#951));
#231=EDGE_LOOP('',(#952,#953,#954,#955));
#232=EDGE_LOOP('',(#956,#957,#958,#959));
#233=EDGE_LOOP('',(#960,#961,#962,#963));
#234=EDGE_LOOP('',(#964,#965,#966,#967));
#235=EDGE_LOOP('',(#968,#969,#970,#971));
#236=EDGE_LOOP('',(#972,#973,#974,#975));
#237=EDGE_LOOP('',(#976,#977,#978,#979));
#238=EDGE_LOOP('',(#980,#981,#982,#983));
#239=EDGE_LOOP('',(#984,#985,#986,#987));
#240=EDGE_LOOP('',(#988,#989,#990,#991));
#241=EDGE_LOOP('',(#992,#993,#994,#995));
#242=EDGE_LOOP('',(#996,#997,#998,#999));
#243=EDGE_LOOP('',(#1000,#1001,#1002,#1003));
#244=EDGE_LOOP('',(#1004,#1005,#1006,#1007));
#245=EDGE_LOOP('',(#1008,#1009,#1010,#1011));
#246=EDGE_LOOP('',(#1012,#1013,#1014,#1015,#1016,#1017));
#247=EDGE_LOOP('',(#1018));
#248=EDGE_LOOP('',(#1019));
#249=EDGE_LOOP('',(#1020));
#250=EDGE_LOOP('',(#1021));
#251=EDGE_LOOP('',(#1022));
#252=EDGE_LOOP('',(#1023));
#253=EDGE_LOOP('',(#1024));
#254=EDGE_LOOP('',(#1025));
#255=EDGE_LOOP('',(#1026));
#256=EDGE_LOOP('',(#1027));
#257=EDGE_LOOP('',(#1028));
#258=EDGE_LOOP('',(#1029));
#259=EDGE_LOOP('',(#1030));
#260=EDGE_LOOP('',(#1031));
#261=EDGE_LOOP('',(#1032));
#262=EDGE_LOOP('',(#1033));
#263=EDGE_LOOP('',(#1034));
#264=EDGE_LOOP('',(#1035));
#265=EDGE_LOOP('',(#1036));
#266=EDGE_LOOP('',(#1037));
#267=EDGE_LOOP('',(#1038));
#268=EDGE_LOOP('',(#1039));
#269=EDGE_LOOP('',(#1040));
#270=EDGE_LOOP('',(#1041));
#271=EDGE_LOOP('',(#1042));
#272=EDGE_LOOP('',(#1043));
#273=EDGE_LOOP('',(#1044));
#274=EDGE_LOOP('',(#1045,#1046,#1047,#1048));
#275=EDGE_LOOP('',(#1049,#1050,#1051,#1052));
#276=EDGE_LOOP('',(#1053,#1054,#1055,#1056));
#277=EDGE_LOOP('',(#1057,#1058,#1059,#1060));
#278=EDGE_LOOP('',(#1061,#1062,#1063,#1064));
#279=EDGE_LOOP('',(#1065,#1066,#1067,#1068));
#280=EDGE_LOOP('',(#1069,#1070,#1071,#1072));
#281=EDGE_LOOP('',(#1073,#1074,#1075,#1076));
#282=EDGE_LOOP('',(#1077,#1078,#1079,#1080));
#283=EDGE_LOOP('',(#1081,#1082,#1083,#1084));
#284=EDGE_LOOP('',(#1085,#1086,#1087,#1088));
#285=EDGE_LOOP('',(#1089));
#286=EDGE_LOOP('',(#1090));
#287=EDGE_LOOP('',(#1091));
#288=EDGE_LOOP('',(#1092,#1093,#1094,#1095,#1096,#1097));
#289=EDGE_LOOP('',(#1098,#1099,#1100,#1101));
#290=EDGE_LOOP('',(#1102,#1103,#1104,#1105,#1106,#1107));
#291=EDGE_LOOP('',(#1108));
#292=EDGE_LOOP('',(#1109));
#293=EDGE_LOOP('',(#1110));
#294=EDGE_LOOP('',(#1111,#1112,#1113,#1114,#1115));
#295=EDGE_LOOP('',(#1116,#1117,#1118,#1119));
#296=EDGE_LOOP('',(#1120,#1121,#1122,#1123,#1124));
#297=EDGE_LOOP('',(#1125,#1126,#1127,#1128,#1129,#1130));
#298=EDGE_LOOP('',(#1131,#1132,#1133,#1134));
#299=EDGE_LOOP('',(#1135,#1136,#1137,#1138,#1139,#1140));
#300=EDGE_LOOP('',(#1141,#1142,#1143,#1144));
#301=EDGE_LOOP('',(#1145,#1146,#1147,#1148));
#302=EDGE_LOOP('',(#1149,#1150,#1151,#1152));
#303=EDGE_LOOP('',(#1153,#1154,#1155,#1156));
#304=LINE('',#1801,#387);
#305=LINE('',#1806,#388);
#306=LINE('',#1810,#389);
#307=LINE('',#1855,#390);
#308=LINE('',#1858,#391);
#309=LINE('',#1863,#392);
#310=LINE('',#1866,#393);
#311=LINE('',#1871,#394);
#312=LINE('',#1874,#395);
#313=LINE('',#1879,#396);
#314=LINE('',#1882,#397);
#315=LINE('',#1887,#398);
#316=LINE('',#1890,#399);
#317=LINE('',#1895,#400);
#318=LINE('',#1898,#401);
#319=LINE('',#1903,#402);
#320=LINE('',#1906,#403);
#321=LINE('',#1911,#404);
#322=LINE('',#1914,#405);
#323=LINE('',#1919,#406);
#324=LINE('',#1922,#407);
#325=LINE('',#1927,#408);
#326=LINE('',#1930,#409);
#327=LINE('',#1935,#410);
#328=LINE('',#1938,#411);
#329=LINE('',#1943,#412);
#330=LINE('',#1946,#413);
#331=LINE('',#1951,#414);
#332=LINE('',#1954,#415);
#333=LINE('',#1959,#416);
#334=LINE('',#1962,#417);
#335=LINE('',#1967,#418);
#336=LINE('',#1970,#419);
#337=LINE('',#1975,#420);
#338=LINE('',#1978,#421);
#339=LINE('',#1983,#422);
#340=LINE('',#1986,#423);
#341=LINE('',#1991,#424);
#342=LINE('',#1994,#425);
#343=LINE('',#1999,#426);
#344=LINE('',#2002,#427);
#345=LINE('',#2007,#428);
#346=LINE('',#2011,#429);
#347=LINE('',#2017,#430);
#348=LINE('',#2021,#431);
#349=LINE('',#2024,#432);
#350=LINE('',#2040,#433);
#351=LINE('',#2044,#434);
#352=LINE('',#2048,#435);
#353=LINE('',#2052,#436);
#354=LINE('',#2056,#437);
#355=LINE('',#2060,#438);
#356=LINE('',#2064,#439);
#357=LINE('',#2066,#440);
#358=LINE('',#2068,#441);
#359=LINE('',#2069,#442);
#360=LINE('',#2072,#443);
#361=LINE('',#2074,#444);
#362=LINE('',#2075,#445);
#363=LINE('',#2079,#446);
#364=LINE('',#2081,#447);
#365=LINE('',#2083,#448);
#366=LINE('',#2084,#449);
#367=LINE('',#2087,#450);
#368=LINE('',#2089,#451);
#369=LINE('',#2090,#452);
#370=LINE('',#2095,#453);
#371=LINE('',#2098,#454);
#372=LINE('',#2099,#455);
#373=LINE('',#2100,#456);
#374=LINE('',#2102,#457);
#375=LINE('',#2107,#458);
#376=LINE('',#2111,#459);
#377=LINE('',#2114,#460);
#378=LINE('',#2115,#461);
#379=LINE('',#2116,#462);
#380=LINE('',#2118,#463);
#381=LINE('',#2120,#464);
#382=LINE('',#2122,#465);
#383=LINE('',#2123,#466);
#384=LINE('',#2126,#467);
#385=LINE('',#2127,#468);
#386=LINE('',#2128,#469);
#387=VECTOR('',#1415,5.4);
#388=VECTOR('',#1420,10.);
#389=VECTOR('',#1423,10.);
#390=VECTOR('',#1470,3.9);
#391=VECTOR('',#1473,5.4);
#392=VECTOR('',#1480,3.9);
#393=VECTOR('',#1483,5.4);
#394=VECTOR('',#1490,3.9);
#395=VECTOR('',#1493,5.4);
#396=VECTOR('',#1500,3.9);
#397=VECTOR('',#1503,5.4);
#398=VECTOR('',#1510,3.9);
#399=VECTOR('',#1513,5.4);
#400=VECTOR('',#1520,3.9);
#401=VECTOR('',#1523,5.4);
#402=VECTOR('',#1530,3.9);
#403=VECTOR('',#1533,5.4);
#404=VECTOR('',#1540,3.9);
#405=VECTOR('',#1543,5.4);
#406=VECTOR('',#1550,3.9);
#407=VECTOR('',#1553,5.4);
#408=VECTOR('',#1560,3.9);
#409=VECTOR('',#1563,5.4);
#410=VECTOR('',#1570,3.9);
#411=VECTOR('',#1573,5.4);
#412=VECTOR('',#1580,3.9);
#413=VECTOR('',#1583,5.4);
#414=VECTOR('',#1590,3.9);
#415=VECTOR('',#1593,5.4);
#416=VECTOR('',#1600,3.9);
#417=VECTOR('',#1603,5.4);
#418=VECTOR('',#1610,3.9);
#419=VECTOR('',#1613,5.4);
#420=VECTOR('',#1620,3.9);
#421=VECTOR('',#1623,5.4);
#422=VECTOR('',#1630,3.9);
#423=VECTOR('',#1633,5.4);
#424=VECTOR('',#1640,3.9);
#425=VECTOR('',#1643,5.4);
#426=VECTOR('',#1650,3.9);
#427=VECTOR('',#1653,5.4);
#428=VECTOR('',#1660,3.9);
#429=VECTOR('',#1665,3.9);
#430=VECTOR('',#1670,10.);
#431=VECTOR('',#1673,10.);
#432=VECTOR('',#1676,10.);
#433=VECTOR('',#1693,1.5);
#434=VECTOR('',#1698,1.5);
#435=VECTOR('',#1703,1.5);
#436=VECTOR('',#1708,1.5);
#437=VECTOR('',#1713,1.5);
#438=VECTOR('',#1718,1.5);
#439=VECTOR('',#1721,10.);
#440=VECTOR('',#1722,10.);
#441=VECTOR('',#1723,10.);
#442=VECTOR('',#1724,10.);
#443=VECTOR('',#1727,10.);
#444=VECTOR('',#1728,10.);
#445=VECTOR('',#1729,10.);
#446=VECTOR('',#1732,10.);
#447=VECTOR('',#1733,10.);
#448=VECTOR('',#1734,10.);
#449=VECTOR('',#1735,10.);
#450=VECTOR('',#1738,10.);
#451=VECTOR('',#1739,10.);
#452=VECTOR('',#1740,10.);
#453=VECTOR('',#1745,10.);
#454=VECTOR('',#1750,10.);
#455=VECTOR('',#1751,10.);
#456=VECTOR('',#1752,10.);
#457=VECTOR('',#1755,10.);
#458=VECTOR('',#1760,10.);
#459=VECTOR('',#1763,10.);
#460=VECTOR('',#1768,10.);
#461=VECTOR('',#1769,10.);
#462=VECTOR('',#1770,10.);
#463=VECTOR('',#1773,10.);
#464=VECTOR('',#1776,10.);
#465=VECTOR('',#1779,10.);
#466=VECTOR('',#1780,10.);
#467=VECTOR('',#1785,10.);
#468=VECTOR('',#1786,10.);
#469=VECTOR('',#1787,10.);
#470=CIRCLE('',#1259,6.9);
#471=CIRCLE('',#1260,3.9);
#472=CIRCLE('',#1262,30.);
#473=CIRCLE('',#1263,30.);
#474=CIRCLE('',#1264,6.9);
#475=CIRCLE('',#1265,6.9);
#476=CIRCLE('',#1266,6.9);
#477=CIRCLE('',#1267,6.9);
#478=CIRCLE('',#1268,6.9);
#479=CIRCLE('',#1269,6.9);
#480=CIRCLE('',#1270,6.9);
#481=CIRCLE('',#1271,6.9);
#482=CIRCLE('',#1272,6.9);
#483=CIRCLE('',#1273,6.9);
#484=CIRCLE('',#1274,3.9);
#485=CIRCLE('',#1275,6.9);
#486=CIRCLE('',#1276,6.9);
#487=CIRCLE('',#1277,6.9);
#488=CIRCLE('',#1278,6.9);
#489=CIRCLE('',#1279,6.9);
#490=CIRCLE('',#1280,6.9);
#491=CIRCLE('',#1281,6.9);
#492=CIRCLE('',#1282,6.9);
#493=CIRCLE('',#1283,6.9);
#494=CIRCLE('',#1285,3.9);
#495=CIRCLE('',#1287,3.9);
#496=CIRCLE('',#1289,3.9);
#497=CIRCLE('',#1291,3.9);
#498=CIRCLE('',#1293,3.9);
#499=CIRCLE('',#1295,3.9);
#500=CIRCLE('',#1297,3.9);
#501=CIRCLE('',#1299,3.9);
#502=CIRCLE('',#1301,3.9);
#503=CIRCLE('',#1303,3.9);
#504=CIRCLE('',#1305,3.9);
#505=CIRCLE('',#1307,3.9);
#506=CIRCLE('',#1309,3.9);
#507=CIRCLE('',#1311,3.9);
#508=CIRCLE('',#1313,3.9);
#509=CIRCLE('',#1315,3.9);
#510=CIRCLE('',#1317,3.9);
#511=CIRCLE('',#1319,3.9);
#512=CIRCLE('',#1321,3.9);
#513=CIRCLE('',#1323,3.9);
#514=CIRCLE('',#1325,3.9);
#515=CIRCLE('',#1327,3.9);
#516=CIRCLE('',#1329,3.9);
#517=CIRCLE('',#1331,3.9);
#518=CIRCLE('',#1333,3.9);
#519=CIRCLE('',#1335,3.9);
#520=CIRCLE('',#1337,3.9);
#521=CIRCLE('',#1339,3.9);
#522=CIRCLE('',#1341,3.9);
#523=CIRCLE('',#1343,3.9);
#524=CIRCLE('',#1345,3.9);
#525=CIRCLE('',#1347,3.9);
#526=CIRCLE('',#1349,3.9);
#527=CIRCLE('',#1351,3.9);
#528=CIRCLE('',#1353,3.9);
#529=CIRCLE('',#1355,3.9);
#530=CIRCLE('',#1357,3.9);
#531=CIRCLE('',#1359,3.9);
#532=CIRCLE('',#1361,3.9);
#533=CIRCLE('',#1363,3.9);
#534=CIRCLE('',#1365,35.0001141280186);
#535=CIRCLE('',#1366,35.);
#536=CIRCLE('',#1367,35.0001141280186);
#537=CIRCLE('',#1368,1.5);
#538=CIRCLE('',#1369,1.5);
#539=CIRCLE('',#1370,1.5);
#540=CIRCLE('',#1371,1.5);
#541=CIRCLE('',#1372,1.5);
#542=CIRCLE('',#1373,1.5);
#543=CIRCLE('',#1375,1.5);
#544=CIRCLE('',#1377,1.5);
#545=CIRCLE('',#1379,1.5);
#546=CIRCLE('',#1381,1.5);
#547=CIRCLE('',#1383,1.5);
#548=CIRCLE('',#1385,1.5);
#549=CIRCLE('',#1391,35.);
#550=CIRCLE('',#1392,30.);
#551=CIRCLE('',#1396,35.0001141280186);
#552=CIRCLE('',#1397,35.0001141280186);
#553=CIRCLE('',#1398,30.);
#554=VERTEX_POINT('',#1798);
#555=VERTEX_POINT('',#1800);
#556=VERTEX_POINT('',#1804);
#557=VERTEX_POINT('',#1805);
#558=VERTEX_POINT('',#1807);
#559=VERTEX_POINT('',#1809);
#560=VERTEX_POINT('',#1812);
#561=VERTEX_POINT('',#1814);
#562=VERTEX_POINT('',#1816);
#563=VERTEX_POINT('',#1818);
#564=VERTEX_POINT('',#1820);
#565=VERTEX_POINT('',#1822);
#566=VERTEX_POINT('',#1824);
#567=VERTEX_POINT('',#1826);
#568=VERTEX_POINT('',#1828);
#569=VERTEX_POINT('',#1830);
#570=VERTEX_POINT('',#1832);
#571=VERTEX_POINT('',#1834);
#572=VERTEX_POINT('',#1836);
#573=VERTEX_POINT('',#1838);
#574=VERTEX_POINT('',#1840);
#575=VERTEX_POINT('',#1842);
#576=VERTEX_POINT('',#1844);
#577=VERTEX_POINT('',#1846);
#578=VERTEX_POINT('',#1848);
#579=VERTEX_POINT('',#1850);
#580=VERTEX_POINT('',#1853);
#581=VERTEX_POINT('',#1857);
#582=VERTEX_POINT('',#1861);
#583=VERTEX_POINT('',#1865);
#584=VERTEX_POINT('',#1869);
#585=VERTEX_POINT('',#1873);
#586=VERTEX_POINT('',#1877);
#587=VERTEX_POINT('',#1881);
#588=VERTEX_POINT('',#1885);
#589=VERTEX_POINT('',#1889);
#590=VERTEX_POINT('',#1893);
#591=VERTEX_POINT('',#1897);
#592=VERTEX_POINT('',#1901);
#593=VERTEX_POINT('',#1905);
#594=VERTEX_POINT('',#1909);
#595=VERTEX_POINT('',#1913);
#596=VERTEX_POINT('',#1917);
#597=VERTEX_POINT('',#1921);
#598=VERTEX_POINT('',#1925);
#599=VERTEX_POINT('',#1929);
#600=VERTEX_POINT('',#1933);
#601=VERTEX_POINT('',#1937);
#602=VERTEX_POINT('',#1941);
#603=VERTEX_POINT('',#1945);
#604=VERTEX_POINT('',#1949);
#605=VERTEX_POINT('',#1953);
#606=VERTEX_POINT('',#1957);
#607=VERTEX_POINT('',#1961);
#608=VERTEX_POINT('',#1965);
#609=VERTEX_POINT('',#1969);
#610=VERTEX_POINT('',#1973);
#611=VERTEX_POINT('',#1977);
#612=VERTEX_POINT('',#1981);
#613=VERTEX_POINT('',#1985);
#614=VERTEX_POINT('',#1989);
#615=VERTEX_POINT('',#1993);
#616=VERTEX_POINT('',#1997);
#617=VERTEX_POINT('',#2001);
#618=VERTEX_POINT('',#2005);
#619=VERTEX_POINT('',#2009);
#620=VERTEX_POINT('',#2013);
#621=VERTEX_POINT('',#2014);
#622=VERTEX_POINT('',#2016);
#623=VERTEX_POINT('',#2018);
#624=VERTEX_POINT('',#2020);
#625=VERTEX_POINT('',#2022);
#626=VERTEX_POINT('',#2025);
#627=VERTEX_POINT('',#2027);
#628=VERTEX_POINT('',#2029);
#629=VERTEX_POINT('',#2031);
#630=VERTEX_POINT('',#2033);
#631=VERTEX_POINT('',#2035);
#632=VERTEX_POINT('',#2038);
#633=VERTEX_POINT('',#2042);
#634=VERTEX_POINT('',#2046);
#635=VERTEX_POINT('',#2050);
#636=VERTEX_POINT('',#2054);
#637=VERTEX_POINT('',#2058);
#638=VERTEX_POINT('',#2062);
#639=VERTEX_POINT('',#2063);
#640=VERTEX_POINT('',#2065);
#641=VERTEX_POINT('',#2067);
#642=VERTEX_POINT('',#2071);
#643=VERTEX_POINT('',#2073);
#644=VERTEX_POINT('',#2077);
#645=VERTEX_POINT('',#2078);
#646=VERTEX_POINT('',#2080);
#647=VERTEX_POINT('',#2082);
#648=VERTEX_POINT('',#2086);
#649=VERTEX_POINT('',#2088);
#650=VERTEX_POINT('',#2092);
#651=VERTEX_POINT('',#2094);
#652=VERTEX_POINT('',#2104);
#653=VERTEX_POINT('',#2106);
#654=VERTEX_POINT('',#2108);
#655=VERTEX_POINT('',#2110);
#656=EDGE_CURVE('',#554,#554,#470,.T.);
#657=EDGE_CURVE('',#554,#555,#304,.T.);
#658=EDGE_CURVE('',#555,#555,#471,.T.);
#659=EDGE_CURVE('',#556,#557,#305,.T.);
#660=EDGE_CURVE('',#558,#556,#472,.T.);
#661=EDGE_CURVE('',#559,#558,#306,.T.);
#662=EDGE_CURVE('',#557,#559,#473,.T.);
#663=EDGE_CURVE('',#560,#560,#474,.T.);
#664=EDGE_CURVE('',#561,#561,#475,.T.);
#665=EDGE_CURVE('',#562,#562,#476,.T.);
#666=EDGE_CURVE('',#563,#563,#477,.T.);
#667=EDGE_CURVE('',#564,#564,#478,.T.);
#668=EDGE_CURVE('',#565,#565,#479,.T.);
#669=EDGE_CURVE('',#566,#566,#480,.T.);
#670=EDGE_CURVE('',#567,#567,#481,.T.);
#671=EDGE_CURVE('',#568,#568,#482,.T.);
#672=EDGE_CURVE('',#569,#569,#483,.T.);
#673=EDGE_CURVE('',#570,#570,#484,.T.);
#674=EDGE_CURVE('',#571,#571,#485,.T.);
#675=EDGE_CURVE('',#572,#572,#486,.T.);
#676=EDGE_CURVE('',#573,#573,#487,.T.);
#677=EDGE_CURVE('',#574,#574,#488,.T.);
#678=EDGE_CURVE('',#575,#575,#489,.T.);
#679=EDGE_CURVE('',#576,#576,#490,.T.);
#680=EDGE_CURVE('',#577,#577,#491,.T.);
#681=EDGE_CURVE('',#578,#578,#492,.T.);
#682=EDGE_CURVE('',#579,#579,#493,.T.);
#683=EDGE_CURVE('',#580,#580,#494,.T.);
#684=EDGE_CURVE('',#580,#555,#307,.T.);
#685=EDGE_CURVE('',#560,#581,#308,.T.);
#686=EDGE_CURVE('',#581,#581,#495,.T.);
#687=EDGE_CURVE('',#582,#582,#496,.T.);
#688=EDGE_CURVE('',#582,#581,#309,.T.);
#689=EDGE_CURVE('',#579,#583,#310,.T.);
#690=EDGE_CURVE('',#583,#583,#497,.T.);
#691=EDGE_CURVE('',#584,#584,#498,.T.);
#692=EDGE_CURVE('',#584,#583,#311,.T.);
#693=EDGE_CURVE('',#561,#585,#312,.T.);
#694=EDGE_CURVE('',#585,#585,#499,.T.);
#695=EDGE_CURVE('',#586,#586,#500,.T.);
#696=EDGE_CURVE('',#586,#585,#313,.T.);
#697=EDGE_CURVE('',#578,#587,#314,.T.);
#698=EDGE_CURVE('',#587,#587,#501,.T.);
#699=EDGE_CURVE('',#588,#588,#502,.T.);
#700=EDGE_CURVE('',#588,#587,#315,.T.);
#701=EDGE_CURVE('',#562,#589,#316,.T.);
#702=EDGE_CURVE('',#589,#589,#503,.T.);
#703=EDGE_CURVE('',#590,#590,#504,.T.);
#704=EDGE_CURVE('',#590,#589,#317,.T.);
#705=EDGE_CURVE('',#577,#591,#318,.T.);
#706=EDGE_CURVE('',#591,#591,#505,.T.);
#707=EDGE_CURVE('',#592,#592,#506,.T.);
#708=EDGE_CURVE('',#592,#591,#319,.T.);
#709=EDGE_CURVE('',#563,#593,#320,.T.);
#710=EDGE_CURVE('',#593,#593,#507,.T.);
#711=EDGE_CURVE('',#594,#594,#508,.T.);
#712=EDGE_CURVE('',#594,#593,#321,.T.);
#713=EDGE_CURVE('',#576,#595,#322,.T.);
#714=EDGE_CURVE('',#595,#595,#509,.T.);
#715=EDGE_CURVE('',#596,#596,#510,.T.);
#716=EDGE_CURVE('',#596,#595,#323,.T.);
#717=EDGE_CURVE('',#564,#597,#324,.T.);
#718=EDGE_CURVE('',#597,#597,#511,.T.);
#719=EDGE_CURVE('',#598,#598,#512,.T.);
#720=EDGE_CURVE('',#598,#597,#325,.T.);
#721=EDGE_CURVE('',#575,#599,#326,.T.);
#722=EDGE_CURVE('',#599,#599,#513,.T.);
#723=EDGE_CURVE('',#600,#600,#514,.T.);
#724=EDGE_CURVE('',#600,#599,#327,.T.);
#725=EDGE_CURVE('',#565,#601,#328,.T.);
#726=EDGE_CURVE('',#601,#601,#515,.T.);
#727=EDGE_CURVE('',#602,#602,#516,.T.);
#728=EDGE_CURVE('',#602,#601,#329,.T.);
#729=EDGE_CURVE('',#574,#603,#330,.T.);
#730=EDGE_CURVE('',#603,#603,#517,.T.);
#731=EDGE_CURVE('',#604,#604,#518,.T.);
#732=EDGE_CURVE('',#604,#603,#331,.T.);
#733=EDGE_CURVE('',#566,#605,#332,.T.);
#734=EDGE_CURVE('',#605,#605,#519,.T.);
#735=EDGE_CURVE('',#606,#606,#520,.T.);
#736=EDGE_CURVE('',#606,#605,#333,.T.);
#737=EDGE_CURVE('',#573,#607,#334,.T.);
#738=EDGE_CURVE('',#607,#607,#521,.T.);
#739=EDGE_CURVE('',#608,#608,#522,.T.);
#740=EDGE_CURVE('',#608,#607,#335,.T.);
#741=EDGE_CURVE('',#567,#609,#336,.T.);
#742=EDGE_CURVE('',#609,#609,#523,.T.);
#743=EDGE_CURVE('',#610,#610,#524,.T.);
#744=EDGE_CURVE('',#610,#609,#337,.T.);
#745=EDGE_CURVE('',#572,#611,#338,.T.);
#746=EDGE_CURVE('',#611,#611,#525,.T.);
#747=EDGE_CURVE('',#612,#612,#526,.T.);
#748=EDGE_CURVE('',#612,#611,#339,.T.);
#749=EDGE_CURVE('',#568,#613,#340,.T.);
#750=EDGE_CURVE('',#613,#613,#527,.T.);
#751=EDGE_CURVE('',#614,#614,#528,.T.);
#752=EDGE_CURVE('',#614,#613,#341,.T.);
#753=EDGE_CURVE('',#571,#615,#342,.T.);
#754=EDGE_CURVE('',#615,#615,#529,.T.);
#755=EDGE_CURVE('',#616,#616,#530,.T.);
#756=EDGE_CURVE('',#616,#615,#343,.T.);
#757=EDGE_CURVE('',#569,#617,#344,.T.);
#758=EDGE_CURVE('',#617,#617,#531,.T.);
#759=EDGE_CURVE('',#618,#618,#532,.T.);
#760=EDGE_CURVE('',#618,#617,#345,.T.);
#761=EDGE_CURVE('',#619,#619,#533,.T.);
#762=EDGE_CURVE('',#619,#570,#346,.T.);
#763=EDGE_CURVE('',#620,#621,#534,.T.);
#764=EDGE_CURVE('',#621,#622,#347,.T.);
#765=EDGE_CURVE('',#622,#623,#535,.T.);
#766=EDGE_CURVE('',#623,#624,#348,.T.);
#767=EDGE_CURVE('',#624,#625,#536,.T.);
#768=EDGE_CURVE('',#625,#620,#349,.T.);
#769=EDGE_CURVE('',#626,#626,#537,.T.);
#770=EDGE_CURVE('',#627,#627,#538,.T.);
#771=EDGE_CURVE('',#628,#628,#539,.T.);
#772=EDGE_CURVE('',#629,#629,#540,.T.);
#773=EDGE_CURVE('',#630,#630,#541,.T.);
#774=EDGE_CURVE('',#631,#631,#542,.T.);
#775=EDGE_CURVE('',#632,#632,#543,.T.);
#776=EDGE_CURVE('',#632,#626,#350,.T.);
#777=EDGE_CURVE('',#633,#633,#544,.T.);
#778=EDGE_CURVE('',#633,#627,#351,.T.);
#779=EDGE_CURVE('',#634,#634,#545,.T.);
#780=EDGE_CURVE('',#634,#628,#352,.T.);
#781=EDGE_CURVE('',#635,#635,#546,.T.);
#782=EDGE_CURVE('',#635,#629,#353,.T.);
#783=EDGE_CURVE('',#636,#636,#547,.T.);
#784=EDGE_CURVE('',#636,#630,#354,.T.);
#785=EDGE_CURVE('',#637,#637,#548,.T.);
#786=EDGE_CURVE('',#637,#631,#355,.T.);
#787=EDGE_CURVE('',#638,#639,#356,.T.);
#788=EDGE_CURVE('',#640,#639,#357,.T.);
#789=EDGE_CURVE('',#640,#641,#358,.T.);
#790=EDGE_CURVE('',#638,#641,#359,.T.);
#791=EDGE_CURVE('',#639,#642,#360,.T.);
#792=EDGE_CURVE('',#642,#643,#361,.T.);
#793=EDGE_CURVE('',#643,#640,#362,.T.);
#794=EDGE_CURVE('',#644,#645,#363,.T.);
#795=EDGE_CURVE('',#646,#645,#364,.T.);
#796=EDGE_CURVE('',#646,#647,#365,.T.);
#797=EDGE_CURVE('',#644,#647,#366,.T.);
#798=EDGE_CURVE('',#645,#648,#367,.T.);
#799=EDGE_CURVE('',#648,#649,#368,.T.);
#800=EDGE_CURVE('',#646,#649,#369,.T.);
#801=EDGE_CURVE('',#650,#648,#549,.T.);
#802=EDGE_CURVE('',#651,#650,#370,.T.);
#803=EDGE_CURVE('',#649,#651,#550,.T.);
#804=EDGE_CURVE('',#651,#641,#371,.T.);
#805=EDGE_CURVE('',#641,#557,#372,.T.);
#806=EDGE_CURVE('',#559,#646,#373,.T.);
#807=EDGE_CURVE('',#638,#650,#374,.T.);
#808=EDGE_CURVE('',#652,#642,#551,.T.);
#809=EDGE_CURVE('',#653,#652,#375,.T.);
#810=EDGE_CURVE('',#654,#653,#552,.T.);
#811=EDGE_CURVE('',#655,#654,#376,.T.);
#812=EDGE_CURVE('',#643,#655,#553,.T.);
#813=EDGE_CURVE('',#625,#653,#377,.T.);
#814=EDGE_CURVE('',#624,#644,#378,.T.);
#815=EDGE_CURVE('',#644,#654,#379,.T.);
#816=EDGE_CURVE('',#620,#652,#380,.T.);
#817=EDGE_CURVE('',#621,#639,#381,.T.);
#818=EDGE_CURVE('',#623,#645,#382,.T.);
#819=EDGE_CURVE('',#622,#638,#383,.T.);
#820=EDGE_CURVE('',#655,#647,#384,.T.);
#821=EDGE_CURVE('',#647,#558,#385,.T.);
#822=EDGE_CURVE('',#640,#556,#386,.T.);
#823=ORIENTED_EDGE('',*,*,#656,.T.);
#824=ORIENTED_EDGE('',*,*,#657,.T.);
#825=ORIENTED_EDGE('',*,*,#658,.T.);
#826=ORIENTED_EDGE('',*,*,#657,.F.);
#827=ORIENTED_EDGE('',*,*,#659,.F.);
#828=ORIENTED_EDGE('',*,*,#660,.F.);
#829=ORIENTED_EDGE('',*,*,#661,.F.);
#830=ORIENTED_EDGE('',*,*,#662,.F.);
#831=ORIENTED_EDGE('',*,*,#663,.F.);
#832=ORIENTED_EDGE('',*,*,#664,.F.);
#833=ORIENTED_EDGE('',*,*,#665,.F.);
#834=ORIENTED_EDGE('',*,*,#666,.F.);
#835=ORIENTED_EDGE('',*,*,#667,.F.);
#836=ORIENTED_EDGE('',*,*,#668,.F.);
#837=ORIENTED_EDGE('',*,*,#669,.F.);
#838=ORIENTED_EDGE('',*,*,#670,.F.);
#839=ORIENTED_EDGE('',*,*,#671,.F.);
#840=ORIENTED_EDGE('',*,*,#672,.F.);
#841=ORIENTED_EDGE('',*,*,#673,.T.);
#842=ORIENTED_EDGE('',*,*,#674,.F.);
#843=ORIENTED_EDGE('',*,*,#675,.F.);
#844=ORIENTED_EDGE('',*,*,#676,.F.);
#845=ORIENTED_EDGE('',*,*,#677,.F.);
#846=ORIENTED_EDGE('',*,*,#678,.F.);
#847=ORIENTED_EDGE('',*,*,#679,.F.);
#848=ORIENTED_EDGE('',*,*,#680,.F.);
#849=ORIENTED_EDGE('',*,*,#681,.F.);
#850=ORIENTED_EDGE('',*,*,#682,.F.);
#851=ORIENTED_EDGE('',*,*,#656,.F.);
#852=ORIENTED_EDGE('',*,*,#683,.F.);
#853=ORIENTED_EDGE('',*,*,#684,.T.);
#854=ORIENTED_EDGE('',*,*,#658,.F.);
#855=ORIENTED_EDGE('',*,*,#684,.F.);
#856=ORIENTED_EDGE('',*,*,#663,.T.);
#857=ORIENTED_EDGE('',*,*,#685,.T.);
#858=ORIENTED_EDGE('',*,*,#686,.T.);
#859=ORIENTED_EDGE('',*,*,#685,.F.);
#860=ORIENTED_EDGE('',*,*,#687,.F.);
#861=ORIENTED_EDGE('',*,*,#688,.T.);
#862=ORIENTED_EDGE('',*,*,#686,.F.);
#863=ORIENTED_EDGE('',*,*,#688,.F.);
#864=ORIENTED_EDGE('',*,*,#682,.T.);
#865=ORIENTED_EDGE('',*,*,#689,.T.);
#866=ORIENTED_EDGE('',*,*,#690,.T.);
#867=ORIENTED_EDGE('',*,*,#689,.F.);
#868=ORIENTED_EDGE('',*,*,#691,.F.);
#869=ORIENTED_EDGE('',*,*,#692,.T.);
#870=ORIENTED_EDGE('',*,*,#690,.F.);
#871=ORIENTED_EDGE('',*,*,#692,.F.);
#872=ORIENTED_EDGE('',*,*,#664,.T.);
#873=ORIENTED_EDGE('',*,*,#693,.T.);
#874=ORIENTED_EDGE('',*,*,#694,.T.);
#875=ORIENTED_EDGE('',*,*,#693,.F.);
#876=ORIENTED_EDGE('',*,*,#695,.F.);
#877=ORIENTED_EDGE('',*,*,#696,.T.);
#878=ORIENTED_EDGE('',*,*,#694,.F.);
#879=ORIENTED_EDGE('',*,*,#696,.F.);
#880=ORIENTED_EDGE('',*,*,#681,.T.);
#881=ORIENTED_EDGE('',*,*,#697,.T.);
#882=ORIENTED_EDGE('',*,*,#698,.T.);
#883=ORIENTED_EDGE('',*,*,#697,.F.);
#884=ORIENTED_EDGE('',*,*,#699,.F.);
#885=ORIENTED_EDGE('',*,*,#700,.T.);
#886=ORIENTED_EDGE('',*,*,#698,.F.);
#887=ORIENTED_EDGE('',*,*,#700,.F.);
#888=ORIENTED_EDGE('',*,*,#665,.T.);
#889=ORIENTED_EDGE('',*,*,#701,.T.);
#890=ORIENTED_EDGE('',*,*,#702,.T.);
#891=ORIENTED_EDGE('',*,*,#701,.F.);
#892=ORIENTED_EDGE('',*,*,#703,.F.);
#893=ORIENTED_EDGE('',*,*,#704,.T.);
#894=ORIENTED_EDGE('',*,*,#702,.F.);
#895=ORIENTED_EDGE('',*,*,#704,.F.);
#896=ORIENTED_EDGE('',*,*,#680,.T.);
#897=ORIENTED_EDGE('',*,*,#705,.T.);
#898=ORIENTED_EDGE('',*,*,#706,.T.);
#899=ORIENTED_EDGE('',*,*,#705,.F.);
#900=ORIENTED_EDGE('',*,*,#707,.F.);
#901=ORIENTED_EDGE('',*,*,#708,.T.);
#902=ORIENTED_EDGE('',*,*,#706,.F.);
#903=ORIENTED_EDGE('',*,*,#708,.F.);
#904=ORIENTED_EDGE('',*,*,#666,.T.);
#905=ORIENTED_EDGE('',*,*,#709,.T.);
#906=ORIENTED_EDGE('',*,*,#710,.T.);
#907=ORIENTED_EDGE('',*,*,#709,.F.);
#908=ORIENTED_EDGE('',*,*,#711,.F.);
#909=ORIENTED_EDGE('',*,*,#712,.T.);
#910=ORIENTED_EDGE('',*,*,#710,.F.);
#911=ORIENTED_EDGE('',*,*,#712,.F.);
#912=ORIENTED_EDGE('',*,*,#679,.T.);
#913=ORIENTED_EDGE('',*,*,#713,.T.);
#914=ORIENTED_EDGE('',*,*,#714,.T.);
#915=ORIENTED_EDGE('',*,*,#713,.F.);
#916=ORIENTED_EDGE('',*,*,#715,.F.);
#917=ORIENTED_EDGE('',*,*,#716,.T.);
#918=ORIENTED_EDGE('',*,*,#714,.F.);
#919=ORIENTED_EDGE('',*,*,#716,.F.);
#920=ORIENTED_EDGE('',*,*,#667,.T.);
#921=ORIENTED_EDGE('',*,*,#717,.T.);
#922=ORIENTED_EDGE('',*,*,#718,.T.);
#923=ORIENTED_EDGE('',*,*,#717,.F.);
#924=ORIENTED_EDGE('',*,*,#719,.F.);
#925=ORIENTED_EDGE('',*,*,#720,.T.);
#926=ORIENTED_EDGE('',*,*,#718,.F.);
#927=ORIENTED_EDGE('',*,*,#720,.F.);
#928=ORIENTED_EDGE('',*,*,#678,.T.);
#929=ORIENTED_EDGE('',*,*,#721,.T.);
#930=ORIENTED_EDGE('',*,*,#722,.T.);
#931=ORIENTED_EDGE('',*,*,#721,.F.);
#932=ORIENTED_EDGE('',*,*,#723,.F.);
#933=ORIENTED_EDGE('',*,*,#724,.T.);
#934=ORIENTED_EDGE('',*,*,#722,.F.);
#935=ORIENTED_EDGE('',*,*,#724,.F.);
#936=ORIENTED_EDGE('',*,*,#668,.T.);
#937=ORIENTED_EDGE('',*,*,#725,.T.);
#938=ORIENTED_EDGE('',*,*,#726,.T.);
#939=ORIENTED_EDGE('',*,*,#725,.F.);
#940=ORIENTED_EDGE('',*,*,#727,.F.);
#941=ORIENTED_EDGE('',*,*,#728,.T.);
#942=ORIENTED_EDGE('',*,*,#726,.F.);
#943=ORIENTED_EDGE('',*,*,#728,.F.);
#944=ORIENTED_EDGE('',*,*,#677,.T.);
#945=ORIENTED_EDGE('',*,*,#729,.T.);
#946=ORIENTED_EDGE('',*,*,#730,.T.);
#947=ORIENTED_EDGE('',*,*,#729,.F.);
#948=ORIENTED_EDGE('',*,*,#731,.F.);
#949=ORIENTED_EDGE('',*,*,#732,.T.);
#950=ORIENTED_EDGE('',*,*,#730,.F.);
#951=ORIENTED_EDGE('',*,*,#732,.F.);
#952=ORIENTED_EDGE('',*,*,#669,.T.);
#953=ORIENTED_EDGE('',*,*,#733,.T.);
#954=ORIENTED_EDGE('',*,*,#734,.T.);
#955=ORIENTED_EDGE('',*,*,#733,.F.);
#956=ORIENTED_EDGE('',*,*,#735,.F.);
#957=ORIENTED_EDGE('',*,*,#736,.T.);
#958=ORIENTED_EDGE('',*,*,#734,.F.);
#959=ORIENTED_EDGE('',*,*,#736,.F.);
#960=ORIENTED_EDGE('',*,*,#676,.T.);
#961=ORIENTED_EDGE('',*,*,#737,.T.);
#962=ORIENTED_EDGE('',*,*,#738,.T.);
#963=ORIENTED_EDGE('',*,*,#737,.F.);
#964=ORIENTED_EDGE('',*,*,#739,.F.);
#965=ORIENTED_EDGE('',*,*,#740,.T.);
#966=ORIENTED_EDGE('',*,*,#738,.F.);
#967=ORIENTED_EDGE('',*,*,#740,.F.);
#968=ORIENTED_EDGE('',*,*,#670,.T.);
#969=ORIENTED_EDGE('',*,*,#741,.T.);
#970=ORIENTED_EDGE('',*,*,#742,.T.);
#971=ORIENTED_EDGE('',*,*,#741,.F.);
#972=ORIENTED_EDGE('',*,*,#743,.F.);
#973=ORIENTED_EDGE('',*,*,#744,.T.);
#974=ORIENTED_EDGE('',*,*,#742,.F.);
#975=ORIENTED_EDGE('',*,*,#744,.F.);
#976=ORIENTED_EDGE('',*,*,#675,.T.);
#977=ORIENTED_EDGE('',*,*,#745,.T.);
#978=ORIENTED_EDGE('',*,*,#746,.T.);
#979=ORIENTED_EDGE('',*,*,#745,.F.);
#980=ORIENTED_EDGE('',*,*,#747,.F.);
#981=ORIENTED_EDGE('',*,*,#748,.T.);
#982=ORIENTED_EDGE('',*,*,#746,.F.);
#983=ORIENTED_EDGE('',*,*,#748,.F.);
#984=ORIENTED_EDGE('',*,*,#671,.T.);
#985=ORIENTED_EDGE('',*,*,#749,.T.);
#986=ORIENTED_EDGE('',*,*,#750,.T.);
#987=ORIENTED_EDGE('',*,*,#749,.F.);
#988=ORIENTED_EDGE('',*,*,#751,.F.);
#989=ORIENTED_EDGE('',*,*,#752,.T.);
#990=ORIENTED_EDGE('',*,*,#750,.F.);
#991=ORIENTED_EDGE('',*,*,#752,.F.);
#992=ORIENTED_EDGE('',*,*,#674,.T.);
#993=ORIENTED_EDGE('',*,*,#753,.T.);
#994=ORIENTED_EDGE('',*,*,#754,.T.);
#995=ORIENTED_EDGE('',*,*,#753,.F.);
#996=ORIENTED_EDGE('',*,*,#755,.F.);
#997=ORIENTED_EDGE('',*,*,#756,.T.);
#998=ORIENTED_EDGE('',*,*,#754,.F.);
#999=ORIENTED_EDGE('',*,*,#756,.F.);
#1000=ORIENTED_EDGE('',*,*,#672,.T.);
#1001=ORIENTED_EDGE('',*,*,#757,.T.);
#1002=ORIENTED_EDGE('',*,*,#758,.T.);
#1003=ORIENTED_EDGE('',*,*,#757,.F.);
#1004=ORIENTED_EDGE('',*,*,#759,.F.);
#1005=ORIENTED_EDGE('',*,*,#760,.T.);
#1006=ORIENTED_EDGE('',*,*,#758,.F.);
#1007=ORIENTED_EDGE('',*,*,#760,.F.);
#1008=ORIENTED_EDGE('',*,*,#761,.F.);
#1009=ORIENTED_EDGE('',*,*,#762,.T.);
#1010=ORIENTED_EDGE('',*,*,#673,.F.);
#1011=ORIENTED_EDGE('',*,*,#762,.F.);
#1012=ORIENTED_EDGE('',*,*,#763,.T.);
#1013=ORIENTED_EDGE('',*,*,#764,.T.);
#1014=ORIENTED_EDGE('',*,*,#765,.T.);
#1015=ORIENTED_EDGE('',*,*,#766,.T.);
#1016=ORIENTED_EDGE('',*,*,#767,.T.);
#1017=ORIENTED_EDGE('',*,*,#768,.T.);
#1018=ORIENTED_EDGE('',*,*,#751,.T.);
#1019=ORIENTED_EDGE('',*,*,#755,.T.);
#1020=ORIENTED_EDGE('',*,*,#759,.T.);
#1021=ORIENTED_EDGE('',*,*,#747,.T.);
#1022=ORIENTED_EDGE('',*,*,#743,.T.);
#1023=ORIENTED_EDGE('',*,*,#739,.T.);
#1024=ORIENTED_EDGE('',*,*,#727,.T.);
#1025=ORIENTED_EDGE('',*,*,#731,.T.);
#1026=ORIENTED_EDGE('',*,*,#735,.T.);
#1027=ORIENTED_EDGE('',*,*,#723,.T.);
#1028=ORIENTED_EDGE('',*,*,#715,.T.);
#1029=ORIENTED_EDGE('',*,*,#711,.T.);
#1030=ORIENTED_EDGE('',*,*,#707,.T.);
#1031=ORIENTED_EDGE('',*,*,#703,.T.);
#1032=ORIENTED_EDGE('',*,*,#687,.T.);
#1033=ORIENTED_EDGE('',*,*,#695,.T.);
#1034=ORIENTED_EDGE('',*,*,#699,.T.);
#1035=ORIENTED_EDGE('',*,*,#683,.T.);
#1036=ORIENTED_EDGE('',*,*,#691,.T.);
#1037=ORIENTED_EDGE('',*,*,#761,.T.);
#1038=ORIENTED_EDGE('',*,*,#719,.T.);
#1039=ORIENTED_EDGE('',*,*,#769,.T.);
#1040=ORIENTED_EDGE('',*,*,#770,.T.);
#1041=ORIENTED_EDGE('',*,*,#771,.T.);
#1042=ORIENTED_EDGE('',*,*,#772,.T.);
#1043=ORIENTED_EDGE('',*,*,#773,.T.);
#1044=ORIENTED_EDGE('',*,*,#774,.T.);
#1045=ORIENTED_EDGE('',*,*,#775,.F.);
#1046=ORIENTED_EDGE('',*,*,#776,.T.);
#1047=ORIENTED_EDGE('',*,*,#769,.F.);
#1048=ORIENTED_EDGE('',*,*,#776,.F.);
#1049=ORIENTED_EDGE('',*,*,#777,.F.);
#1050=ORIENTED_EDGE('',*,*,#778,.T.);
#1051=ORIENTED_EDGE('',*,*,#770,.F.);
#1052=ORIENTED_EDGE('',*,*,#778,.F.);
#1053=ORIENTED_EDGE('',*,*,#779,.F.);
#1054=ORIENTED_EDGE('',*,*,#780,.T.);
#1055=ORIENTED_EDGE('',*,*,#771,.F.);
#1056=ORIENTED_EDGE('',*,*,#780,.F.);
#1057=ORIENTED_EDGE('',*,*,#781,.F.);
#1058=ORIENTED_EDGE('',*,*,#782,.T.);
#1059=ORIENTED_EDGE('',*,*,#772,.F.);
#1060=ORIENTED_EDGE('',*,*,#782,.F.);
#1061=ORIENTED_EDGE('',*,*,#783,.F.);
#1062=ORIENTED_EDGE('',*,*,#784,.T.);
#1063=ORIENTED_EDGE('',*,*,#773,.F.);
#1064=ORIENTED_EDGE('',*,*,#784,.F.);
#1065=ORIENTED_EDGE('',*,*,#785,.F.);
#1066=ORIENTED_EDGE('',*,*,#786,.T.);
#1067=ORIENTED_EDGE('',*,*,#774,.F.);
#1068=ORIENTED_EDGE('',*,*,#786,.F.);
#1069=ORIENTED_EDGE('',*,*,#787,.T.);
#1070=ORIENTED_EDGE('',*,*,#788,.F.);
#1071=ORIENTED_EDGE('',*,*,#789,.T.);
#1072=ORIENTED_EDGE('',*,*,#790,.F.);
#1073=ORIENTED_EDGE('',*,*,#788,.T.);
#1074=ORIENTED_EDGE('',*,*,#791,.T.);
#1075=ORIENTED_EDGE('',*,*,#792,.T.);
#1076=ORIENTED_EDGE('',*,*,#793,.T.);
#1077=ORIENTED_EDGE('',*,*,#794,.T.);
#1078=ORIENTED_EDGE('',*,*,#795,.F.);
#1079=ORIENTED_EDGE('',*,*,#796,.T.);
#1080=ORIENTED_EDGE('',*,*,#797,.F.);
#1081=ORIENTED_EDGE('',*,*,#795,.T.);
#1082=ORIENTED_EDGE('',*,*,#798,.T.);
#1083=ORIENTED_EDGE('',*,*,#799,.T.);
#1084=ORIENTED_EDGE('',*,*,#800,.F.);
#1085=ORIENTED_EDGE('',*,*,#799,.F.);
#1086=ORIENTED_EDGE('',*,*,#801,.F.);
#1087=ORIENTED_EDGE('',*,*,#802,.F.);
#1088=ORIENTED_EDGE('',*,*,#803,.F.);
#1089=ORIENTED_EDGE('',*,*,#781,.T.);
#1090=ORIENTED_EDGE('',*,*,#783,.T.);
#1091=ORIENTED_EDGE('',*,*,#785,.T.);
#1092=ORIENTED_EDGE('',*,*,#803,.T.);
#1093=ORIENTED_EDGE('',*,*,#804,.T.);
#1094=ORIENTED_EDGE('',*,*,#805,.T.);
#1095=ORIENTED_EDGE('',*,*,#662,.T.);
#1096=ORIENTED_EDGE('',*,*,#806,.T.);
#1097=ORIENTED_EDGE('',*,*,#800,.T.);
#1098=ORIENTED_EDGE('',*,*,#790,.T.);
#1099=ORIENTED_EDGE('',*,*,#804,.F.);
#1100=ORIENTED_EDGE('',*,*,#802,.T.);
#1101=ORIENTED_EDGE('',*,*,#807,.F.);
#1102=ORIENTED_EDGE('',*,*,#808,.F.);
#1103=ORIENTED_EDGE('',*,*,#809,.F.);
#1104=ORIENTED_EDGE('',*,*,#810,.F.);
#1105=ORIENTED_EDGE('',*,*,#811,.F.);
#1106=ORIENTED_EDGE('',*,*,#812,.F.);
#1107=ORIENTED_EDGE('',*,*,#792,.F.);
#1108=ORIENTED_EDGE('',*,*,#775,.T.);
#1109=ORIENTED_EDGE('',*,*,#779,.T.);
#1110=ORIENTED_EDGE('',*,*,#777,.T.);
#1111=ORIENTED_EDGE('',*,*,#810,.T.);
#1112=ORIENTED_EDGE('',*,*,#813,.F.);
#1113=ORIENTED_EDGE('',*,*,#767,.F.);
#1114=ORIENTED_EDGE('',*,*,#814,.T.);
#1115=ORIENTED_EDGE('',*,*,#815,.T.);
#1116=ORIENTED_EDGE('',*,*,#809,.T.);
#1117=ORIENTED_EDGE('',*,*,#816,.F.);
#1118=ORIENTED_EDGE('',*,*,#768,.F.);
#1119=ORIENTED_EDGE('',*,*,#813,.T.);
#1120=ORIENTED_EDGE('',*,*,#808,.T.);
#1121=ORIENTED_EDGE('',*,*,#791,.F.);
#1122=ORIENTED_EDGE('',*,*,#817,.F.);
#1123=ORIENTED_EDGE('',*,*,#763,.F.);
#1124=ORIENTED_EDGE('',*,*,#816,.T.);
#1125=ORIENTED_EDGE('',*,*,#801,.T.);
#1126=ORIENTED_EDGE('',*,*,#798,.F.);
#1127=ORIENTED_EDGE('',*,*,#818,.F.);
#1128=ORIENTED_EDGE('',*,*,#765,.F.);
#1129=ORIENTED_EDGE('',*,*,#819,.T.);
#1130=ORIENTED_EDGE('',*,*,#807,.T.);
#1131=ORIENTED_EDGE('',*,*,#817,.T.);
#1132=ORIENTED_EDGE('',*,*,#787,.F.);
#1133=ORIENTED_EDGE('',*,*,#819,.F.);
#1134=ORIENTED_EDGE('',*,*,#764,.F.);
#1135=ORIENTED_EDGE('',*,*,#812,.T.);
#1136=ORIENTED_EDGE('',*,*,#820,.T.);
#1137=ORIENTED_EDGE('',*,*,#821,.T.);
#1138=ORIENTED_EDGE('',*,*,#660,.T.);
#1139=ORIENTED_EDGE('',*,*,#822,.F.);
#1140=ORIENTED_EDGE('',*,*,#793,.F.);
#1141=ORIENTED_EDGE('',*,*,#797,.T.);
#1142=ORIENTED_EDGE('',*,*,#820,.F.);
#1143=ORIENTED_EDGE('',*,*,#811,.T.);
#1144=ORIENTED_EDGE('',*,*,#815,.F.);
#1145=ORIENTED_EDGE('',*,*,#821,.F.);
#1146=ORIENTED_EDGE('',*,*,#796,.F.);
#1147=ORIENTED_EDGE('',*,*,#806,.F.);
#1148=ORIENTED_EDGE('',*,*,#661,.T.);
#1149=ORIENTED_EDGE('',*,*,#805,.F.);
#1150=ORIENTED_EDGE('',*,*,#789,.F.);
#1151=ORIENTED_EDGE('',*,*,#822,.T.);
#1152=ORIENTED_EDGE('',*,*,#659,.T.);
#1153=ORIENTED_EDGE('',*,*,#818,.T.);
#1154=ORIENTED_EDGE('',*,*,#794,.F.);
#1155=ORIENTED_EDGE('',*,*,#814,.F.);
#1156=ORIENTED_EDGE('',*,*,#766,.F.);
#1157=CONICAL_SURFACE('',#1258,5.4,0.785398163397449);
#1158=CONICAL_SURFACE('',#1286,5.4,0.785398163397449);
#1159=CONICAL_SURFACE('',#1290,5.4,0.785398163397448);
#1160=CONICAL_SURFACE('',#1294,5.4,0.785398163397448);
#1161=CONICAL_SURFACE('',#1298,5.4,0.785398163397448);
#1162=CONICAL_SURFACE('',#1302,5.4,0.785398163397448);
#1163=CONICAL_SURFACE('',#1306,5.4,0.785398163397448);
#1164=CONICAL_SURFACE('',#1310,5.4,0.785398163397449);
#1165=CONICAL_SURFACE('',#1314,5.4,0.785398163397448);
#1166=CONICAL_SURFACE('',#1318,5.4,0.785398163397448);
#1167=CONICAL_SURFACE('',#1322,5.4,0.785398163397449);
#1168=CONICAL_SURFACE('',#1326,5.4,0.785398163397449);
#1169=CONICAL_SURFACE('',#1330,5.4,0.785398163397448);
#1170=CONICAL_SURFACE('',#1334,5.4,0.785398163397448);
#1171=CONICAL_SURFACE('',#1338,5.4,0.785398163397448);
#1172=CONICAL_SURFACE('',#1342,5.4,0.785398163397448);
#1173=CONICAL_SURFACE('',#1346,5.4,0.785398163397449);
#1174=CONICAL_SURFACE('',#1350,5.4,0.785398163397449);
#1175=CONICAL_SURFACE('',#1354,5.4,0.785398163397448);
#1176=CONICAL_SURFACE('',#1358,5.4,0.785398163397448);
#1177=ADVANCED_FACE('',(#116),#1157,.F.);
#1178=ADVANCED_FACE('',(#117,#47,#48,#49,#50,#51,#52,#53,#54,#55,#56,#57,
#58,#59,#60,#61,#62,#63,#64,#65,#66,#67),#101,.T.);
#1179=ADVANCED_FACE('',(#118),#15,.F.);
#1180=ADVANCED_FACE('',(#119),#1158,.F.);
#1181=ADVANCED_FACE('',(#120),#16,.F.);
#1182=ADVANCED_FACE('',(#121),#1159,.F.);
#1183=ADVANCED_FACE('',(#122),#17,.F.);
#1184=ADVANCED_FACE('',(#123),#1160,.F.);
#1185=ADVANCED_FACE('',(#124),#18,.F.);
#1186=ADVANCED_FACE('',(#125),#1161,.F.);
#1187=ADVANCED_FACE('',(#126),#19,.F.);
#1188=ADVANCED_FACE('',(#127),#1162,.F.);
#1189=ADVANCED_FACE('',(#128),#20,.F.);
#1190=ADVANCED_FACE('',(#129),#1163,.F.);
#1191=ADVANCED_FACE('',(#130),#21,.F.);
#1192=ADVANCED_FACE('',(#131),#1164,.F.);
#1193=ADVANCED_FACE('',(#132),#22,.F.);
#1194=ADVANCED_FACE('',(#133),#1165,.F.);
#1195=ADVANCED_FACE('',(#134),#23,.F.);
#1196=ADVANCED_FACE('',(#135),#1166,.F.);
#1197=ADVANCED_FACE('',(#136),#24,.F.);
#1198=ADVANCED_FACE('',(#137),#1167,.F.);
#1199=ADVANCED_FACE('',(#138),#25,.F.);
#1200=ADVANCED_FACE('',(#139),#1168,.F.);
#1201=ADVANCED_FACE('',(#140),#26,.F.);
#1202=ADVANCED_FACE('',(#141),#1169,.F.);
#1203=ADVANCED_FACE('',(#142),#27,.F.);
#1204=ADVANCED_FACE('',(#143),#1170,.F.);
#1205=ADVANCED_FACE('',(#144),#28,.F.);
#1206=ADVANCED_FACE('',(#145),#1171,.F.);
#1207=ADVANCED_FACE('',(#146),#29,.F.);
#1208=ADVANCED_FACE('',(#147),#1172,.F.);
#1209=ADVANCED_FACE('',(#148),#30,.F.);
#1210=ADVANCED_FACE('',(#149),#1173,.F.);
#1211=ADVANCED_FACE('',(#150),#31,.F.);
#1212=ADVANCED_FACE('',(#151),#1174,.F.);
#1213=ADVANCED_FACE('',(#152),#32,.F.);
#1214=ADVANCED_FACE('',(#153),#1175,.F.);
#1215=ADVANCED_FACE('',(#154),#33,.F.);
#1216=ADVANCED_FACE('',(#155),#1176,.F.);
#1217=ADVANCED_FACE('',(#156),#34,.F.);
#1218=ADVANCED_FACE('',(#157),#35,.F.);
#1219=ADVANCED_FACE('',(#158,#68,#69,#70,#71,#72,#73,#74,#75,#76,#77,#78,
#79,#80,#81,#82,#83,#84,#85,#86,#87,#88,#89,#90,#91,#92,#93,#94),#102,.T.);
#1220=ADVANCED_FACE('',(#159),#36,.F.);
#1221=ADVANCED_FACE('',(#160),#37,.F.);
#1222=ADVANCED_FACE('',(#161),#38,.F.);
#1223=ADVANCED_FACE('',(#162),#39,.F.);
#1224=ADVANCED_FACE('',(#163),#40,.F.);
#1225=ADVANCED_FACE('',(#164),#41,.F.);
#1226=ADVANCED_FACE('',(#165),#103,.T.);
#1227=ADVANCED_FACE('',(#166),#104,.T.);
#1228=ADVANCED_FACE('',(#167),#105,.T.);
#1229=ADVANCED_FACE('',(#168),#106,.T.);
#1230=ADVANCED_FACE('',(#169,#95,#96,#97),#107,.T.);
#1231=ADVANCED_FACE('',(#170),#42,.F.);
#1232=ADVANCED_FACE('',(#171),#108,.T.);
#1233=ADVANCED_FACE('',(#172,#98,#99,#100),#109,.T.);
#1234=ADVANCED_FACE('',(#173),#43,.T.);
#1235=ADVANCED_FACE('',(#174),#110,.T.);
#1236=ADVANCED_FACE('',(#175),#44,.T.);
#1237=ADVANCED_FACE('',(#176),#45,.T.);
#1238=ADVANCED_FACE('',(#177),#111,.T.);
#1239=ADVANCED_FACE('',(#178),#46,.F.);
#1240=ADVANCED_FACE('',(#179),#112,.T.);
#1241=ADVANCED_FACE('',(#180),#113,.T.);
#1242=ADVANCED_FACE('',(#181),#114,.T.);
#1243=ADVANCED_FACE('',(#182),#115,.T.);
#1244=CLOSED_SHELL('',(#1177,#1178,#1179,#1180,#1181,#1182,#1183,#1184,
#1185,#1186,#1187,#1188,#1189,#1190,#1191,#1192,#1193,#1194,#1195,#1196,
#1197,#1198,#1199,#1200,#1201,#1202,#1203,#1204,#1205,#1206,#1207,#1208,
#1209,#1210,#1211,#1212,#1213,#1214,#1215,#1216,#1217,#1218,#1219,#1220,
#1221,#1222,#1223,#1224,#1225,#1226,#1227,#1228,#1229,#1230,#1231,#1232,
#1233,#1234,#1235,#1236,#1237,#1238,#1239,#1240,#1241,#1242,#1243));
#1245=DERIVED_UNIT_ELEMENT(#1247,1.);
#1246=DERIVED_UNIT_ELEMENT(#2138,-3.);
#1247=(
MASS_UNIT()
NAMED_UNIT(*)
SI_UNIT(.KILO.,.GRAM.)
);
#1248=DERIVED_UNIT((#1245,#1246));
#1249=MEASURE_REPRESENTATION_ITEM('density measure',
POSITIVE_RATIO_MEASURE(7850.),#1248);
#1250=PROPERTY_DEFINITION_REPRESENTATION(#1255,#1252);
#1251=PROPERTY_DEFINITION_REPRESENTATION(#1256,#1253);
#1252=REPRESENTATION('material name',(#1254),#2135);
#1253=REPRESENTATION('density',(#1249),#2135);
#1254=DESCRIPTIVE_REPRESENTATION_ITEM('Steel','Steel');
#1255=PROPERTY_DEFINITION('material property','material name',#2145);
#1256=PROPERTY_DEFINITION('material property','density of part',#2145);
#1257=AXIS2_PLACEMENT_3D('',#1796,#1409,#1410);
#1258=AXIS2_PLACEMENT_3D('',#1797,#1411,#1412);
#1259=AXIS2_PLACEMENT_3D('',#1799,#1413,#1414);
#1260=AXIS2_PLACEMENT_3D('',#1802,#1416,#1417);
#1261=AXIS2_PLACEMENT_3D('',#1803,#1418,#1419);
#1262=AXIS2_PLACEMENT_3D('',#1808,#1421,#1422);
#1263=AXIS2_PLACEMENT_3D('',#1811,#1424,#1425);
#1264=AXIS2_PLACEMENT_3D('',#1813,#1426,#1427);
#1265=AXIS2_PLACEMENT_3D('',#1815,#1428,#1429);
#1266=AXIS2_PLACEMENT_3D('',#1817,#1430,#1431);
#1267=AXIS2_PLACEMENT_3D('',#1819,#1432,#1433);
#1268=AXIS2_PLACEMENT_3D('',#1821,#1434,#1435);
#1269=AXIS2_PLACEMENT_3D('',#1823,#1436,#1437);
#1270=AXIS2_PLACEMENT_3D('',#1825,#1438,#1439);
#1271=AXIS2_PLACEMENT_3D('',#1827,#1440,#1441);
#1272=AXIS2_PLACEMENT_3D('',#1829,#1442,#1443);
#1273=AXIS2_PLACEMENT_3D('',#1831,#1444,#1445);
#1274=AXIS2_PLACEMENT_3D('',#1833,#1446,#1447);
#1275=AXIS2_PLACEMENT_3D('',#1835,#1448,#1449);
#1276=AXIS2_PLACEMENT_3D('',#1837,#1450,#1451);
#1277=AXIS2_PLACEMENT_3D('',#1839,#1452,#1453);
#1278=AXIS2_PLACEMENT_3D('',#1841,#1454,#1455);
#1279=AXIS2_PLACEMENT_3D('',#1843,#1456,#1457);
#1280=AXIS2_PLACEMENT_3D('',#1845,#1458,#1459);
#1281=AXIS2_PLACEMENT_3D('',#1847,#1460,#1461);
#1282=AXIS2_PLACEMENT_3D('',#1849,#1462,#1463);
#1283=AXIS2_PLACEMENT_3D('',#1851,#1464,#1465);
#1284=AXIS2_PLACEMENT_3D('',#1852,#1466,#1467);
#1285=AXIS2_PLACEMENT_3D('',#1854,#1468,#1469);
#1286=AXIS2_PLACEMENT_3D('',#1856,#1471,#1472);
#1287=AXIS2_PLACEMENT_3D('',#1859,#1474,#1475);
#1288=AXIS2_PLACEMENT_3D('',#1860,#1476,#1477);
#1289=AXIS2_PLACEMENT_3D('',#1862,#1478,#1479);
#1290=AXIS2_PLACEMENT_3D('',#1864,#1481,#1482);
#1291=AXIS2_PLACEMENT_3D('',#1867,#1484,#1485);
#1292=AXIS2_PLACEMENT_3D('',#1868,#1486,#1487);
#1293=AXIS2_PLACEMENT_3D('',#1870,#1488,#1489);
#1294=AXIS2_PLACEMENT_3D('',#1872,#1491,#1492);
#1295=AXIS2_PLACEMENT_3D('',#1875,#1494,#1495);
#1296=AXIS2_PLACEMENT_3D('',#1876,#1496,#1497);
#1297=AXIS2_PLACEMENT_3D('',#1878,#1498,#1499);
#1298=AXIS2_PLACEMENT_3D('',#1880,#1501,#1502);
#1299=AXIS2_PLACEMENT_3D('',#1883,#1504,#1505);
#1300=AXIS2_PLACEMENT_3D('',#1884,#1506,#1507);
#1301=AXIS2_PLACEMENT_3D('',#1886,#1508,#1509);
#1302=AXIS2_PLACEMENT_3D('',#1888,#1511,#1512);
#1303=AXIS2_PLACEMENT_3D('',#1891,#1514,#1515);
#1304=AXIS2_PLACEMENT_3D('',#1892,#1516,#1517);
#1305=AXIS2_PLACEMENT_3D('',#1894,#1518,#1519);
#1306=AXIS2_PLACEMENT_3D('',#1896,#1521,#1522);
#1307=AXIS2_PLACEMENT_3D('',#1899,#1524,#1525);
#1308=AXIS2_PLACEMENT_3D('',#1900,#1526,#1527);
#1309=AXIS2_PLACEMENT_3D('',#1902,#1528,#1529);
#1310=AXIS2_PLACEMENT_3D('',#1904,#1531,#1532);
#1311=AXIS2_PLACEMENT_3D('',#1907,#1534,#1535);
#1312=AXIS2_PLACEMENT_3D('',#1908,#1536,#1537);
#1313=AXIS2_PLACEMENT_3D('',#1910,#1538,#1539);
#1314=AXIS2_PLACEMENT_3D('',#1912,#1541,#1542);
#1315=AXIS2_PLACEMENT_3D('',#1915,#1544,#1545);
#1316=AXIS2_PLACEMENT_3D('',#1916,#1546,#1547);
#1317=AXIS2_PLACEMENT_3D('',#1918,#1548,#1549);
#1318=AXIS2_PLACEMENT_3D('',#1920,#1551,#1552);
#1319=AXIS2_PLACEMENT_3D('',#1923,#1554,#1555);
#1320=AXIS2_PLACEMENT_3D('',#1924,#1556,#1557);
#1321=AXIS2_PLACEMENT_3D('',#1926,#1558,#1559);
#1322=AXIS2_PLACEMENT_3D('',#1928,#1561,#1562);
#1323=AXIS2_PLACEMENT_3D('',#1931,#1564,#1565);
#1324=AXIS2_PLACEMENT_3D('',#1932,#1566,#1567);
#1325=AXIS2_PLACEMENT_3D('',#1934,#1568,#1569);
#1326=AXIS2_PLACEMENT_3D('',#1936,#1571,#1572);
#1327=AXIS2_PLACEMENT_3D('',#1939,#1574,#1575);
#1328=AXIS2_PLACEMENT_3D('',#1940,#1576,#1577);
#1329=AXIS2_PLACEMENT_3D('',#1942,#1578,#1579);
#1330=AXIS2_PLACEMENT_3D('',#1944,#1581,#1582);
#1331=AXIS2_PLACEMENT_3D('',#1947,#1584,#1585);
#1332=AXIS2_PLACEMENT_3D('',#1948,#1586,#1587);
#1333=AXIS2_PLACEMENT_3D('',#1950,#1588,#1589);
#1334=AXIS2_PLACEMENT_3D('',#1952,#1591,#1592);
#1335=AXIS2_PLACEMENT_3D('',#1955,#1594,#1595);
#1336=AXIS2_PLACEMENT_3D('',#1956,#1596,#1597);
#1337=AXIS2_PLACEMENT_3D('',#1958,#1598,#1599);
#1338=AXIS2_PLACEMENT_3D('',#1960,#1601,#1602);
#1339=AXIS2_PLACEMENT_3D('',#1963,#1604,#1605);
#1340=AXIS2_PLACEMENT_3D('',#1964,#1606,#1607);
#1341=AXIS2_PLACEMENT_3D('',#1966,#1608,#1609);
#1342=AXIS2_PLACEMENT_3D('',#1968,#1611,#1612);
#1343=AXIS2_PLACEMENT_3D('',#1971,#1614,#1615);
#1344=AXIS2_PLACEMENT_3D('',#1972,#1616,#1617);
#1345=AXIS2_PLACEMENT_3D('',#1974,#1618,#1619);
#1346=AXIS2_PLACEMENT_3D('',#1976,#1621,#1622);
#1347=AXIS2_PLACEMENT_3D('',#1979,#1624,#1625);
#1348=AXIS2_PLACEMENT_3D('',#1980,#1626,#1627);
#1349=AXIS2_PLACEMENT_3D('',#1982,#1628,#1629);
#1350=AXIS2_PLACEMENT_3D('',#1984,#1631,#1632);
#1351=AXIS2_PLACEMENT_3D('',#1987,#1634,#1635);
#1352=AXIS2_PLACEMENT_3D('',#1988,#1636,#1637);
#1353=AXIS2_PLACEMENT_3D('',#1990,#1638,#1639);
#1354=AXIS2_PLACEMENT_3D('',#1992,#1641,#1642);
#1355=AXIS2_PLACEMENT_3D('',#1995,#1644,#1645);
#1356=AXIS2_PLACEMENT_3D('',#1996,#1646,#1647);
#1357=AXIS2_PLACEMENT_3D('',#1998,#1648,#1649);
#1358=AXIS2_PLACEMENT_3D('',#2000,#1651,#1652);
#1359=AXIS2_PLACEMENT_3D('',#2003,#1654,#1655);
#1360=AXIS2_PLACEMENT_3D('',#2004,#1656,#1657);
#1361=AXIS2_PLACEMENT_3D('',#2006,#1658,#1659);
#1362=AXIS2_PLACEMENT_3D('',#2008,#1661,#1662);
#1363=AXIS2_PLACEMENT_3D('',#2010,#1663,#1664);
#1364=AXIS2_PLACEMENT_3D('',#2012,#1666,#1667);
#1365=AXIS2_PLACEMENT_3D('',#2015,#1668,#1669);
#1366=AXIS2_PLACEMENT_3D('',#2019,#1671,#1672);
#1367=AXIS2_PLACEMENT_3D('',#2023,#1674,#1675);
#1368=AXIS2_PLACEMENT_3D('',#2026,#1677,#1678);
#1369=AXIS2_PLACEMENT_3D('',#2028,#1679,#1680);
#1370=AXIS2_PLACEMENT_3D('',#2030,#1681,#1682);
#1371=AXIS2_PLACEMENT_3D('',#2032,#1683,#1684);
#1372=AXIS2_PLACEMENT_3D('',#2034,#1685,#1686);
#1373=AXIS2_PLACEMENT_3D('',#2036,#1687,#1688);
#1374=AXIS2_PLACEMENT_3D('',#2037,#1689,#1690);
#1375=AXIS2_PLACEMENT_3D('',#2039,#1691,#1692);
#1376=AXIS2_PLACEMENT_3D('',#2041,#1694,#1695);
#1377=AXIS2_PLACEMENT_3D('',#2043,#1696,#1697);
#1378=AXIS2_PLACEMENT_3D('',#2045,#1699,#1700);
#1379=AXIS2_PLACEMENT_3D('',#2047,#1701,#1702);
#1380=AXIS2_PLACEMENT_3D('',#2049,#1704,#1705);
#1381=AXIS2_PLACEMENT_3D('',#2051,#1706,#1707);
#1382=AXIS2_PLACEMENT_3D('',#2053,#1709,#1710);
#1383=AXIS2_PLACEMENT_3D('',#2055,#1711,#1712);
#1384=AXIS2_PLACEMENT_3D('',#2057,#1714,#1715);
#1385=AXIS2_PLACEMENT_3D('',#2059,#1716,#1717);
#1386=AXIS2_PLACEMENT_3D('',#2061,#1719,#1720);
#1387=AXIS2_PLACEMENT_3D('',#2070,#1725,#1726);
#1388=AXIS2_PLACEMENT_3D('',#2076,#1730,#1731);
#1389=AXIS2_PLACEMENT_3D('',#2085,#1736,#1737);
#1390=AXIS2_PLACEMENT_3D('',#2091,#1741,#1742);
#1391=AXIS2_PLACEMENT_3D('',#2093,#1743,#1744);
#1392=AXIS2_PLACEMENT_3D('',#2096,#1746,#1747);
#1393=AXIS2_PLACEMENT_3D('',#2097,#1748,#1749);
#1394=AXIS2_PLACEMENT_3D('',#2101,#1753,#1754);
#1395=AXIS2_PLACEMENT_3D('',#2103,#1756,#1757);
#1396=AXIS2_PLACEMENT_3D('',#2105,#1758,#1759);
#1397=AXIS2_PLACEMENT_3D('',#2109,#1761,#1762);
#1398=AXIS2_PLACEMENT_3D('',#2112,#1764,#1765);
#1399=AXIS2_PLACEMENT_3D('',#2113,#1766,#1767);
#1400=AXIS2_PLACEMENT_3D('',#2117,#1771,#1772);
#1401=AXIS2_PLACEMENT_3D('',#2119,#1774,#1775);
#1402=AXIS2_PLACEMENT_3D('',#2121,#1777,#1778);
#1403=AXIS2_PLACEMENT_3D('',#2124,#1781,#1782);
#1404=AXIS2_PLACEMENT_3D('',#2125,#1783,#1784);
#1405=AXIS2_PLACEMENT_3D('',#2129,#1788,#1789);
#1406=AXIS2_PLACEMENT_3D('',#2130,#1790,#1791);
#1407=AXIS2_PLACEMENT_3D('',#2131,#1792,#1793);
#1408=AXIS2_PLACEMENT_3D('',#2132,#1794,#1795);
#1409=DIRECTION('axis',(0.,0.,1.));
#1410=DIRECTION('refdir',(1.,0.,0.));
#1411=DIRECTION('center_axis',(0.,0.,1.));
#1412=DIRECTION('ref_axis',(1.,0.,0.));
#1413=DIRECTION('center_axis',(0.,0.,1.));
#1414=DIRECTION('ref_axis',(1.,0.,0.));
#1415=DIRECTION('',(0.707106781186548,8.65956056235494E-17,-0.707106781186547));
#1416=DIRECTION('center_axis',(0.,0.,-1.));
#1417=DIRECTION('ref_axis',(1.,0.,0.));
#1418=DIRECTION('center_axis',(0.,0.,1.));
#1419=DIRECTION('ref_axis',(1.,0.,0.));
#1420=DIRECTION('',(0.,1.,0.));
#1421=DIRECTION('center_axis',(0.,0.,-1.));
#1422=DIRECTION('ref_axis',(-1.,0.,0.));
#1423=DIRECTION('',(0.,-1.,0.));
#1424=DIRECTION('center_axis',(0.,0.,-1.));
#1425=DIRECTION('ref_axis',(1.,0.,0.));
#1426=DIRECTION('center_axis',(0.,0.,1.));
#1427=DIRECTION('ref_axis',(1.,0.,0.));
#1428=DIRECTION('center_axis',(0.,0.,1.));
#1429=DIRECTION('ref_axis',(1.,0.,0.));
#1430=DIRECTION('center_axis',(0.,0.,1.));
#1431=DIRECTION('ref_axis',(1.,0.,0.));
#1432=DIRECTION('center_axis',(0.,0.,1.));
#1433=DIRECTION('ref_axis',(1.,0.,0.));
#1434=DIRECTION('center_axis',(0.,0.,1.));
#1435=DIRECTION('ref_axis',(1.,0.,0.));
#1436=DIRECTION('center_axis',(0.,0.,1.));
#1437=DIRECTION('ref_axis',(1.,0.,0.));
#1438=DIRECTION('center_axis',(0.,0.,1.));
#1439=DIRECTION('ref_axis',(1.,0.,0.));
#1440=DIRECTION('center_axis',(0.,0.,1.));
#1441=DIRECTION('ref_axis',(1.,0.,0.));
#1442=DIRECTION('center_axis',(0.,0.,1.));
#1443=DIRECTION('ref_axis',(1.,0.,0.));
#1444=DIRECTION('center_axis',(0.,0.,1.));
#1445=DIRECTION('ref_axis',(1.,0.,0.));
#1446=DIRECTION('center_axis',(0.,0.,-1.));
#1447=DIRECTION('ref_axis',(1.,0.,0.));
#1448=DIRECTION('center_axis',(0.,0.,1.));
#1449=DIRECTION('ref_axis',(1.,0.,0.));
#1450=DIRECTION('center_axis',(0.,0.,1.));
#1451=DIRECTION('ref_axis',(1.,0.,0.));
#1452=DIRECTION('center_axis',(0.,0.,1.));
#1453=DIRECTION('ref_axis',(1.,0.,0.));
#1454=DIRECTION('center_axis',(0.,0.,1.));
#1455=DIRECTION('ref_axis',(1.,0.,0.));
#1456=DIRECTION('center_axis',(0.,0.,1.));
#1457=DIRECTION('ref_axis',(1.,0.,0.));
#1458=DIRECTION('center_axis',(0.,0.,1.));
#1459=DIRECTION('ref_axis',(1.,0.,0.));
#1460=DIRECTION('center_axis',(0.,0.,1.));
#1461=DIRECTION('ref_axis',(1.,0.,0.));
#1462=DIRECTION('center_axis',(0.,0.,1.));
#1463=DIRECTION('ref_axis',(1.,0.,0.));
#1464=DIRECTION('center_axis',(0.,0.,1.));
#1465=DIRECTION('ref_axis',(1.,0.,0.));
#1466=DIRECTION('center_axis',(0.,0.,1.));
#1467=DIRECTION('ref_axis',(1.,0.,0.));
#1468=DIRECTION('center_axis',(0.,0.,1.));
#1469=DIRECTION('ref_axis',(1.,0.,0.));
#1470=DIRECTION('',(0.,0.,1.));
#1471=DIRECTION('center_axis',(0.,0.,1.));
#1472=DIRECTION('ref_axis',(1.,0.,0.));
#1473=DIRECTION('',(0.707106781186548,8.65956056235494E-17,-0.707106781186547));
#1474=DIRECTION('center_axis',(0.,0.,-1.));
#1475=DIRECTION('ref_axis',(1.,0.,0.));
#1476=DIRECTION('center_axis',(0.,0.,1.));
#1477=DIRECTION('ref_axis',(1.,0.,0.));
#1478=DIRECTION('center_axis',(0.,0.,1.));
#1479=DIRECTION('ref_axis',(1.,0.,0.));
#1480=DIRECTION('',(0.,0.,1.));
#1481=DIRECTION('center_axis',(0.,0.,1.));
#1482=DIRECTION('ref_axis',(1.,0.,0.));
#1483=DIRECTION('',(0.707106781186548,8.65956056235493E-17,-0.707106781186548));
#1484=DIRECTION('center_axis',(0.,0.,-1.));
#1485=DIRECTION('ref_axis',(1.,0.,0.));
#1486=DIRECTION('center_axis',(0.,0.,1.));
#1487=DIRECTION('ref_axis',(1.,0.,0.));
#1488=DIRECTION('center_axis',(0.,0.,1.));
#1489=DIRECTION('ref_axis',(1.,0.,0.));
#1490=DIRECTION('',(0.,0.,1.));
#1491=DIRECTION('center_axis',(0.,0.,1.));
#1492=DIRECTION('ref_axis',(1.,0.,0.));
#1493=DIRECTION('',(0.707106781186548,8.65956056235493E-17,-0.707106781186548));
#1494=DIRECTION('center_axis',(0.,0.,-1.));
#1495=DIRECTION('ref_axis',(1.,0.,0.));
#1496=DIRECTION('center_axis',(0.,0.,1.));
#1497=DIRECTION('ref_axis',(1.,0.,0.));
#1498=DIRECTION('center_axis',(0.,0.,1.));
#1499=DIRECTION('ref_axis',(1.,0.,0.));
#1500=DIRECTION('',(0.,0.,1.));
#1501=DIRECTION('center_axis',(0.,0.,1.));
#1502=DIRECTION('ref_axis',(1.,0.,0.));
#1503=DIRECTION('',(0.707106781186548,8.65956056235493E-17,-0.707106781186548));
#1504=DIRECTION('center_axis',(0.,0.,-1.));
#1505=DIRECTION('ref_axis',(1.,0.,0.));
#1506=DIRECTION('center_axis',(0.,0.,1.));
#1507=DIRECTION('ref_axis',(1.,0.,0.));
#1508=DIRECTION('center_axis',(0.,0.,1.));
#1509=DIRECTION('ref_axis',(1.,0.,0.));
#1510=DIRECTION('',(0.,0.,1.));
#1511=DIRECTION('center_axis',(0.,0.,1.));
#1512=DIRECTION('ref_axis',(1.,0.,0.));
#1513=DIRECTION('',(0.707106781186547,8.65956056235493E-17,-0.707106781186547));
#1514=DIRECTION('center_axis',(0.,0.,-1.));
#1515=DIRECTION('ref_axis',(1.,0.,0.));
#1516=DIRECTION('center_axis',(0.,0.,1.));
#1517=DIRECTION('ref_axis',(1.,0.,0.));
#1518=DIRECTION('center_axis',(0.,0.,1.));
#1519=DIRECTION('ref_axis',(1.,0.,0.));
#1520=DIRECTION('',(0.,0.,1.));
#1521=DIRECTION('center_axis',(0.,0.,1.));
#1522=DIRECTION('ref_axis',(1.,0.,0.));
#1523=DIRECTION('',(0.707106781186547,8.65956056235493E-17,-0.707106781186547));
#1524=DIRECTION('center_axis',(0.,0.,-1.));
#1525=DIRECTION('ref_axis',(1.,0.,0.));
#1526=DIRECTION('center_axis',(0.,0.,1.));
#1527=DIRECTION('ref_axis',(1.,0.,0.));
#1528=DIRECTION('center_axis',(0.,0.,1.));
#1529=DIRECTION('ref_axis',(1.,0.,0.));
#1530=DIRECTION('',(0.,0.,1.));
#1531=DIRECTION('center_axis',(0.,0.,1.));
#1532=DIRECTION('ref_axis',(1.,0.,0.));
#1533=DIRECTION('',(0.707106781186548,8.65956056235494E-17,-0.707106781186547));
#1534=DIRECTION('center_axis',(0.,0.,-1.));
#1535=DIRECTION('ref_axis',(1.,0.,0.));
#1536=DIRECTION('center_axis',(0.,0.,1.));
#1537=DIRECTION('ref_axis',(1.,0.,0.));
#1538=DIRECTION('center_axis',(0.,0.,1.));
#1539=DIRECTION('ref_axis',(1.,0.,0.));
#1540=DIRECTION('',(0.,0.,1.));
#1541=DIRECTION('center_axis',(0.,0.,1.));
#1542=DIRECTION('ref_axis',(1.,0.,0.));
#1543=DIRECTION('',(0.707106781186547,8.65956056235493E-17,-0.707106781186547));
#1544=DIRECTION('center_axis',(0.,0.,-1.));
#1545=DIRECTION('ref_axis',(1.,0.,0.));
#1546=DIRECTION('center_axis',(0.,0.,1.));
#1547=DIRECTION('ref_axis',(1.,0.,0.));
#1548=DIRECTION('center_axis',(0.,0.,1.));
#1549=DIRECTION('ref_axis',(1.,0.,0.));
#1550=DIRECTION('',(0.,0.,1.));
#1551=DIRECTION('center_axis',(0.,0.,1.));
#1552=DIRECTION('ref_axis',(1.,0.,0.));
#1553=DIRECTION('',(0.707106781186547,8.65956056235493E-17,-0.707106781186547));
#1554=DIRECTION('center_axis',(0.,0.,-1.));
#1555=DIRECTION('ref_axis',(1.,0.,0.));
#1556=DIRECTION('center_axis',(0.,0.,1.));
#1557=DIRECTION('ref_axis',(1.,0.,0.));
#1558=DIRECTION('center_axis',(0.,0.,1.));
#1559=DIRECTION('ref_axis',(1.,0.,0.));
#1560=DIRECTION('',(0.,0.,1.));
#1561=DIRECTION('center_axis',(0.,0.,1.));
#1562=DIRECTION('ref_axis',(1.,0.,0.));
#1563=DIRECTION('',(0.707106781186548,8.65956056235494E-17,-0.707106781186547));
#1564=DIRECTION('center_axis',(0.,0.,-1.));
#1565=DIRECTION('ref_axis',(1.,0.,0.));
#1566=DIRECTION('center_axis',(0.,0.,1.));
#1567=DIRECTION('ref_axis',(1.,0.,0.));
#1568=DIRECTION('center_axis',(0.,0.,1.));
#1569=DIRECTION('ref_axis',(1.,0.,0.));
#1570=DIRECTION('',(0.,0.,1.));
#1571=DIRECTION('center_axis',(0.,0.,1.));
#1572=DIRECTION('ref_axis',(1.,0.,0.));
#1573=DIRECTION('',(0.707106781186548,8.65956056235494E-17,-0.707106781186547));
#1574=DIRECTION('center_axis',(0.,0.,-1.));
#1575=DIRECTION('ref_axis',(1.,0.,0.));
#1576=DIRECTION('center_axis',(0.,0.,1.));
#1577=DIRECTION('ref_axis',(1.,0.,0.));
#1578=DIRECTION('center_axis',(0.,0.,1.));
#1579=DIRECTION('ref_axis',(1.,0.,0.));
#1580=DIRECTION('',(0.,0.,1.));
#1581=DIRECTION('center_axis',(0.,0.,1.));
#1582=DIRECTION('ref_axis',(1.,0.,0.));
#1583=DIRECTION('',(0.707106781186547,8.65956056235493E-17,-0.707106781186547));
#1584=DIRECTION('center_axis',(0.,0.,-1.));
#1585=DIRECTION('ref_axis',(1.,0.,0.));
#1586=DIRECTION('center_axis',(0.,0.,1.));
#1587=DIRECTION('ref_axis',(1.,0.,0.));
#1588=DIRECTION('center_axis',(0.,0.,1.));
#1589=DIRECTION('ref_axis',(1.,0.,0.));
#1590=DIRECTION('',(0.,0.,1.));
#1591=DIRECTION('center_axis',(0.,0.,1.));
#1592=DIRECTION('ref_axis',(1.,0.,0.));
#1593=DIRECTION('',(0.707106781186547,8.65956056235493E-17,-0.707106781186547));
#1594=DIRECTION('center_axis',(0.,0.,-1.));
#1595=DIRECTION('ref_axis',(1.,0.,0.));
#1596=DIRECTION('center_axis',(0.,0.,1.));
#1597=DIRECTION('ref_axis',(1.,0.,0.));
#1598=DIRECTION('center_axis',(0.,0.,1.));
#1599=DIRECTION('ref_axis',(1.,0.,0.));
#1600=DIRECTION('',(0.,0.,1.));
#1601=DIRECTION('center_axis',(0.,0.,1.));
#1602=DIRECTION('ref_axis',(1.,0.,0.));
#1603=DIRECTION('',(0.707106781186548,8.65956056235493E-17,-0.707106781186548));
#1604=DIRECTION('center_axis',(0.,0.,-1.));
#1605=DIRECTION('ref_axis',(1.,0.,0.));
#1606=DIRECTION('center_axis',(0.,0.,1.));
#1607=DIRECTION('ref_axis',(1.,0.,0.));
#1608=DIRECTION('center_axis',(0.,0.,1.));
#1609=DIRECTION('ref_axis',(1.,0.,0.));
#1610=DIRECTION('',(0.,0.,1.));
#1611=DIRECTION('center_axis',(0.,0.,1.));
#1612=DIRECTION('ref_axis',(1.,0.,0.));
#1613=DIRECTION('',(0.707106781186548,8.65956056235493E-17,-0.707106781186548));
#1614=DIRECTION('center_axis',(0.,0.,-1.));
#1615=DIRECTION('ref_axis',(1.,0.,0.));
#1616=DIRECTION('center_axis',(0.,0.,1.));
#1617=DIRECTION('ref_axis',(1.,0.,0.));
#1618=DIRECTION('center_axis',(0.,0.,1.));
#1619=DIRECTION('ref_axis',(1.,0.,0.));
#1620=DIRECTION('',(0.,0.,1.));
#1621=DIRECTION('center_axis',(0.,0.,1.));
#1622=DIRECTION('ref_axis',(1.,0.,0.));
#1623=DIRECTION('',(0.707106781186548,8.65956056235494E-17,-0.707106781186547));
#1624=DIRECTION('center_axis',(0.,0.,-1.));
#1625=DIRECTION('ref_axis',(1.,0.,0.));
#1626=DIRECTION('center_axis',(0.,0.,1.));
#1627=DIRECTION('ref_axis',(1.,0.,0.));
#1628=DIRECTION('center_axis',(0.,0.,1.));
#1629=DIRECTION('ref_axis',(1.,0.,0.));
#1630=DIRECTION('',(0.,0.,1.));
#1631=DIRECTION('center_axis',(0.,0.,1.));
#1632=DIRECTION('ref_axis',(1.,0.,0.));
#1633=DIRECTION('',(0.707106781186548,8.65956056235494E-17,-0.707106781186547));
#1634=DIRECTION('center_axis',(0.,0.,-1.));
#1635=DIRECTION('ref_axis',(1.,0.,0.));
#1636=DIRECTION('center_axis',(0.,0.,1.));
#1637=DIRECTION('ref_axis',(1.,0.,0.));
#1638=DIRECTION('center_axis',(0.,0.,1.));
#1639=DIRECTION('ref_axis',(1.,0.,0.));
#1640=DIRECTION('',(0.,0.,1.));
#1641=DIRECTION('center_axis',(0.,0.,1.));
#1642=DIRECTION('ref_axis',(1.,0.,0.));
#1643=DIRECTION('',(0.707106781186548,8.65956056235493E-17,-0.707106781186548));
#1644=DIRECTION('center_axis',(0.,0.,-1.));
#1645=DIRECTION('ref_axis',(1.,0.,0.));
#1646=DIRECTION('center_axis',(0.,0.,1.));
#1647=DIRECTION('ref_axis',(1.,0.,0.));
#1648=DIRECTION('center_axis',(0.,0.,1.));
#1649=DIRECTION('ref_axis',(1.,0.,0.));
#1650=DIRECTION('',(0.,0.,1.));
#1651=DIRECTION('center_axis',(0.,0.,1.));
#1652=DIRECTION('ref_axis',(1.,0.,0.));
#1653=DIRECTION('',(0.707106781186548,8.65956056235493E-17,-0.707106781186548));
#1654=DIRECTION('center_axis',(0.,0.,-1.));
#1655=DIRECTION('ref_axis',(1.,0.,0.));
#1656=DIRECTION('center_axis',(0.,0.,1.));
#1657=DIRECTION('ref_axis',(1.,0.,0.));
#1658=DIRECTION('center_axis',(0.,0.,1.));
#1659=DIRECTION('ref_axis',(1.,0.,0.));
#1660=DIRECTION('',(0.,0.,1.));
#1661=DIRECTION('center_axis',(0.,0.,1.));
#1662=DIRECTION('ref_axis',(1.,0.,0.));
#1663=DIRECTION('center_axis',(0.,0.,1.));
#1664=DIRECTION('ref_axis',(1.,0.,0.));
#1665=DIRECTION('',(0.,0.,1.));
#1666=DIRECTION('center_axis',(0.,0.,-1.));
#1667=DIRECTION('ref_axis',(1.,0.,0.));
#1668=DIRECTION('center_axis',(0.,0.,-1.));
#1669=DIRECTION('ref_axis',(-0.999996739210103,0.00255373631408737,0.));
#1670=DIRECTION('',(0.,1.,0.));
#1671=DIRECTION('center_axis',(0.,0.,-1.));
#1672=DIRECTION('ref_axis',(1.,0.,0.));
#1673=DIRECTION('',(0.,-1.,0.));
#1674=DIRECTION('center_axis',(0.,0.,-1.));
#1675=DIRECTION('ref_axis',(-0.999996739210103,0.00255373631408737,0.));
#1676=DIRECTION('',(-1.,0.,0.));
#1677=DIRECTION('center_axis',(0.,0.,1.));
#1678=DIRECTION('ref_axis',(1.,0.,0.));
#1679=DIRECTION('center_axis',(0.,0.,1.));
#1680=DIRECTION('ref_axis',(1.,0.,0.));
#1681=DIRECTION('center_axis',(0.,0.,1.));
#1682=DIRECTION('ref_axis',(1.,0.,0.));
#1683=DIRECTION('center_axis',(0.,0.,1.));
#1684=DIRECTION('ref_axis',(1.,0.,0.));
#1685=DIRECTION('center_axis',(0.,0.,1.));
#1686=DIRECTION('ref_axis',(1.,0.,0.));
#1687=DIRECTION('center_axis',(0.,0.,1.));
#1688=DIRECTION('ref_axis',(1.,0.,0.));
#1689=DIRECTION('center_axis',(0.,0.,1.));
#1690=DIRECTION('ref_axis',(1.,0.,0.));
#1691=DIRECTION('center_axis',(0.,0.,-1.));
#1692=DIRECTION('ref_axis',(1.,0.,0.));
#1693=DIRECTION('',(0.,0.,-1.));
#1694=DIRECTION('center_axis',(0.,0.,1.));
#1695=DIRECTION('ref_axis',(1.,0.,0.));
#1696=DIRECTION('center_axis',(0.,0.,-1.));
#1697=DIRECTION('ref_axis',(1.,0.,0.));
#1698=DIRECTION('',(0.,0.,-1.));
#1699=DIRECTION('center_axis',(0.,0.,1.));
#1700=DIRECTION('ref_axis',(1.,0.,0.));
#1701=DIRECTION('center_axis',(0.,0.,-1.));
#1702=DIRECTION('ref_axis',(1.,0.,0.));
#1703=DIRECTION('',(0.,0.,-1.));
#1704=DIRECTION('center_axis',(0.,0.,-1.));
#1705=DIRECTION('ref_axis',(1.,0.,0.));
#1706=DIRECTION('center_axis',(0.,0.,-1.));
#1707=DIRECTION('ref_axis',(1.,0.,0.));
#1708=DIRECTION('',(0.,0.,-1.));
#1709=DIRECTION('center_axis',(0.,0.,-1.));
#1710=DIRECTION('ref_axis',(1.,0.,0.));
#1711=DIRECTION('center_axis',(0.,0.,-1.));
#1712=DIRECTION('ref_axis',(1.,0.,0.));
#1713=DIRECTION('',(0.,0.,-1.));
#1714=DIRECTION('center_axis',(0.,0.,-1.));
#1715=DIRECTION('ref_axis',(1.,0.,0.));
#1716=DIRECTION('center_axis',(0.,0.,-1.));
#1717=DIRECTION('ref_axis',(1.,0.,0.));
#1718=DIRECTION('',(0.,0.,-1.));
#1719=DIRECTION('center_axis',(0.,0.,1.));
#1720=DIRECTION('ref_axis',(1.,0.,0.));
#1721=DIRECTION('',(2.70759969040663E-14,-1.,0.));
#1722=DIRECTION('',(-0.999840258790731,-0.0178733573030801,0.));
#1723=DIRECTION('',(0.,1.,0.));
#1724=DIRECTION('',(1.,0.,0.));
#1725=DIRECTION('center_axis',(-0.0178733573030801,0.999840258790731,0.));
#1726=DIRECTION('ref_axis',(-0.999840258790731,-0.0178733573030801,0.));
#1727=DIRECTION('',(0.,0.,1.));
#1728=DIRECTION('',(0.999840258790731,0.0178733573030801,0.));
#1729=DIRECTION('',(0.,0.,-1.));
#1730=DIRECTION('center_axis',(0.,0.,1.));
#1731=DIRECTION('ref_axis',(1.,0.,0.));
#1732=DIRECTION('',(0.,1.,0.));
#1733=DIRECTION('',(1.,0.,0.));
#1734=DIRECTION('',(0.,-1.,0.));
#1735=DIRECTION('',(-0.999840258797552,0.0178733569215065,0.));
#1736=DIRECTION('center_axis',(0.,-1.,0.));
#1737=DIRECTION('ref_axis',(1.,0.,0.));
#1738=DIRECTION('',(0.,0.,1.));
#1739=DIRECTION('',(-1.,0.,0.));
#1740=DIRECTION('',(0.,0.,1.));
#1741=DIRECTION('center_axis',(0.,0.,1.));
#1742=DIRECTION('ref_axis',(-1.,0.,0.));
#1743=DIRECTION('center_axis',(0.,0.,-1.));
#1744=DIRECTION('ref_axis',(1.,0.,0.));
#1745=DIRECTION('',(-1.,0.,0.));
#1746=DIRECTION('center_axis',(0.,0.,1.));
#1747=DIRECTION('ref_axis',(1.,0.,0.));
#1748=DIRECTION('center_axis',(0.,0.,1.));
#1749=DIRECTION('ref_axis',(1.,0.,0.));
#1750=DIRECTION('',(0.,0.,-1.));
#1751=DIRECTION('',(0.,0.,-1.));
#1752=DIRECTION('',(0.,0.,1.));
#1753=DIRECTION('center_axis',(0.,-1.,0.));
#1754=DIRECTION('ref_axis',(1.,0.,0.));
#1755=DIRECTION('',(0.,0.,1.));
#1756=DIRECTION('center_axis',(0.,0.,1.));
#1757=DIRECTION('ref_axis',(-1.,0.,0.));
#1758=DIRECTION('center_axis',(0.,0.,-1.));
#1759=DIRECTION('ref_axis',(-0.999996739210103,0.00255373631408737,0.));
#1760=DIRECTION('',(-1.,0.,0.));
#1761=DIRECTION('center_axis',(0.,0.,-1.));
#1762=DIRECTION('ref_axis',(-0.999996739210103,0.00255373631408737,0.));
#1763=DIRECTION('',(0.999840258797552,-0.0178733569215065,0.));
#1764=DIRECTION('center_axis',(0.,0.,1.));
#1765=DIRECTION('ref_axis',(-1.,0.,0.));
#1766=DIRECTION('center_axis',(0.,0.,1.));
#1767=DIRECTION('ref_axis',(-0.999996739210103,0.00255373631408737,0.));
#1768=DIRECTION('',(0.,0.,1.));
#1769=DIRECTION('',(0.,0.,1.));
#1770=DIRECTION('',(0.,0.,1.));
#1771=DIRECTION('center_axis',(0.,-1.,0.));
#1772=DIRECTION('ref_axis',(1.,0.,0.));
#1773=DIRECTION('',(0.,0.,1.));
#1774=DIRECTION('center_axis',(0.,0.,1.));
#1775=DIRECTION('ref_axis',(-0.999996739210103,0.00255373631408737,0.));
#1776=DIRECTION('',(0.,0.,1.));
#1777=DIRECTION('center_axis',(0.,0.,1.));
#1778=DIRECTION('ref_axis',(1.,0.,0.));
#1779=DIRECTION('',(0.,0.,1.));
#1780=DIRECTION('',(0.,0.,1.));
#1781=DIRECTION('center_axis',(-1.,0.,0.));
#1782=DIRECTION('ref_axis',(0.,-1.,0.));
#1783=DIRECTION('center_axis',(0.,0.,1.));
#1784=DIRECTION('ref_axis',(-1.,0.,0.));
#1785=DIRECTION('',(0.,0.,-1.));
#1786=DIRECTION('',(0.,0.,-1.));
#1787=DIRECTION('',(0.,0.,-1.));
#1788=DIRECTION('center_axis',(0.0178733569215065,0.999840258797552,0.));
#1789=DIRECTION('ref_axis',(-0.999840258797552,0.0178733569215065,0.));
#1790=DIRECTION('center_axis',(-1.,0.,0.));
#1791=DIRECTION('ref_axis',(0.,-1.,0.));
#1792=DIRECTION('center_axis',(1.,0.,0.));
#1793=DIRECTION('ref_axis',(0.,1.,0.));
#1794=DIRECTION('center_axis',(1.,0.,0.));
#1795=DIRECTION('ref_axis',(0.,1.,0.));
#1796=CARTESIAN_POINT('',(0.,0.,0.));
#1797=CARTESIAN_POINT('Origin',(20.,-90.,1.));
#1798=CARTESIAN_POINT('',(13.1,-90.,2.5));
#1799=CARTESIAN_POINT('Origin',(20.,-90.,2.5));
#1800=CARTESIAN_POINT('',(16.1,-90.,-0.5));
#1801=CARTESIAN_POINT('',(14.6,-90.,1.));
#1802=CARTESIAN_POINT('Origin',(20.,-90.,-0.5));
#1803=CARTESIAN_POINT('Origin',(0.,-4.2632564145606E-13,2.5));
#1804=CARTESIAN_POINT('',(-30.,-90.,2.5));
#1805=CARTESIAN_POINT('',(-30.,90.,2.5));
#1806=CARTESIAN_POINT('',(-30.,-45.0000000000002,2.5));
#1807=CARTESIAN_POINT('',(30.,-90.,2.5));
#1808=CARTESIAN_POINT('Origin',(0.,-90.,2.5));
#1809=CARTESIAN_POINT('',(30.,90.,2.5));
#1810=CARTESIAN_POINT('',(30.,44.9999999999998,2.5));
#1811=CARTESIAN_POINT('Origin',(0.,90.,2.5));
#1812=CARTESIAN_POINT('',(13.1,-60.,2.5));
#1813=CARTESIAN_POINT('Origin',(20.,-60.,2.5));
#1814=CARTESIAN_POINT('',(-6.9,-60.,2.5));
#1815=CARTESIAN_POINT('Origin',(0.,-60.,2.5));
#1816=CARTESIAN_POINT('',(-26.9,-30.,2.5));
#1817=CARTESIAN_POINT('Origin',(-20.,-30.,2.5));
#1818=CARTESIAN_POINT('',(13.1,-30.,2.5));
#1819=CARTESIAN_POINT('Origin',(20.,-30.,2.5));
#1820=CARTESIAN_POINT('',(-6.9,-8.45006291411674E-16,2.5));
#1821=CARTESIAN_POINT('Origin',(0.,0.,2.5));
#1822=CARTESIAN_POINT('',(13.1,30.,2.5));
#1823=CARTESIAN_POINT('Origin',(20.,30.,2.5));
#1824=CARTESIAN_POINT('',(-26.9,30.,2.5));
#1825=CARTESIAN_POINT('Origin',(-20.,30.,2.5));
#1826=CARTESIAN_POINT('',(-6.9,60.,2.5));
#1827=CARTESIAN_POINT('Origin',(0.,60.,2.5));
#1828=CARTESIAN_POINT('',(13.1,90.,2.5));
#1829=CARTESIAN_POINT('Origin',(20.,90.,2.5));
#1830=CARTESIAN_POINT('',(-26.9,90.,2.5));
#1831=CARTESIAN_POINT('Origin',(-20.,90.,2.5));
#1832=CARTESIAN_POINT('',(-23.9,-90.,2.5));
#1833=CARTESIAN_POINT('Origin',(-20.,-90.,2.5));
#1834=CARTESIAN_POINT('',(-6.9,90.,2.5));
#1835=CARTESIAN_POINT('Origin',(0.,90.,2.5));
#1836=CARTESIAN_POINT('',(13.1,60.,2.5));
#1837=CARTESIAN_POINT('Origin',(20.,60.,2.5));
#1838=CARTESIAN_POINT('',(-26.9,60.,2.5));
#1839=CARTESIAN_POINT('Origin',(-20.,60.,2.5));
#1840=CARTESIAN_POINT('',(-6.9,30.,2.5));
#1841=CARTESIAN_POINT('Origin',(0.,30.,2.5));
#1842=CARTESIAN_POINT('',(13.1,-8.45006291411674E-16,2.5));
#1843=CARTESIAN_POINT('Origin',(20.,0.,2.5));
#1844=CARTESIAN_POINT('',(-26.9,-8.45006291411674E-16,2.5));
#1845=CARTESIAN_POINT('Origin',(-20.,0.,2.5));
#1846=CARTESIAN_POINT('',(-6.9,-30.,2.5));
#1847=CARTESIAN_POINT('Origin',(0.,-30.,2.5));
#1848=CARTESIAN_POINT('',(-26.9,-60.,2.5));
#1849=CARTESIAN_POINT('Origin',(-20.,-60.,2.5));
#1850=CARTESIAN_POINT('',(-6.9,-90.,2.5));
#1851=CARTESIAN_POINT('Origin',(0.,-90.,2.5));
#1852=CARTESIAN_POINT('Origin',(20.,-90.,-1.));
#1853=CARTESIAN_POINT('',(16.1,-90.,-1.));
#1854=CARTESIAN_POINT('Origin',(20.,-90.,-1.));
#1855=CARTESIAN_POINT('',(16.1,-90.,-1.));
#1856=CARTESIAN_POINT('Origin',(20.,-60.,1.));
#1857=CARTESIAN_POINT('',(16.1,-60.,-0.5));
#1858=CARTESIAN_POINT('',(14.6,-60.,1.));
#1859=CARTESIAN_POINT('Origin',(20.,-60.,-0.5));
#1860=CARTESIAN_POINT('Origin',(20.,-60.,-1.));
#1861=CARTESIAN_POINT('',(16.1,-60.,-1.));
#1862=CARTESIAN_POINT('Origin',(20.,-60.,-1.));
#1863=CARTESIAN_POINT('',(16.1,-60.,-1.));
#1864=CARTESIAN_POINT('Origin',(0.,-90.,1.));
#1865=CARTESIAN_POINT('',(-3.9,-90.,-0.5));
#1866=CARTESIAN_POINT('',(-5.4,-90.,1.));
#1867=CARTESIAN_POINT('Origin',(0.,-90.,-0.5));
#1868=CARTESIAN_POINT('Origin',(0.,-90.,-1.));
#1869=CARTESIAN_POINT('',(-3.9,-90.,-1.));
#1870=CARTESIAN_POINT('Origin',(0.,-90.,-1.));
#1871=CARTESIAN_POINT('',(-3.9,-90.,-1.));
#1872=CARTESIAN_POINT('Origin',(0.,-60.,1.));
#1873=CARTESIAN_POINT('',(-3.9,-60.,-0.5));
#1874=CARTESIAN_POINT('',(-5.4,-60.,1.));
#1875=CARTESIAN_POINT('Origin',(0.,-60.,-0.5));
#1876=CARTESIAN_POINT('Origin',(0.,-60.,-1.));
#1877=CARTESIAN_POINT('',(-3.9,-60.,-1.));
#1878=CARTESIAN_POINT('Origin',(0.,-60.,-1.));
#1879=CARTESIAN_POINT('',(-3.9,-60.,-1.));
#1880=CARTESIAN_POINT('Origin',(-20.,-60.,1.));
#1881=CARTESIAN_POINT('',(-23.9,-60.,-0.5));
#1882=CARTESIAN_POINT('',(-25.4,-60.,1.));
#1883=CARTESIAN_POINT('Origin',(-20.,-60.,-0.5));
#1884=CARTESIAN_POINT('Origin',(-20.,-60.,-1.));
#1885=CARTESIAN_POINT('',(-23.9,-60.,-1.));
#1886=CARTESIAN_POINT('Origin',(-20.,-60.,-1.));
#1887=CARTESIAN_POINT('',(-23.9,-60.,-1.));
#1888=CARTESIAN_POINT('Origin',(-20.,-30.,1.));
#1889=CARTESIAN_POINT('',(-23.9,-30.,-0.5));
#1890=CARTESIAN_POINT('',(-25.4,-30.,1.));
#1891=CARTESIAN_POINT('Origin',(-20.,-30.,-0.5));
#1892=CARTESIAN_POINT('Origin',(-20.,-30.,-1.));
#1893=CARTESIAN_POINT('',(-23.9,-30.,-1.));
#1894=CARTESIAN_POINT('Origin',(-20.,-30.,-1.));
#1895=CARTESIAN_POINT('',(-23.9,-30.,-1.));
#1896=CARTESIAN_POINT('Origin',(0.,-30.,1.));
#1897=CARTESIAN_POINT('',(-3.9,-30.,-0.5));
#1898=CARTESIAN_POINT('',(-5.4,-30.,1.));
#1899=CARTESIAN_POINT('Origin',(0.,-30.,-0.5));
#1900=CARTESIAN_POINT('Origin',(0.,-30.,-1.));
#1901=CARTESIAN_POINT('',(-3.9,-30.,-1.));
#1902=CARTESIAN_POINT('Origin',(0.,-30.,-1.));
#1903=CARTESIAN_POINT('',(-3.9,-30.,-1.));
#1904=CARTESIAN_POINT('Origin',(20.,-30.,1.));
#1905=CARTESIAN_POINT('',(16.1,-30.,-0.5));
#1906=CARTESIAN_POINT('',(14.6,-30.,1.));
#1907=CARTESIAN_POINT('Origin',(20.,-30.,-0.5));
#1908=CARTESIAN_POINT('Origin',(20.,-30.,-1.));
#1909=CARTESIAN_POINT('',(16.1,-30.,-1.));
#1910=CARTESIAN_POINT('Origin',(20.,-30.,-1.));
#1911=CARTESIAN_POINT('',(16.1,-30.,-1.));
#1912=CARTESIAN_POINT('Origin',(-20.,0.,1.));
#1913=CARTESIAN_POINT('',(-23.9,4.77612251667468E-16,-0.5));
#1914=CARTESIAN_POINT('',(-25.4,-6.61309271539571E-16,1.));
#1915=CARTESIAN_POINT('Origin',(-20.,0.,-0.5));
#1916=CARTESIAN_POINT('Origin',(-20.,0.,-1.));
#1917=CARTESIAN_POINT('',(-23.9,0.,-1.));
#1918=CARTESIAN_POINT('Origin',(-20.,0.,-1.));
#1919=CARTESIAN_POINT('',(-23.9,-4.77612251667468E-16,-1.));
#1920=CARTESIAN_POINT('Origin',(0.,0.,1.));
#1921=CARTESIAN_POINT('',(-3.9,4.77612251667468E-16,-0.5));
#1922=CARTESIAN_POINT('',(-5.4,-6.61309271539571E-16,1.));
#1923=CARTESIAN_POINT('Origin',(0.,0.,-0.5));
#1924=CARTESIAN_POINT('Origin',(0.,0.,-1.));
#1925=CARTESIAN_POINT('',(-3.9,4.77612251667468E-16,-1.));
#1926=CARTESIAN_POINT('Origin',(0.,0.,-1.));
#1927=CARTESIAN_POINT('',(-3.9,-4.77612251667468E-16,-1.));
#1928=CARTESIAN_POINT('Origin',(20.,0.,1.));
#1929=CARTESIAN_POINT('',(16.1,4.77612251667468E-16,-0.5));
#1930=CARTESIAN_POINT('',(14.6,-6.61309271539571E-16,1.));
#1931=CARTESIAN_POINT('Origin',(20.,0.,-0.5));
#1932=CARTESIAN_POINT('Origin',(20.,0.,-1.));
#1933=CARTESIAN_POINT('',(16.1,0.,-1.));
#1934=CARTESIAN_POINT('Origin',(20.,0.,-1.));
#1935=CARTESIAN_POINT('',(16.1,-4.77612251667468E-16,-1.));
#1936=CARTESIAN_POINT('Origin',(20.,30.,1.));
#1937=CARTESIAN_POINT('',(16.1,30.,-0.5));
#1938=CARTESIAN_POINT('',(14.6,30.,1.));
#1939=CARTESIAN_POINT('Origin',(20.,30.,-0.5));
#1940=CARTESIAN_POINT('Origin',(20.,30.,-1.));
#1941=CARTESIAN_POINT('',(16.1,30.,-1.));
#1942=CARTESIAN_POINT('Origin',(20.,30.,-1.));
#1943=CARTESIAN_POINT('',(16.1,30.,-1.));
#1944=CARTESIAN_POINT('Origin',(0.,30.,1.));
#1945=CARTESIAN_POINT('',(-3.9,30.,-0.5));
#1946=CARTESIAN_POINT('',(-5.4,30.,1.));
#1947=CARTESIAN_POINT('Origin',(0.,30.,-0.5));
#1948=CARTESIAN_POINT('Origin',(0.,30.,-1.));
#1949=CARTESIAN_POINT('',(-3.9,30.,-1.));
#1950=CARTESIAN_POINT('Origin',(0.,30.,-1.));
#1951=CARTESIAN_POINT('',(-3.9,30.,-1.));
#1952=CARTESIAN_POINT('Origin',(-20.,30.,1.));
#1953=CARTESIAN_POINT('',(-23.9,30.,-0.5));
#1954=CARTESIAN_POINT('',(-25.4,30.,1.));
#1955=CARTESIAN_POINT('Origin',(-20.,30.,-0.5));
#1956=CARTESIAN_POINT('Origin',(-20.,30.,-1.));
#1957=CARTESIAN_POINT('',(-23.9,30.,-1.));
#1958=CARTESIAN_POINT('Origin',(-20.,30.,-1.));
#1959=CARTESIAN_POINT('',(-23.9,30.,-1.));
#1960=CARTESIAN_POINT('Origin',(-20.,60.,1.));
#1961=CARTESIAN_POINT('',(-23.9,60.,-0.5));
#1962=CARTESIAN_POINT('',(-25.4,60.,1.));
#1963=CARTESIAN_POINT('Origin',(-20.,60.,-0.5));
#1964=CARTESIAN_POINT('Origin',(-20.,60.,-1.));
#1965=CARTESIAN_POINT('',(-23.9,60.,-1.));
#1966=CARTESIAN_POINT('Origin',(-20.,60.,-1.));
#1967=CARTESIAN_POINT('',(-23.9,60.,-1.));
#1968=CARTESIAN_POINT('Origin',(0.,60.,1.));
#1969=CARTESIAN_POINT('',(-3.9,60.,-0.5));
#1970=CARTESIAN_POINT('',(-5.4,60.,1.));
#1971=CARTESIAN_POINT('Origin',(0.,60.,-0.5));
#1972=CARTESIAN_POINT('Origin',(0.,60.,-1.));
#1973=CARTESIAN_POINT('',(-3.9,60.,-1.));
#1974=CARTESIAN_POINT('Origin',(0.,60.,-1.));
#1975=CARTESIAN_POINT('',(-3.9,60.,-1.));
#1976=CARTESIAN_POINT('Origin',(20.,60.,1.));
#1977=CARTESIAN_POINT('',(16.1,60.,-0.5));
#1978=CARTESIAN_POINT('',(14.6,60.,1.));
#1979=CARTESIAN_POINT('Origin',(20.,60.,-0.5));
#1980=CARTESIAN_POINT('Origin',(20.,60.,-1.));
#1981=CARTESIAN_POINT('',(16.1,60.,-1.));
#1982=CARTESIAN_POINT('Origin',(20.,60.,-1.));
#1983=CARTESIAN_POINT('',(16.1,60.,-1.));
#1984=CARTESIAN_POINT('Origin',(20.,90.,1.));
#1985=CARTESIAN_POINT('',(16.1,90.,-0.5));
#1986=CARTESIAN_POINT('',(14.6,90.,1.));
#1987=CARTESIAN_POINT('Origin',(20.,90.,-0.5));
#1988=CARTESIAN_POINT('Origin',(20.,90.,-1.));
#1989=CARTESIAN_POINT('',(16.1,90.,-1.));
#1990=CARTESIAN_POINT('Origin',(20.,90.,-1.));
#1991=CARTESIAN_POINT('',(16.1,90.,-1.));
#1992=CARTESIAN_POINT('Origin',(0.,90.,1.));
#1993=CARTESIAN_POINT('',(-3.9,90.,-0.5));
#1994=CARTESIAN_POINT('',(-5.4,90.,1.));
#1995=CARTESIAN_POINT('Origin',(0.,90.,-0.5));
#1996=CARTESIAN_POINT('Origin',(0.,90.,-1.));
#1997=CARTESIAN_POINT('',(-3.9,90.,-1.));
#1998=CARTESIAN_POINT('Origin',(0.,90.,-1.));
#1999=CARTESIAN_POINT('',(-3.9,90.,-1.));
#2000=CARTESIAN_POINT('Origin',(-20.,90.,1.));
#2001=CARTESIAN_POINT('',(-23.9,90.,-0.5));
#2002=CARTESIAN_POINT('',(-25.4,90.,1.));
#2003=CARTESIAN_POINT('Origin',(-20.,90.,-0.5));
#2004=CARTESIAN_POINT('Origin',(-20.,90.,-1.));
#2005=CARTESIAN_POINT('',(-23.9,90.,-1.));
#2006=CARTESIAN_POINT('Origin',(-20.,90.,-1.));
#2007=CARTESIAN_POINT('',(-23.9,90.,-1.));
#2008=CARTESIAN_POINT('Origin',(-20.,-90.,-1.));
#2009=CARTESIAN_POINT('',(-23.9,-90.,-1.));
#2010=CARTESIAN_POINT('Origin',(-20.,-90.,-1.));
#2011=CARTESIAN_POINT('',(-23.9,-90.,-1.));
#2012=CARTESIAN_POINT('Origin',(0.,-4.2632564145606E-13,-1.));
#2013=CARTESIAN_POINT('',(-0.0893810621091351,-125.000000000001,-1.));
#2014=CARTESIAN_POINT('',(-34.9999999999951,-90.0893810643546,-1.));
#2015=CARTESIAN_POINT('Origin',(0.,-90.,-1.));
#2016=CARTESIAN_POINT('',(-35.,90.,-1.));
#2017=CARTESIAN_POINT('',(-35.,44.9999999999998,-1.));
#2018=CARTESIAN_POINT('',(35.,90.,-1.));
#2019=CARTESIAN_POINT('Origin',(0.,90.,-1.));
#2020=CARTESIAN_POINT('',(35.,-90.0893810624459,-1.));
#2021=CARTESIAN_POINT('',(35.,-45.0446905312232,-1.));
#2022=CARTESIAN_POINT('',(0.0893810624813351,-125.,-1.));
#2023=CARTESIAN_POINT('Origin',(0.,-90.,-1.));
#2024=CARTESIAN_POINT('',(-0.0446905310545676,-125.,-1.));
#2025=CARTESIAN_POINT('',(-33.9984626993484,-93.0147912330809,-1.));
#2026=CARTESIAN_POINT('Origin',(-32.4984626993484,-93.0147912330809,-1.));
#2027=CARTESIAN_POINT('',(30.9984626993484,-93.0147912330809,-1.));
#2028=CARTESIAN_POINT('Origin',(32.4984626993484,-93.0147912330809,-1.));
#2029=CARTESIAN_POINT('',(-1.49999999999999,-122.5,-1.));
#2030=CARTESIAN_POINT('Origin',(4.47558656802016E-15,-122.5,-1.));
#2031=CARTESIAN_POINT('',(30.9984626993484,93.0147912330809,-1.));
#2032=CARTESIAN_POINT('Origin',(32.4984626993484,93.0147912330809,-1.));
#2033=CARTESIAN_POINT('',(-33.9984626993484,93.0147912330809,-1.));
#2034=CARTESIAN_POINT('Origin',(-32.4984626993484,93.0147912330809,-1.));
#2035=CARTESIAN_POINT('',(-1.49999999999999,122.5,-1.));
#2036=CARTESIAN_POINT('Origin',(4.47558656802016E-15,122.5,-1.));
#2037=CARTESIAN_POINT('Origin',(-32.4984626993484,-93.0147912330809,3.25));
#2038=CARTESIAN_POINT('',(-33.9984626993484,-93.0147912330809,13.5));
#2039=CARTESIAN_POINT('Origin',(-32.4984626993484,-93.0147912330809,13.5));
#2040=CARTESIAN_POINT('',(-33.9984626993484,-93.0147912330809,3.25));
#2041=CARTESIAN_POINT('Origin',(32.4984626993484,-93.0147912330809,3.25));
#2042=CARTESIAN_POINT('',(30.9984626993484,-93.0147912330809,13.5));
#2043=CARTESIAN_POINT('Origin',(32.4984626993484,-93.0147912330809,13.5));
#2044=CARTESIAN_POINT('',(30.9984626993484,-93.0147912330809,3.25));
#2045=CARTESIAN_POINT('Origin',(4.47558656802016E-15,-122.5,3.25));
#2046=CARTESIAN_POINT('',(-1.5,-122.5,13.5));
#2047=CARTESIAN_POINT('Origin',(4.47558656802016E-15,-122.5,13.5));
#2048=CARTESIAN_POINT('',(-1.5,-122.5,3.25));
#2049=CARTESIAN_POINT('Origin',(32.4984626993484,93.0147912330809,3.25));
#2050=CARTESIAN_POINT('',(30.9984626993484,93.0147912330809,13.25));
#2051=CARTESIAN_POINT('Origin',(32.4984626993484,93.0147912330809,13.25));
#2052=CARTESIAN_POINT('',(30.9984626993484,93.0147912330809,3.25));
#2053=CARTESIAN_POINT('Origin',(-32.4984626993484,93.0147912330809,3.25));
#2054=CARTESIAN_POINT('',(-33.9984626993484,93.0147912330809,13.25));
#2055=CARTESIAN_POINT('Origin',(-32.4984626993484,93.0147912330809,13.25));
#2056=CARTESIAN_POINT('',(-33.9984626993484,93.0147912330809,3.25));
#2057=CARTESIAN_POINT('Origin',(4.47558656802016E-15,122.5,3.25));
#2058=CARTESIAN_POINT('',(-1.5,122.5,13.25));
#2059=CARTESIAN_POINT('Origin',(4.47558656802016E-15,122.5,13.25));
#2060=CARTESIAN_POINT('',(-1.5,122.5,3.25));
#2061=CARTESIAN_POINT('Origin',(-32.5,-0.0446905321773094,8.5));
#2062=CARTESIAN_POINT('',(-35.,90.,8.5));
#2063=CARTESIAN_POINT('',(-34.9999999999951,-90.0893810643546,8.5));
#2064=CARTESIAN_POINT('',(-35.,90.,8.5));
#2065=CARTESIAN_POINT('',(-30.,-90.,8.5));
#2066=CARTESIAN_POINT('',(-30.4458274013883,-90.0079697055309,8.5));
#2067=CARTESIAN_POINT('',(-30.,90.,8.5));
#2068=CARTESIAN_POINT('',(-30.,90.,8.5));
#2069=CARTESIAN_POINT('',(-33.75,90.,8.5));
#2070=CARTESIAN_POINT('Origin',(-30.,-90.,5.));
#2071=CARTESIAN_POINT('',(-34.9999999999951,-90.0893810643546,13.5));
#2072=CARTESIAN_POINT('',(-34.9999999999951,-90.0893810643546,17.5));
#2073=CARTESIAN_POINT('',(-30.,-90.,13.5));
#2074=CARTESIAN_POINT('',(-15.1611587476925,-89.7347377150157,13.5));
#2075=CARTESIAN_POINT('',(-30.,-90.,5.));
#2076=CARTESIAN_POINT('Origin',(32.5,-0.0446905312229617,8.5));
#2077=CARTESIAN_POINT('',(35.,-90.0893810624459,8.5));
#2078=CARTESIAN_POINT('',(35.,90.,8.5));
#2079=CARTESIAN_POINT('',(35.,-90.0893810624459,8.5));
#2080=CARTESIAN_POINT('',(30.,90.,8.5));
#2081=CARTESIAN_POINT('',(31.25,90.,8.5));
#2082=CARTESIAN_POINT('',(30.,-90.,8.5));
#2083=CARTESIAN_POINT('',(30.,-90.,8.5));
#2084=CARTESIAN_POINT('',(32.9458274185509,-90.0526602368905,8.5));
#2085=CARTESIAN_POINT('Origin',(30.,90.,5.));
#2086=CARTESIAN_POINT('',(35.,90.,13.25));
#2087=CARTESIAN_POINT('',(35.,90.,17.5));
#2088=CARTESIAN_POINT('',(30.,90.,13.25));
#2089=CARTESIAN_POINT('',(15.,90.,13.25));
#2090=CARTESIAN_POINT('',(30.,90.,5.));
#2091=CARTESIAN_POINT('Origin',(0.,107.5,13.25));
#2092=CARTESIAN_POINT('',(-35.,90.,13.25));
#2093=CARTESIAN_POINT('Origin',(0.,90.,13.25));
#2094=CARTESIAN_POINT('',(-30.,90.,13.25));
#2095=CARTESIAN_POINT('',(-17.5,90.,13.25));
#2096=CARTESIAN_POINT('Origin',(0.,90.,13.25));
#2097=CARTESIAN_POINT('Origin',(0.,90.,5.));
#2098=CARTESIAN_POINT('',(-30.,90.,5.));
#2099=CARTESIAN_POINT('',(-30.,90.,5.));
#2100=CARTESIAN_POINT('',(30.,90.,5.));
#2101=CARTESIAN_POINT('Origin',(-35.,90.,5.));
#2102=CARTESIAN_POINT('',(-35.,90.,17.5));
#2103=CARTESIAN_POINT('Origin',(2.44693154627385E-12,-107.5,13.5));
#2104=CARTESIAN_POINT('',(-0.0893810621091307,-125.000000000001,13.5));
#2105=CARTESIAN_POINT('Origin',(0.,-90.,13.5));
#2106=CARTESIAN_POINT('',(0.0893810624813396,-125.,13.5));
#2107=CARTESIAN_POINT('',(-0.0446905310533441,-125.,13.5));
#2108=CARTESIAN_POINT('',(35.,-90.0893810624459,13.5));
#2109=CARTESIAN_POINT('Origin',(0.,-90.,13.5));
#2110=CARTESIAN_POINT('',(30.,-90.,13.5));
#2111=CARTESIAN_POINT('',(17.6611587441532,-89.7794282518402,13.5));
#2112=CARTESIAN_POINT('Origin',(0.,-90.,13.5));
#2113=CARTESIAN_POINT('Origin',(0.,-90.,0.));
#2114=CARTESIAN_POINT('',(0.0893810624813396,-125.,17.25));
#2115=CARTESIAN_POINT('',(35.,-90.0893810624459,17.25));
#2116=CARTESIAN_POINT('',(35.,-90.0893810624459,17.25));
#2117=CARTESIAN_POINT('Origin',(-0.0893810621091351,-125.,0.));
#2118=CARTESIAN_POINT('',(-0.0893810621091307,-125.000000000001,17.5));
#2119=CARTESIAN_POINT('Origin',(0.,-90.,0.));
#2120=CARTESIAN_POINT('',(-34.9999999999951,-90.0893810643546,17.5));
#2121=CARTESIAN_POINT('Origin',(0.,90.,0.));
#2122=CARTESIAN_POINT('',(35.,90.,17.5));
#2123=CARTESIAN_POINT('',(-35.,90.,17.5));
#2124=CARTESIAN_POINT('Origin',(-35.,90.,0.));
#2125=CARTESIAN_POINT('Origin',(0.,-90.,5.));
#2126=CARTESIAN_POINT('',(30.,-90.,5.));
#2127=CARTESIAN_POINT('',(30.,-90.,5.));
#2128=CARTESIAN_POINT('',(-30.,-90.,5.));
#2129=CARTESIAN_POINT('Origin',(35.,-90.0893810624459,5.));
#2130=CARTESIAN_POINT('Origin',(30.,90.,1.5));
#2131=CARTESIAN_POINT('Origin',(-30.,-90.,1.5));
#2132=CARTESIAN_POINT('Origin',(35.,-90.0893810624459,0.));
#2133=UNCERTAINTY_MEASURE_WITH_UNIT(LENGTH_MEASURE(0.01),#2137,
'DISTANCE_ACCURACY_VALUE',
'Maximum model space distance between geometric entities at asserted c
onnectivities');
#2134=UNCERTAINTY_MEASURE_WITH_UNIT(LENGTH_MEASURE(0.01),#2137,
'DISTANCE_ACCURACY_VALUE',
'Maximum model space distance between geometric entities at asserted c
onnectivities');
#2135=(
GEOMETRIC_REPRESENTATION_CONTEXT(3)
GLOBAL_UNCERTAINTY_ASSIGNED_CONTEXT((#2133))
GLOBAL_UNIT_ASSIGNED_CONTEXT((#2137,#2139,#2140))
REPRESENTATION_CONTEXT('','3D')
);
#2136=(
GEOMETRIC_REPRESENTATION_CONTEXT(3)
GLOBAL_UNCERTAINTY_ASSIGNED_CONTEXT((#2134))
GLOBAL_UNIT_ASSIGNED_CONTEXT((#2137,#2139,#2140))
REPRESENTATION_CONTEXT('','3D')
);
#2137=(
LENGTH_UNIT()
NAMED_UNIT(*)
SI_UNIT(.MILLI.,.METRE.)
);
#2138=(
LENGTH_UNIT()
NAMED_UNIT(*)
SI_UNIT($,.METRE.)
);
#2139=(
NAMED_UNIT(*)
PLANE_ANGLE_UNIT()
SI_UNIT($,.RADIAN.)
);
#2140=(
NAMED_UNIT(*)
SI_UNIT($,.STERADIAN.)
SOLID_ANGLE_UNIT()
);
#2141=SHAPE_DEFINITION_REPRESENTATION(#2142,#2143);
#2142=PRODUCT_DEFINITION_SHAPE('',$,#2145);
#2143=SHAPE_REPRESENTATION('',(#1257),#2135);
#2144=PRODUCT_DEFINITION_CONTEXT('part definition',#2149,'design');
#2145=PRODUCT_DEFINITION('pusher front','pusher front v5',#2146,#2144);
#2146=PRODUCT_DEFINITION_FORMATION('',$,#2151);
#2147=PRODUCT_RELATED_PRODUCT_CATEGORY('pusher front v5',
'pusher front v5',(#2151));
#2148=APPLICATION_PROTOCOL_DEFINITION('international standard',
'automotive_design',2009,#2149);
#2149=APPLICATION_CONTEXT(
'Core Data for Automotive Mechanical Design Process');
#2150=PRODUCT_CONTEXT('part definition',#2149,'mechanical');
#2151=PRODUCT('pusher front','pusher front v5',$,(#2150));
#2152=PRESENTATION_STYLE_ASSIGNMENT((#2153));
#2153=SURFACE_STYLE_USAGE(.BOTH.,#2154);
#2154=SURFACE_SIDE_STYLE('',(#2155));
#2155=SURFACE_STYLE_FILL_AREA(#2156);
#2156=FILL_AREA_STYLE('Steel - Satin',(#2157));
#2157=FILL_AREA_STYLE_COLOUR('Steel - Satin',#2158);
#2158=COLOUR_RGB('Steel - Satin',0.627450980392157,0.627450980392157,0.627450980392157);
ENDSEC;
END-ISO-10303-21;
