ISO-10303-21;
HEADER;
/* Generated by software containing ST-Developer
 * from STEP Tools, Inc. (www.steptools.com) 
 */

FILE_DESCRIPTION(
/* description */ (''),
/* implementation_level */ '2;1');

FILE_NAME(
/* name */ 'nozzle finalllyyy.step',
/* time_stamp */ '2026-02-16T22:50:01+08:00',
/* author */ (''),
/* organization */ (''),
/* preprocessor_version */ 'ST-DEVELOPER v20.1',
/* originating_system */ 'Autodesk Translation Framework v14.24.0.0',
/* authorisation */ '');

FILE_SCHEMA (('AUTOMOTIVE_DESIGN { 1 0 10303 214 3 1 1 }'));
ENDSEC;

DATA;
#10=MECHANICAL_DESIGN_GEOMETRIC_PRESENTATION_REPRESENTATION('',(#13),#699);
#11=SHAPE_REPRESENTATION_RELATIONSHIP('SRR','None',#706,#12);
#12=ADVANCED_BREP_SHAPE_REPRESENTATION('',(#14),#698);
#13=STYLED_ITEM('',(#715),#14);
#14=MANIFOLD_SOLID_BREP('Body1',#317);
#15=CONICAL_SURFACE('',#358,12.718325,0.610857538145835);
#16=CONICAL_SURFACE('',#362,11.722325,0.261800754164738);
#17=FACE_BOUND('',#66,.T.);
#18=FACE_BOUND('',#68,.T.);
#19=FACE_BOUND('',#72,.T.);
#20=FACE_BOUND('',#74,.T.);
#21=FACE_BOUND('',#76,.T.);
#22=FACE_BOUND('',#78,.T.);
#23=FACE_BOUND('',#79,.T.);
#24=FACE_BOUND('',#80,.T.);
#25=FACE_BOUND('',#82,.T.);
#26=FACE_BOUND('',#87,.T.);
#27=PLANE('',#333);
#28=PLANE('',#340);
#29=PLANE('',#341);
#30=PLANE('',#349);
#31=PLANE('',#350);
#32=PLANE('',#351);
#33=PLANE('',#355);
#34=PLANE('',#364);
#35=PLANE('',#367);
#36=PLANE('',#370);
#37=PLANE('',#373);
#38=FACE_OUTER_BOUND('',#61,.T.);
#39=FACE_OUTER_BOUND('',#62,.T.);
#40=FACE_OUTER_BOUND('',#63,.T.);
#41=FACE_OUTER_BOUND('',#64,.T.);
#42=FACE_OUTER_BOUND('',#65,.T.);
#43=FACE_OUTER_BOUND('',#67,.T.);
#44=FACE_OUTER_BOUND('',#69,.T.);
#45=FACE_OUTER_BOUND('',#70,.T.);
#46=FACE_OUTER_BOUND('',#71,.T.);
#47=FACE_OUTER_BOUND('',#73,.T.);
#48=FACE_OUTER_BOUND('',#75,.T.);
#49=FACE_OUTER_BOUND('',#77,.T.);
#50=FACE_OUTER_BOUND('',#81,.T.);
#51=FACE_OUTER_BOUND('',#83,.T.);
#52=FACE_OUTER_BOUND('',#84,.T.);
#53=FACE_OUTER_BOUND('',#85,.T.);
#54=FACE_OUTER_BOUND('',#86,.T.);
#55=FACE_OUTER_BOUND('',#88,.T.);
#56=FACE_OUTER_BOUND('',#89,.T.);
#57=FACE_OUTER_BOUND('',#90,.T.);
#58=FACE_OUTER_BOUND('',#91,.T.);
#59=FACE_OUTER_BOUND('',#92,.T.);
#60=FACE_OUTER_BOUND('',#93,.T.);
#61=EDGE_LOOP('',(#208,#209,#210,#211));
#62=EDGE_LOOP('',(#212));
#63=EDGE_LOOP('',(#213,#214,#215,#216));
#64=EDGE_LOOP('',(#217,#218,#219,#220));
#65=EDGE_LOOP('',(#221));
#66=EDGE_LOOP('',(#222));
#67=EDGE_LOOP('',(#223));
#68=EDGE_LOOP('',(#224));
#69=EDGE_LOOP('',(#225,#226,#227,#228));
#70=EDGE_LOOP('',(#229,#230,#231,#232));
#71=EDGE_LOOP('',(#233));
#72=EDGE_LOOP('',(#234));
#73=EDGE_LOOP('',(#235));
#74=EDGE_LOOP('',(#236));
#75=EDGE_LOOP('',(#237));
#76=EDGE_LOOP('',(#238));
#77=EDGE_LOOP('',(#239,#240,#241,#242,#243,#244,#245,#246));
#78=EDGE_LOOP('',(#247));
#79=EDGE_LOOP('',(#248));
#80=EDGE_LOOP('',(#249));
#81=EDGE_LOOP('',(#250));
#82=EDGE_LOOP('',(#251,#252));
#83=EDGE_LOOP('',(#253,#254,#255,#256,#257));
#84=EDGE_LOOP('',(#258,#259,#260,#261));
#85=EDGE_LOOP('',(#262,#263,#264,#265));
#86=EDGE_LOOP('',(#266));
#87=EDGE_LOOP('',(#267));
#88=EDGE_LOOP('',(#268,#269,#270,#271,#272));
#89=EDGE_LOOP('',(#273));
#90=EDGE_LOOP('',(#274,#275,#276,#277));
#91=EDGE_LOOP('',(#278));
#92=EDGE_LOOP('',(#279,#280,#281,#282));
#93=EDGE_LOOP('',(#283));
#94=CIRCLE('',#332,2.26435);
#95=CIRCLE('',#335,18.5);
#96=CIRCLE('',#336,18.5);
#97=CIRCLE('',#338,20.75);
#98=CIRCLE('',#339,20.75);
#99=CIRCLE('',#342,20.75);
#100=CIRCLE('',#344,18.5);
#101=CIRCLE('',#345,18.5);
#102=CIRCLE('',#347,20.75);
#103=CIRCLE('',#348,20.75);
#104=CIRCLE('',#352,20.75);
#105=CIRCLE('',#353,20.);
#106=CIRCLE('',#356,20.);
#107=CIRCLE('',#357,20.);
#108=CIRCLE('',#359,5.43665);
#109=CIRCLE('',#361,5.43665);
#110=CIRCLE('',#363,18.008);
#111=CIRCLE('',#366,2.26435);
#112=CIRCLE('',#369,2.26435);
#113=CIRCLE('',#372,2.26435);
#114=LINE('',#513,#127);
#115=LINE('',#520,#128);
#116=LINE('',#526,#129);
#117=LINE('',#536,#130);
#118=LINE('',#542,#131);
#119=LINE('',#553,#132);
#120=LINE('',#573,#133);
#121=LINE('',#670,#134);
#122=LINE('',#674,#135);
#123=LINE('',#678,#136);
#124=LINE('',#683,#137);
#125=LINE('',#688,#138);
#126=LINE('',#693,#139);
#127=VECTOR('',#378,2.5);
#128=VECTOR('',#387,18.5);
#129=VECTOR('',#394,20.75);
#130=VECTOR('',#407,18.5);
#131=VECTOR('',#414,20.75);
#132=VECTOR('',#429,20.75);
#133=VECTOR('',#430,20.75);
#134=VECTOR('',#439,12.718325);
#135=VECTOR('',#444,5.43665);
#136=VECTOR('',#449,11.722325);
#137=VECTOR('',#456,2.5);
#138=VECTOR('',#463,2.5);
#139=VECTOR('',#470,2.5);
#140=B_SPLINE_CURVE_WITH_KNOTS('',3,(#478,#479,#480,#481,#482,#483,#484,
#485,#486,#487,#488,#489,#490,#491,#492,#493,#494,#495,#496,#497,#498,#499,
#500,#501,#502,#503,#504,#505,#506,#507,#508,#509,#510,#511),
 .UNSPECIFIED.,.T.,.F.,(4,2,2,2,2,2,2,2,2,2,2,2,2,2,2,2,4),(0.,0.0853682609644424,
0.170736521928885,0.256104370096633,0.341472218264381,0.426840066432128,
0.512207914599876,0.597576175564319,0.682944436528761,0.768312697493204,
0.853680958457646,0.939048806625394,1.02441665479314,1.10978450296089,1.19515235112864,
1.28052061209308,1.36588887305752),.UNSPECIFIED.);
#141=B_SPLINE_CURVE_WITH_KNOTS('',3,(#555,#556,#557,#558,#559,#560,#561,
#562,#563,#564,#565,#566,#567,#568,#569,#570,#571,#572),.UNSPECIFIED.,.F.,
 .F.,(4,2,2,2,2,2,2,2,4),(0.341472218264381,0.426840066432128,0.512207914599876,
0.597576175564319,0.682944436528761,0.768312697493204,0.853680958457646,
0.939048806625394,1.02441665479314),.UNSPECIFIED.);
#142=B_SPLINE_CURVE_WITH_KNOTS('',3,(#574,#575,#576,#577,#578,#579,#580,
#581,#582,#583,#584,#585,#586,#587,#588,#589,#590,#591,#592),
 .UNSPECIFIED.,.F.,.F.,(4,2,2,2,3,2,2,2,4),(-0.341472218264381,-0.256104370096633,
-0.170736521928885,-0.0853682609644424,0.,0.0853682609644424,0.170736521928885,
0.256104370096633,0.341472218264381),.UNSPECIFIED.);
#143=B_SPLINE_CURVE_WITH_KNOTS('',3,(#594,#595,#596,#597,#598,#599,#600,
#601,#602,#603,#604,#605,#606,#607,#608,#609,#610,#611,#612,#613,#614,#615,
#616,#617,#618,#619,#620,#621,#622,#623,#624,#625,#626,#627),
 .UNSPECIFIED.,.T.,.F.,(4,2,2,2,2,2,2,2,2,2,2,2,2,2,2,2,4),(0.,0.0853682609644424,
0.170736521928885,0.256104370096633,0.341472218264381,0.426840066432128,
0.512207914599876,0.597576175564319,0.682944436528761,0.768312697493204,
0.853680958457646,0.939048806625394,1.02441665479314,1.10978450296089,1.19515235112864,
1.28052061209308,1.36588887305752),.UNSPECIFIED.);
#144=B_SPLINE_CURVE_WITH_KNOTS('',3,(#629,#630,#631,#632,#633,#634,#635,
#636,#637,#638,#639,#640,#641,#642,#643,#644,#645,#646,#647,#648,#649,#650,
#651,#652,#653,#654,#655,#656,#657,#658,#659,#660,#661,#662),
 .UNSPECIFIED.,.T.,.F.,(4,2,2,2,2,2,2,2,2,2,2,2,2,2,2,2,4),(0.,0.0853682609644424,
0.170736521928885,0.256104370096633,0.341472218264381,0.426840066432128,
0.512207914599876,0.597576175564319,0.682944436528761,0.768312697493204,
0.853680958457646,0.939048806625394,1.02441665479314,1.10978450296089,1.19515235112864,
1.28052061209308,1.36588887305752),.UNSPECIFIED.);
#145=VERTEX_POINT('',#477);
#146=VERTEX_POINT('',#512);
#147=VERTEX_POINT('',#517);
#148=VERTEX_POINT('',#519);
#149=VERTEX_POINT('',#523);
#150=VERTEX_POINT('',#525);
#151=VERTEX_POINT('',#530);
#152=VERTEX_POINT('',#533);
#153=VERTEX_POINT('',#535);
#154=VERTEX_POINT('',#539);
#155=VERTEX_POINT('',#541);
#156=VERTEX_POINT('',#547);
#157=VERTEX_POINT('',#549);
#158=VERTEX_POINT('',#552);
#159=VERTEX_POINT('',#554);
#160=VERTEX_POINT('',#593);
#161=VERTEX_POINT('',#628);
#162=VERTEX_POINT('',#664);
#163=VERTEX_POINT('',#665);
#164=VERTEX_POINT('',#669);
#165=VERTEX_POINT('',#673);
#166=VERTEX_POINT('',#677);
#167=VERTEX_POINT('',#682);
#168=VERTEX_POINT('',#687);
#169=VERTEX_POINT('',#692);
#170=EDGE_CURVE('',#145,#145,#140,.T.);
#171=EDGE_CURVE('',#145,#146,#114,.T.);
#172=EDGE_CURVE('',#146,#146,#94,.F.);
#173=EDGE_CURVE('',#147,#147,#95,.T.);
#174=EDGE_CURVE('',#147,#148,#115,.T.);
#175=EDGE_CURVE('',#148,#148,#96,.T.);
#176=EDGE_CURVE('',#149,#149,#97,.T.);
#177=EDGE_CURVE('',#149,#150,#116,.T.);
#178=EDGE_CURVE('',#150,#150,#98,.T.);
#179=EDGE_CURVE('',#151,#151,#99,.T.);
#180=EDGE_CURVE('',#152,#152,#100,.T.);
#181=EDGE_CURVE('',#152,#153,#117,.T.);
#182=EDGE_CURVE('',#153,#153,#101,.T.);
#183=EDGE_CURVE('',#154,#154,#102,.T.);
#184=EDGE_CURVE('',#154,#155,#118,.T.);
#185=EDGE_CURVE('',#155,#155,#103,.T.);
#186=EDGE_CURVE('',#156,#156,#104,.T.);
#187=EDGE_CURVE('',#157,#157,#105,.T.);
#188=EDGE_CURVE('',#151,#158,#119,.T.);
#189=EDGE_CURVE('',#158,#159,#141,.T.);
#190=EDGE_CURVE('',#159,#156,#120,.T.);
#191=EDGE_CURVE('',#159,#158,#142,.T.);
#192=EDGE_CURVE('',#160,#160,#143,.T.);
#193=EDGE_CURVE('',#161,#161,#144,.T.);
#194=EDGE_CURVE('',#162,#163,#106,.T.);
#195=EDGE_CURVE('',#163,#162,#107,.T.);
#196=EDGE_CURVE('',#163,#164,#121,.T.);
#197=EDGE_CURVE('',#164,#164,#108,.T.);
#198=EDGE_CURVE('',#164,#165,#122,.T.);
#199=EDGE_CURVE('',#165,#165,#109,.T.);
#200=EDGE_CURVE('',#165,#166,#123,.T.);
#201=EDGE_CURVE('',#166,#166,#110,.T.);
#202=EDGE_CURVE('',#159,#167,#124,.T.);
#203=EDGE_CURVE('',#167,#167,#111,.F.);
#204=EDGE_CURVE('',#161,#168,#125,.T.);
#205=EDGE_CURVE('',#168,#168,#112,.F.);
#206=EDGE_CURVE('',#160,#169,#126,.T.);
#207=EDGE_CURVE('',#169,#169,#113,.F.);
#208=ORIENTED_EDGE('',*,*,#170,.F.);
#209=ORIENTED_EDGE('',*,*,#171,.T.);
#210=ORIENTED_EDGE('',*,*,#172,.T.);
#211=ORIENTED_EDGE('',*,*,#171,.F.);
#212=ORIENTED_EDGE('',*,*,#172,.F.);
#213=ORIENTED_EDGE('',*,*,#173,.T.);
#214=ORIENTED_EDGE('',*,*,#174,.T.);
#215=ORIENTED_EDGE('',*,*,#175,.F.);
#216=ORIENTED_EDGE('',*,*,#174,.F.);
#217=ORIENTED_EDGE('',*,*,#176,.T.);
#218=ORIENTED_EDGE('',*,*,#177,.T.);
#219=ORIENTED_EDGE('',*,*,#178,.T.);
#220=ORIENTED_EDGE('',*,*,#177,.F.);
#221=ORIENTED_EDGE('',*,*,#178,.F.);
#222=ORIENTED_EDGE('',*,*,#173,.F.);
#223=ORIENTED_EDGE('',*,*,#179,.F.);
#224=ORIENTED_EDGE('',*,*,#175,.T.);
#225=ORIENTED_EDGE('',*,*,#180,.T.);
#226=ORIENTED_EDGE('',*,*,#181,.T.);
#227=ORIENTED_EDGE('',*,*,#182,.F.);
#228=ORIENTED_EDGE('',*,*,#181,.F.);
#229=ORIENTED_EDGE('',*,*,#183,.F.);
#230=ORIENTED_EDGE('',*,*,#184,.T.);
#231=ORIENTED_EDGE('',*,*,#185,.T.);
#232=ORIENTED_EDGE('',*,*,#184,.F.);
#233=ORIENTED_EDGE('',*,*,#185,.F.);
#234=ORIENTED_EDGE('',*,*,#180,.F.);
#235=ORIENTED_EDGE('',*,*,#176,.F.);
#236=ORIENTED_EDGE('',*,*,#182,.T.);
#237=ORIENTED_EDGE('',*,*,#186,.T.);
#238=ORIENTED_EDGE('',*,*,#187,.T.);
#239=ORIENTED_EDGE('',*,*,#179,.T.);
#240=ORIENTED_EDGE('',*,*,#188,.T.);
#241=ORIENTED_EDGE('',*,*,#189,.T.);
#242=ORIENTED_EDGE('',*,*,#190,.T.);
#243=ORIENTED_EDGE('',*,*,#186,.F.);
#244=ORIENTED_EDGE('',*,*,#190,.F.);
#245=ORIENTED_EDGE('',*,*,#191,.T.);
#246=ORIENTED_EDGE('',*,*,#188,.F.);
#247=ORIENTED_EDGE('',*,*,#192,.T.);
#248=ORIENTED_EDGE('',*,*,#193,.T.);
#249=ORIENTED_EDGE('',*,*,#170,.T.);
#250=ORIENTED_EDGE('',*,*,#183,.T.);
#251=ORIENTED_EDGE('',*,*,#194,.T.);
#252=ORIENTED_EDGE('',*,*,#195,.T.);
#253=ORIENTED_EDGE('',*,*,#195,.F.);
#254=ORIENTED_EDGE('',*,*,#196,.T.);
#255=ORIENTED_EDGE('',*,*,#197,.F.);
#256=ORIENTED_EDGE('',*,*,#196,.F.);
#257=ORIENTED_EDGE('',*,*,#194,.F.);
#258=ORIENTED_EDGE('',*,*,#197,.T.);
#259=ORIENTED_EDGE('',*,*,#198,.T.);
#260=ORIENTED_EDGE('',*,*,#199,.F.);
#261=ORIENTED_EDGE('',*,*,#198,.F.);
#262=ORIENTED_EDGE('',*,*,#199,.T.);
#263=ORIENTED_EDGE('',*,*,#200,.T.);
#264=ORIENTED_EDGE('',*,*,#201,.F.);
#265=ORIENTED_EDGE('',*,*,#200,.F.);
#266=ORIENTED_EDGE('',*,*,#187,.F.);
#267=ORIENTED_EDGE('',*,*,#201,.T.);
#268=ORIENTED_EDGE('',*,*,#191,.F.);
#269=ORIENTED_EDGE('',*,*,#202,.T.);
#270=ORIENTED_EDGE('',*,*,#203,.T.);
#271=ORIENTED_EDGE('',*,*,#202,.F.);
#272=ORIENTED_EDGE('',*,*,#189,.F.);
#273=ORIENTED_EDGE('',*,*,#203,.F.);
#274=ORIENTED_EDGE('',*,*,#193,.F.);
#275=ORIENTED_EDGE('',*,*,#204,.T.);
#276=ORIENTED_EDGE('',*,*,#205,.T.);
#277=ORIENTED_EDGE('',*,*,#204,.F.);
#278=ORIENTED_EDGE('',*,*,#205,.F.);
#279=ORIENTED_EDGE('',*,*,#192,.F.);
#280=ORIENTED_EDGE('',*,*,#206,.T.);
#281=ORIENTED_EDGE('',*,*,#207,.T.);
#282=ORIENTED_EDGE('',*,*,#206,.F.);
#283=ORIENTED_EDGE('',*,*,#207,.F.);
#284=CYLINDRICAL_SURFACE('',#331,2.26435);
#285=CYLINDRICAL_SURFACE('',#334,18.5);
#286=CYLINDRICAL_SURFACE('',#337,20.75);
#287=CYLINDRICAL_SURFACE('',#343,18.5);
#288=CYLINDRICAL_SURFACE('',#346,20.75);
#289=CYLINDRICAL_SURFACE('',#354,20.75);
#290=CYLINDRICAL_SURFACE('',#360,5.43665);
#291=CYLINDRICAL_SURFACE('',#365,2.26435);
#292=CYLINDRICAL_SURFACE('',#368,2.26435);
#293=CYLINDRICAL_SURFACE('',#371,2.26435);
#294=ADVANCED_FACE('',(#38),#284,.F.);
#295=ADVANCED_FACE('',(#39),#27,.F.);
#296=ADVANCED_FACE('',(#40),#285,.T.);
#297=ADVANCED_FACE('',(#41),#286,.T.);
#298=ADVANCED_FACE('',(#42,#17),#28,.F.);
#299=ADVANCED_FACE('',(#43,#18),#29,.F.);
#300=ADVANCED_FACE('',(#44),#287,.T.);
#301=ADVANCED_FACE('',(#45),#288,.T.);
#302=ADVANCED_FACE('',(#46,#19),#30,.F.);
#303=ADVANCED_FACE('',(#47,#20),#31,.F.);
#304=ADVANCED_FACE('',(#48,#21),#32,.F.);
#305=ADVANCED_FACE('',(#49,#22,#23,#24),#289,.T.);
#306=ADVANCED_FACE('',(#50,#25),#33,.T.);
#307=ADVANCED_FACE('',(#51),#15,.F.);
#308=ADVANCED_FACE('',(#52),#290,.F.);
#309=ADVANCED_FACE('',(#53),#16,.F.);
#310=ADVANCED_FACE('',(#54,#26),#34,.T.);
#311=ADVANCED_FACE('',(#55),#291,.F.);
#312=ADVANCED_FACE('',(#56),#35,.F.);
#313=ADVANCED_FACE('',(#57),#292,.F.);
#314=ADVANCED_FACE('',(#58),#36,.F.);
#315=ADVANCED_FACE('',(#59),#293,.F.);
#316=ADVANCED_FACE('',(#60),#37,.F.);
#317=CLOSED_SHELL('',(#294,#295,#296,#297,#298,#299,#300,#301,#302,#303,
#304,#305,#306,#307,#308,#309,#310,#311,#312,#313,#314,#315,#316));
#318=DERIVED_UNIT_ELEMENT(#320,1.);
#319=DERIVED_UNIT_ELEMENT(#701,-3.);
#320=(
MASS_UNIT()
NAMED_UNIT(*)
SI_UNIT(.KILO.,.GRAM.)
);
#321=DERIVED_UNIT((#318,#319));
#322=MEASURE_REPRESENTATION_ITEM('density measure',
POSITIVE_RATIO_MEASURE(7850.),#321);
#323=PROPERTY_DEFINITION_REPRESENTATION(#328,#325);
#324=PROPERTY_DEFINITION_REPRESENTATION(#329,#326);
#325=REPRESENTATION('material name',(#327),#698);
#326=REPRESENTATION('density',(#322),#698);
#327=DESCRIPTIVE_REPRESENTATION_ITEM('Steel','Steel');
#328=PROPERTY_DEFINITION('material property','material name',#708);
#329=PROPERTY_DEFINITION('material property','density of part',#708);
#330=AXIS2_PLACEMENT_3D('',#475,#374,#375);
#331=AXIS2_PLACEMENT_3D('',#476,#376,#377);
#332=AXIS2_PLACEMENT_3D('',#514,#379,#380);
#333=AXIS2_PLACEMENT_3D('',#515,#381,#382);
#334=AXIS2_PLACEMENT_3D('',#516,#383,#384);
#335=AXIS2_PLACEMENT_3D('',#518,#385,#386);
#336=AXIS2_PLACEMENT_3D('',#521,#388,#389);
#337=AXIS2_PLACEMENT_3D('',#522,#390,#391);
#338=AXIS2_PLACEMENT_3D('',#524,#392,#393);
#339=AXIS2_PLACEMENT_3D('',#527,#395,#396);
#340=AXIS2_PLACEMENT_3D('',#528,#397,#398);
#341=AXIS2_PLACEMENT_3D('',#529,#399,#400);
#342=AXIS2_PLACEMENT_3D('',#531,#401,#402);
#343=AXIS2_PLACEMENT_3D('',#532,#403,#404);
#344=AXIS2_PLACEMENT_3D('',#534,#405,#406);
#345=AXIS2_PLACEMENT_3D('',#537,#408,#409);
#346=AXIS2_PLACEMENT_3D('',#538,#410,#411);
#347=AXIS2_PLACEMENT_3D('',#540,#412,#413);
#348=AXIS2_PLACEMENT_3D('',#543,#415,#416);
#349=AXIS2_PLACEMENT_3D('',#544,#417,#418);
#350=AXIS2_PLACEMENT_3D('',#545,#419,#420);
#351=AXIS2_PLACEMENT_3D('',#546,#421,#422);
#352=AXIS2_PLACEMENT_3D('',#548,#423,#424);
#353=AXIS2_PLACEMENT_3D('',#550,#425,#426);
#354=AXIS2_PLACEMENT_3D('',#551,#427,#428);
#355=AXIS2_PLACEMENT_3D('',#663,#431,#432);
#356=AXIS2_PLACEMENT_3D('',#666,#433,#434);
#357=AXIS2_PLACEMENT_3D('',#667,#435,#436);
#358=AXIS2_PLACEMENT_3D('',#668,#437,#438);
#359=AXIS2_PLACEMENT_3D('',#671,#440,#441);
#360=AXIS2_PLACEMENT_3D('',#672,#442,#443);
#361=AXIS2_PLACEMENT_3D('',#675,#445,#446);
#362=AXIS2_PLACEMENT_3D('',#676,#447,#448);
#363=AXIS2_PLACEMENT_3D('',#679,#450,#451);
#364=AXIS2_PLACEMENT_3D('',#680,#452,#453);
#365=AXIS2_PLACEMENT_3D('',#681,#454,#455);
#366=AXIS2_PLACEMENT_3D('',#684,#457,#458);
#367=AXIS2_PLACEMENT_3D('',#685,#459,#460);
#368=AXIS2_PLACEMENT_3D('',#686,#461,#462);
#369=AXIS2_PLACEMENT_3D('',#689,#464,#465);
#370=AXIS2_PLACEMENT_3D('',#690,#466,#467);
#371=AXIS2_PLACEMENT_3D('',#691,#468,#469);
#372=AXIS2_PLACEMENT_3D('',#694,#471,#472);
#373=AXIS2_PLACEMENT_3D('',#695,#473,#474);
#374=DIRECTION('axis',(0.,0.,1.));
#375=DIRECTION('refdir',(1.,0.,0.));
#376=DIRECTION('center_axis',(0.,-6.12323399573676E-17,-1.));
#377=DIRECTION('ref_axis',(1.,0.,0.));
#378=DIRECTION('',(0.,-6.12323399573676E-17,-1.));
#379=DIRECTION('center_axis',(0.,6.12323399573676E-17,1.));
#380=DIRECTION('ref_axis',(1.,0.,0.));
#381=DIRECTION('center_axis',(0.,-6.12323399573676E-17,-1.));
#382=DIRECTION('ref_axis',(1.,0.,0.));
#383=DIRECTION('center_axis',(-1.,0.,0.));
#384=DIRECTION('ref_axis',(0.,0.,1.));
#385=DIRECTION('center_axis',(-1.,0.,0.));
#386=DIRECTION('ref_axis',(0.,0.,1.));
#387=DIRECTION('',(-1.,0.,0.));
#388=DIRECTION('center_axis',(-1.,0.,0.));
#389=DIRECTION('ref_axis',(0.,0.,1.));
#390=DIRECTION('center_axis',(1.,0.,0.));
#391=DIRECTION('ref_axis',(0.,1.,0.));
#392=DIRECTION('center_axis',(-1.,0.,0.));
#393=DIRECTION('ref_axis',(0.,1.,0.));
#394=DIRECTION('',(-1.,0.,0.));
#395=DIRECTION('center_axis',(1.,0.,0.));
#396=DIRECTION('ref_axis',(0.,1.,0.));
#397=DIRECTION('center_axis',(1.,0.,0.));
#398=DIRECTION('ref_axis',(0.,-1.,0.));
#399=DIRECTION('center_axis',(-1.,0.,0.));
#400=DIRECTION('ref_axis',(0.,1.,0.));
#401=DIRECTION('center_axis',(-1.,0.,0.));
#402=DIRECTION('ref_axis',(0.,1.,0.));
#403=DIRECTION('center_axis',(-1.,0.,0.));
#404=DIRECTION('ref_axis',(0.,0.,1.));
#405=DIRECTION('center_axis',(-1.,0.,0.));
#406=DIRECTION('ref_axis',(0.,0.,1.));
#407=DIRECTION('',(-1.,0.,0.));
#408=DIRECTION('center_axis',(-1.,0.,0.));
#409=DIRECTION('ref_axis',(0.,0.,1.));
#410=DIRECTION('center_axis',(1.,0.,0.));
#411=DIRECTION('ref_axis',(0.,1.,0.));
#412=DIRECTION('center_axis',(1.,0.,0.));
#413=DIRECTION('ref_axis',(0.,1.,0.));
#414=DIRECTION('',(-1.,0.,0.));
#415=DIRECTION('center_axis',(1.,0.,0.));
#416=DIRECTION('ref_axis',(0.,1.,0.));
#417=DIRECTION('center_axis',(1.,0.,0.));
#418=DIRECTION('ref_axis',(0.,-1.,0.));
#419=DIRECTION('center_axis',(-1.,0.,0.));
#420=DIRECTION('ref_axis',(0.,1.,0.));
#421=DIRECTION('center_axis',(1.,0.,0.));
#422=DIRECTION('ref_axis',(0.,1.,0.));
#423=DIRECTION('center_axis',(-1.,0.,0.));
#424=DIRECTION('ref_axis',(0.,1.,0.));
#425=DIRECTION('center_axis',(1.,0.,0.));
#426=DIRECTION('ref_axis',(0.,0.,-1.));
#427=DIRECTION('center_axis',(1.,0.,0.));
#428=DIRECTION('ref_axis',(0.,1.,0.));
#429=DIRECTION('',(-1.,0.,0.));
#430=DIRECTION('',(-1.,0.,0.));
#431=DIRECTION('center_axis',(1.,0.,0.));
#432=DIRECTION('ref_axis',(0.,1.,0.));
#433=DIRECTION('center_axis',(-1.,0.,0.));
#434=DIRECTION('ref_axis',(0.,1.,0.));
#435=DIRECTION('center_axis',(-1.,0.,0.));
#436=DIRECTION('ref_axis',(0.,1.,0.));
#437=DIRECTION('center_axis',(1.,0.,0.));
#438=DIRECTION('ref_axis',(0.,0.,-1.));
#439=DIRECTION('',(-0.819156460833197,7.02420822346631E-17,-0.573570128820558));
#440=DIRECTION('center_axis',(1.,0.,0.));
#441=DIRECTION('ref_axis',(0.,0.,-1.));
#442=DIRECTION('center_axis',(1.,0.,0.));
#443=DIRECTION('ref_axis',(0.,0.,-1.));
#444=DIRECTION('',(-1.,0.,0.));
#445=DIRECTION('center_axis',(1.,0.,0.));
#446=DIRECTION('ref_axis',(0.,0.,-1.));
#447=DIRECTION('center_axis',(-1.,0.,0.));
#448=DIRECTION('ref_axis',(0.,0.,-1.));
#449=DIRECTION('',(-0.96592547264673,-3.16963531441291E-17,0.25882036491009));
#450=DIRECTION('center_axis',(1.,0.,0.));
#451=DIRECTION('ref_axis',(0.,0.,-1.));
#452=DIRECTION('center_axis',(-1.,0.,0.));
#453=DIRECTION('ref_axis',(0.,0.,1.));
#454=DIRECTION('center_axis',(0.,1.,-1.22464679914735E-16));
#455=DIRECTION('ref_axis',(1.,0.,0.));
#456=DIRECTION('',(0.,1.,-1.22464679914735E-16));
#457=DIRECTION('center_axis',(0.,-1.,1.22464679914735E-16));
#458=DIRECTION('ref_axis',(1.,0.,0.));
#459=DIRECTION('center_axis',(0.,1.,-1.22464679914735E-16));
#460=DIRECTION('ref_axis',(1.,0.,0.));
#461=DIRECTION('center_axis',(0.,1.83697019872103E-16,1.));
#462=DIRECTION('ref_axis',(1.,0.,0.));
#463=DIRECTION('',(0.,1.83697019872103E-16,1.));
#464=DIRECTION('center_axis',(0.,-1.83697019872103E-16,-1.));
#465=DIRECTION('ref_axis',(1.,0.,0.));
#466=DIRECTION('center_axis',(0.,1.83697019872103E-16,1.));
#467=DIRECTION('ref_axis',(1.,0.,0.));
#468=DIRECTION('center_axis',(0.,-1.,2.44929359829471E-16));
#469=DIRECTION('ref_axis',(1.,0.,0.));
#470=DIRECTION('',(0.,-1.,2.44929359829471E-16));
#471=DIRECTION('center_axis',(0.,1.,-2.44929359829471E-16));
#472=DIRECTION('ref_axis',(1.,0.,0.));
#473=DIRECTION('center_axis',(0.,-1.,2.44929359829471E-16));
#474=DIRECTION('ref_axis',(1.,0.,0.));
#475=CARTESIAN_POINT('',(0.,0.,0.));
#476=CARTESIAN_POINT('Origin',(-0.00697433948516846,-1.53080849893419E-16,
18.25));
#477=CARTESIAN_POINT('',(-2.27132433948517,1.94289029309402E-15,20.75));
#478=CARTESIAN_POINT('Ctrl Pts',(-0.00697433948516853,2.26435,20.6260810402146));
#479=CARTESIAN_POINT('Ctrl Pts',(0.277586530396306,2.26435,20.6260810402146));
#480=CARTESIAN_POINT('Ctrl Pts',(0.580958784054351,2.20743400480253,20.6325769236486));
#481=CARTESIAN_POINT('Ctrl Pts',(1.13878010252154,1.97627859468019,20.6559995701581));
#482=CARTESIAN_POINT('Ctrl Pts',(1.39324861542394,1.80205152505041,20.6725837436878));
#483=CARTESIAN_POINT('Ctrl Pts',(1.79507621404782,1.40022392642653,20.703682785965));
#484=CARTESIAN_POINT('Ctrl Pts',(1.96930404322331,1.1457549889864,20.7202237695323));
#485=CARTESIAN_POINT('Ctrl Pts',(2.20046001579123,0.587932242328152,20.7435475083432));
#486=CARTESIAN_POINT('Ctrl Pts',(2.25737566051483,0.284559493892493,20.75));
#487=CARTESIAN_POINT('Ctrl Pts',(2.25737566051483,-0.284559493892493,20.75));
#488=CARTESIAN_POINT('Ctrl Pts',(2.20046001579123,-0.587932242328152,20.7435475083432));
#489=CARTESIAN_POINT('Ctrl Pts',(1.96930404322331,-1.1457549889864,20.7202237695323));
#490=CARTESIAN_POINT('Ctrl Pts',(1.79507621404782,-1.40022392642653,20.703682785965));
#491=CARTESIAN_POINT('Ctrl Pts',(1.39324861542394,-1.80205152505041,20.6725837436878));
#492=CARTESIAN_POINT('Ctrl Pts',(1.13878010252154,-1.97627859468019,20.6559995701581));
#493=CARTESIAN_POINT('Ctrl Pts',(0.580958784054352,-2.20743400480253,20.6325769236486));
#494=CARTESIAN_POINT('Ctrl Pts',(0.277586530396306,-2.26435,20.6260810402146));
#495=CARTESIAN_POINT('Ctrl Pts',(-0.291535209366643,-2.26435,20.6260810402146));
#496=CARTESIAN_POINT('Ctrl Pts',(-0.594907463024688,-2.20743400480253,20.6325769236486));
#497=CARTESIAN_POINT('Ctrl Pts',(-1.15272878149188,-1.97627859468019,20.6559995701581));
#498=CARTESIAN_POINT('Ctrl Pts',(-1.40719729439428,-1.80205152505041,20.6725837436878));
#499=CARTESIAN_POINT('Ctrl Pts',(-1.80902489301815,-1.40022392642653,20.703682785965));
#500=CARTESIAN_POINT('Ctrl Pts',(-1.98325272219364,-1.1457549889864,20.7202237695323));
#501=CARTESIAN_POINT('Ctrl Pts',(-2.21440869476157,-0.587932242328153,20.7435475083432));
#502=CARTESIAN_POINT('Ctrl Pts',(-2.27132433948517,-0.284559493892493,20.75));
#503=CARTESIAN_POINT('Ctrl Pts',(-2.27132433948517,0.284559493892492,20.75));
#504=CARTESIAN_POINT('Ctrl Pts',(-2.21440869476157,0.587932242328152,20.7435475083432));
#505=CARTESIAN_POINT('Ctrl Pts',(-1.98325272219364,1.1457549889864,20.7202237695323));
#506=CARTESIAN_POINT('Ctrl Pts',(-1.80902489301815,1.40022392642653,20.703682785965));
#507=CARTESIAN_POINT('Ctrl Pts',(-1.40719729439428,1.80205152505041,20.6725837436878));
#508=CARTESIAN_POINT('Ctrl Pts',(-1.15272878149188,1.97627859468019,20.6559995701581));
#509=CARTESIAN_POINT('Ctrl Pts',(-0.594907463024688,2.20743400480253,20.6325769236486));
#510=CARTESIAN_POINT('Ctrl Pts',(-0.291535209366643,2.26435,20.6260810402146));
#511=CARTESIAN_POINT('Ctrl Pts',(-0.00697433948516818,2.26435,20.6260810402146));
#512=CARTESIAN_POINT('',(-2.27132433948517,-5.83464597751769E-16,15.75));
#513=CARTESIAN_POINT('',(-2.27132433948517,1.24222048071512E-16,18.25));
#514=CARTESIAN_POINT('Origin',(-0.00697433948516846,-3.06161699786838E-16,
15.75));
#515=CARTESIAN_POINT('Origin',(-0.00697433948516846,-3.06161699786838E-16,
15.75));
#516=CARTESIAN_POINT('Origin',(7.75000013411045,0.,0.));
#517=CARTESIAN_POINT('',(9.00000013411045,-2.2655965784226E-15,-18.5));
#518=CARTESIAN_POINT('Origin',(9.00000013411045,0.,0.));
#519=CARTESIAN_POINT('',(6.50000013411045,-2.2655965784226E-15,-18.5));
#520=CARTESIAN_POINT('',(7.75000013411045,-2.2655965784226E-15,-18.5));
#521=CARTESIAN_POINT('Origin',(6.50000013411045,0.,0.));
#522=CARTESIAN_POINT('Origin',(0.,0.,0.));
#523=CARTESIAN_POINT('',(12.5000002235174,-20.75,-2.54114210823076E-15));
#524=CARTESIAN_POINT('Origin',(12.5000002235174,0.,0.));
#525=CARTESIAN_POINT('',(9.00000013411045,-20.75,-2.54114210823076E-15));
#526=CARTESIAN_POINT('',(0.,-20.75,-2.54114210823076E-15));
#527=CARTESIAN_POINT('Origin',(9.00000013411045,0.,0.));
#528=CARTESIAN_POINT('Origin',(9.00000013411045,1.,20.75));
#529=CARTESIAN_POINT('Origin',(6.50000013411045,0.,20.75));
#530=CARTESIAN_POINT('',(6.50000013411045,-20.75,-2.54114210823076E-15));
#531=CARTESIAN_POINT('Origin',(6.50000013411045,0.,0.));
#532=CARTESIAN_POINT('Origin',(13.7500002235174,0.,0.));
#533=CARTESIAN_POINT('',(15.0000002235174,-2.2655965784226E-15,-18.5));
#534=CARTESIAN_POINT('Origin',(15.0000002235174,0.,0.));
#535=CARTESIAN_POINT('',(12.5000002235174,-2.2655965784226E-15,-18.5));
#536=CARTESIAN_POINT('',(13.7500002235174,-2.2655965784226E-15,-18.5));
#537=CARTESIAN_POINT('Origin',(12.5000002235174,0.,0.));
#538=CARTESIAN_POINT('Origin',(0.,0.,0.));
#539=CARTESIAN_POINT('',(20.799,-20.75,-2.54114210823076E-15));
#540=CARTESIAN_POINT('Origin',(20.799,0.,0.));
#541=CARTESIAN_POINT('',(15.0000002235174,-20.75,-2.54114210823076E-15));
#542=CARTESIAN_POINT('',(0.,-20.75,-2.54114210823076E-15));
#543=CARTESIAN_POINT('Origin',(15.0000002235174,0.,0.));
#544=CARTESIAN_POINT('Origin',(15.0000002235174,1.00000001490116,20.75));
#545=CARTESIAN_POINT('Origin',(12.5000002235174,0.,20.75));
#546=CARTESIAN_POINT('Origin',(-48.517,0.,0.));
#547=CARTESIAN_POINT('',(-48.517,-20.75,-2.54114210823076E-15));
#548=CARTESIAN_POINT('Origin',(-48.517,0.,0.));
#549=CARTESIAN_POINT('',(-48.5168302491977,-4.89858719658941E-15,20.));
#550=CARTESIAN_POINT('Origin',(-48.517,0.,0.));
#551=CARTESIAN_POINT('Origin',(0.,0.,0.));
#552=CARTESIAN_POINT('',(2.25737566051483,-20.75,-3.68514846607439E-16));
#553=CARTESIAN_POINT('',(0.,-20.75,-2.54114210823076E-15));
#554=CARTESIAN_POINT('',(-2.27132433948517,-20.75,3.2134613472094E-15));
#555=CARTESIAN_POINT('Ctrl Pts',(2.25737566051483,-20.75,1.59594559789866E-15));
#556=CARTESIAN_POINT('Ctrl Pts',(2.25737566051483,-20.75,-0.284559493892491));
#557=CARTESIAN_POINT('Ctrl Pts',(2.20046001579123,-20.7435475083432,-0.587932242328151));
#558=CARTESIAN_POINT('Ctrl Pts',(1.96930404322331,-20.7202237695323,-1.1457549889864));
#559=CARTESIAN_POINT('Ctrl Pts',(1.79507621404782,-20.703682785965,-1.40022392642653));
#560=CARTESIAN_POINT('Ctrl Pts',(1.39324861542394,-20.6725837436878,-1.8020515250504));
#561=CARTESIAN_POINT('Ctrl Pts',(1.13878010252154,-20.6559995701581,-1.97627859468018));
#562=CARTESIAN_POINT('Ctrl Pts',(0.580958784054352,-20.6325769236486,-2.20743400480253));
#563=CARTESIAN_POINT('Ctrl Pts',(0.277586530396306,-20.6260810402146,-2.26435));
#564=CARTESIAN_POINT('Ctrl Pts',(-0.291535209366643,-20.6260810402146,-2.26435));
#565=CARTESIAN_POINT('Ctrl Pts',(-0.594907463024688,-20.6325769236486,-2.20743400480253));
#566=CARTESIAN_POINT('Ctrl Pts',(-1.15272878149188,-20.6559995701581,-1.97627859468018));
#567=CARTESIAN_POINT('Ctrl Pts',(-1.40719729439428,-20.6725837436878,-1.8020515250504));
#568=CARTESIAN_POINT('Ctrl Pts',(-1.80902489301815,-20.703682785965,-1.40022392642653));
#569=CARTESIAN_POINT('Ctrl Pts',(-1.98325272219364,-20.7202237695323,-1.1457549889864));
#570=CARTESIAN_POINT('Ctrl Pts',(-2.21440869476157,-20.7435475083432,-0.587932242328152));
#571=CARTESIAN_POINT('Ctrl Pts',(-2.27132433948517,-20.75,-0.284559493892492));
#572=CARTESIAN_POINT('Ctrl Pts',(-2.27132433948517,-20.75,9.71445146547012E-16));
#573=CARTESIAN_POINT('',(0.,-20.75,-2.54114210823076E-15));
#574=CARTESIAN_POINT('Ctrl Pts',(-2.27132433948517,-20.75,9.71445146547012E-16));
#575=CARTESIAN_POINT('Ctrl Pts',(-2.27132433948517,-20.75,0.284559493892493));
#576=CARTESIAN_POINT('Ctrl Pts',(-2.21440869476157,-20.7435475083432,0.587932242328153));
#577=CARTESIAN_POINT('Ctrl Pts',(-1.98325272219364,-20.7202237695323,1.1457549889864));
#578=CARTESIAN_POINT('Ctrl Pts',(-1.80902489301815,-20.703682785965,1.40022392642654));
#579=CARTESIAN_POINT('Ctrl Pts',(-1.40719729439428,-20.6725837436878,1.80205152505041));
#580=CARTESIAN_POINT('Ctrl Pts',(-1.15272878149188,-20.6559995701581,1.97627859468019));
#581=CARTESIAN_POINT('Ctrl Pts',(-0.594907463024688,-20.6325769236486,2.20743400480253));
#582=CARTESIAN_POINT('Ctrl Pts',(-0.291535209366643,-20.6260810402146,2.26435));
#583=CARTESIAN_POINT('Ctrl Pts',(-0.00697433948516846,-20.6260810402146,
2.26435));
#584=CARTESIAN_POINT('Ctrl Pts',(0.277586530396306,-20.6260810402146,2.26435));
#585=CARTESIAN_POINT('Ctrl Pts',(0.580958784054351,-20.6325769236486,2.20743400480253));
#586=CARTESIAN_POINT('Ctrl Pts',(1.13878010252154,-20.6559995701581,1.97627859468019));
#587=CARTESIAN_POINT('Ctrl Pts',(1.39324861542394,-20.6725837436878,1.80205152505041));
#588=CARTESIAN_POINT('Ctrl Pts',(1.79507621404782,-20.703682785965,1.40022392642654));
#589=CARTESIAN_POINT('Ctrl Pts',(1.96930404322331,-20.7202237695323,1.1457549889864));
#590=CARTESIAN_POINT('Ctrl Pts',(2.20046001579123,-20.7435475083432,0.587932242328153));
#591=CARTESIAN_POINT('Ctrl Pts',(2.25737566051483,-20.75,0.284559493892494));
#592=CARTESIAN_POINT('Ctrl Pts',(2.25737566051483,-20.75,1.66533453693773E-15));
#593=CARTESIAN_POINT('',(-2.27132433948517,20.75,-5.75460345544016E-15));
#594=CARTESIAN_POINT('Ctrl Pts',(-0.00697433948516846,20.6260810402146,
-2.26435));
#595=CARTESIAN_POINT('Ctrl Pts',(0.277586530396306,20.6260810402146,-2.26435));
#596=CARTESIAN_POINT('Ctrl Pts',(0.580958784054351,20.6325769236486,-2.20743400480253));
#597=CARTESIAN_POINT('Ctrl Pts',(1.13878010252154,20.6559995701581,-1.97627859468019));
#598=CARTESIAN_POINT('Ctrl Pts',(1.39324861542394,20.6725837436878,-1.80205152505041));
#599=CARTESIAN_POINT('Ctrl Pts',(1.79507621404782,20.703682785965,-1.40022392642654));
#600=CARTESIAN_POINT('Ctrl Pts',(1.96930404322331,20.7202237695323,-1.1457549889864));
#601=CARTESIAN_POINT('Ctrl Pts',(2.20046001579123,20.7435475083432,-0.587932242328156));
#602=CARTESIAN_POINT('Ctrl Pts',(2.25737566051483,20.75,-0.284559493892497));
#603=CARTESIAN_POINT('Ctrl Pts',(2.25737566051483,20.75,0.284559493892489));
#604=CARTESIAN_POINT('Ctrl Pts',(2.20046001579123,20.7435475083432,0.587932242328148));
#605=CARTESIAN_POINT('Ctrl Pts',(1.96930404322331,20.7202237695323,1.1457549889864));
#606=CARTESIAN_POINT('Ctrl Pts',(1.79507621404782,20.703682785965,1.40022392642653));
#607=CARTESIAN_POINT('Ctrl Pts',(1.39324861542394,20.6725837436878,1.8020515250504));
#608=CARTESIAN_POINT('Ctrl Pts',(1.13878010252154,20.6559995701581,1.97627859468018));
#609=CARTESIAN_POINT('Ctrl Pts',(0.580958784054352,20.6325769236486,2.20743400480252));
#610=CARTESIAN_POINT('Ctrl Pts',(0.277586530396306,20.6260810402146,2.26435));
#611=CARTESIAN_POINT('Ctrl Pts',(-0.291535209366643,20.6260810402146,2.26435));
#612=CARTESIAN_POINT('Ctrl Pts',(-0.594907463024688,20.6325769236486,2.20743400480252));
#613=CARTESIAN_POINT('Ctrl Pts',(-1.15272878149188,20.6559995701581,1.97627859468018));
#614=CARTESIAN_POINT('Ctrl Pts',(-1.40719729439428,20.6725837436878,1.8020515250504));
#615=CARTESIAN_POINT('Ctrl Pts',(-1.80902489301815,20.703682785965,1.40022392642653));
#616=CARTESIAN_POINT('Ctrl Pts',(-1.98325272219364,20.7202237695323,1.1457549889864));
#617=CARTESIAN_POINT('Ctrl Pts',(-2.21440869476157,20.7435475083432,0.587932242328149));
#618=CARTESIAN_POINT('Ctrl Pts',(-2.27132433948517,20.75,0.28455949389249));
#619=CARTESIAN_POINT('Ctrl Pts',(-2.27132433948517,20.75,-0.284559493892496));
#620=CARTESIAN_POINT('Ctrl Pts',(-2.21440869476157,20.7435475083432,-0.587932242328155));
#621=CARTESIAN_POINT('Ctrl Pts',(-1.98325272219364,20.7202237695323,-1.1457549889864));
#622=CARTESIAN_POINT('Ctrl Pts',(-1.80902489301815,20.703682785965,-1.40022392642654));
#623=CARTESIAN_POINT('Ctrl Pts',(-1.40719729439428,20.6725837436878,-1.80205152505041));
#624=CARTESIAN_POINT('Ctrl Pts',(-1.15272878149188,20.6559995701581,-1.97627859468019));
#625=CARTESIAN_POINT('Ctrl Pts',(-0.594907463024688,20.6325769236486,-2.20743400480253));
#626=CARTESIAN_POINT('Ctrl Pts',(-0.291535209366643,20.6260810402146,-2.26435));
#627=CARTESIAN_POINT('Ctrl Pts',(-0.00697433948516818,20.6260810402146,
-2.26435));
#628=CARTESIAN_POINT('',(-2.27132433948517,-4.48403240132478E-15,-20.75));
#629=CARTESIAN_POINT('Ctrl Pts',(-0.00697433948516853,-2.26435,-20.6260810402146));
#630=CARTESIAN_POINT('Ctrl Pts',(0.277586530396306,-2.26435,-20.6260810402146));
#631=CARTESIAN_POINT('Ctrl Pts',(0.580958784054351,-2.20743400480253,-20.6325769236486));
#632=CARTESIAN_POINT('Ctrl Pts',(1.13878010252154,-1.97627859468019,-20.6559995701581));
#633=CARTESIAN_POINT('Ctrl Pts',(1.39324861542394,-1.80205152505041,-20.6725837436878));
#634=CARTESIAN_POINT('Ctrl Pts',(1.79507621404782,-1.40022392642654,-20.703682785965));
#635=CARTESIAN_POINT('Ctrl Pts',(1.96930404322331,-1.1457549889864,-20.7202237695323));
#636=CARTESIAN_POINT('Ctrl Pts',(2.20046001579123,-0.587932242328155,-20.7435475083432));
#637=CARTESIAN_POINT('Ctrl Pts',(2.25737566051483,-0.284559493892495,-20.75));
#638=CARTESIAN_POINT('Ctrl Pts',(2.25737566051483,0.28455949389249,-20.75));
#639=CARTESIAN_POINT('Ctrl Pts',(2.20046001579123,0.58793224232815,-20.7435475083432));
#640=CARTESIAN_POINT('Ctrl Pts',(1.96930404322331,1.1457549889864,-20.7202237695323));
#641=CARTESIAN_POINT('Ctrl Pts',(1.79507621404782,1.40022392642653,-20.703682785965));
#642=CARTESIAN_POINT('Ctrl Pts',(1.39324861542394,1.8020515250504,-20.6725837436878));
#643=CARTESIAN_POINT('Ctrl Pts',(1.13878010252154,1.97627859468018,-20.6559995701581));
#644=CARTESIAN_POINT('Ctrl Pts',(0.580958784054352,2.20743400480253,-20.6325769236486));
#645=CARTESIAN_POINT('Ctrl Pts',(0.277586530396306,2.26435,-20.6260810402146));
#646=CARTESIAN_POINT('Ctrl Pts',(-0.291535209366643,2.26435,-20.6260810402146));
#647=CARTESIAN_POINT('Ctrl Pts',(-0.594907463024688,2.20743400480253,-20.6325769236486));
#648=CARTESIAN_POINT('Ctrl Pts',(-1.15272878149188,1.97627859468018,-20.6559995701581));
#649=CARTESIAN_POINT('Ctrl Pts',(-1.40719729439428,1.8020515250504,-20.6725837436878));
#650=CARTESIAN_POINT('Ctrl Pts',(-1.80902489301815,1.40022392642653,-20.703682785965));
#651=CARTESIAN_POINT('Ctrl Pts',(-1.98325272219364,1.1457549889864,-20.7202237695323));
#652=CARTESIAN_POINT('Ctrl Pts',(-2.21440869476157,0.58793224232815,-20.7435475083432));
#653=CARTESIAN_POINT('Ctrl Pts',(-2.27132433948517,0.284559493892491,-20.75));
#654=CARTESIAN_POINT('Ctrl Pts',(-2.27132433948517,-0.284559493892495,-20.75));
#655=CARTESIAN_POINT('Ctrl Pts',(-2.21440869476157,-0.587932242328154,-20.7435475083432));
#656=CARTESIAN_POINT('Ctrl Pts',(-1.98325272219364,-1.1457549889864,-20.7202237695323));
#657=CARTESIAN_POINT('Ctrl Pts',(-1.80902489301815,-1.40022392642654,-20.703682785965));
#658=CARTESIAN_POINT('Ctrl Pts',(-1.40719729439428,-1.80205152505041,-20.6725837436878));
#659=CARTESIAN_POINT('Ctrl Pts',(-1.15272878149188,-1.97627859468019,-20.6559995701581));
#660=CARTESIAN_POINT('Ctrl Pts',(-0.594907463024688,-2.20743400480253,-20.6325769236486));
#661=CARTESIAN_POINT('Ctrl Pts',(-0.291535209366643,-2.26435,-20.6260810402146));
#662=CARTESIAN_POINT('Ctrl Pts',(-0.00697433948516818,-2.26435,-20.6260810402146));
#663=CARTESIAN_POINT('Origin',(20.799,0.,0.));
#664=CARTESIAN_POINT('',(20.799,-20.,2.44929359829471E-15));
#665=CARTESIAN_POINT('',(20.798991500153,-3.05271974187908E-15,20.));
#666=CARTESIAN_POINT('Origin',(20.799,0.,0.));
#667=CARTESIAN_POINT('Origin',(20.799,0.,0.));
#668=CARTESIAN_POINT('Origin',(10.3994800674212,0.,0.));
#669=CARTESIAN_POINT('',(-2.22044604925031E-15,-6.65797602058446E-16,5.43665));
#670=CARTESIAN_POINT('',(10.3994800674212,-1.55754560017658E-15,12.718325));
#671=CARTESIAN_POINT('Origin',(0.,0.,0.));
#672=CARTESIAN_POINT('Origin',(-0.800000000000001,0.,0.));
#673=CARTESIAN_POINT('',(-1.6,-6.65797602058446E-16,5.43665));
#674=CARTESIAN_POINT('',(-0.800000000000001,-6.65797602058446E-16,5.43665));
#675=CARTESIAN_POINT('Origin',(-1.6,0.,0.));
#676=CARTESIAN_POINT('Origin',(-25.0583302491977,0.,0.));
#677=CARTESIAN_POINT('',(-48.5166604983954,-2.20534395590455E-15,18.008));
#678=CARTESIAN_POINT('',(-25.0583302491977,-1.4355707789815E-15,11.722325));
#679=CARTESIAN_POINT('Origin',(-48.5166604983954,0.,0.));
#680=CARTESIAN_POINT('Origin',(-48.5166604983954,0.,-20.));
#681=CARTESIAN_POINT('Origin',(-0.00697433948516846,-18.25,9.64409354328541E-16));
#682=CARTESIAN_POINT('',(-2.27132433948517,-15.75,3.80944756576772E-16));
#683=CARTESIAN_POINT('',(-2.27132433948517,-18.25,1.24171225229347E-15));
#684=CARTESIAN_POINT('Origin',(-0.00697433948516846,-15.75,6.58247654541703E-16));
#685=CARTESIAN_POINT('Origin',(-0.00697433948516846,-15.75,6.58247654541703E-16));
#686=CARTESIAN_POINT('Origin',(-0.00697433948516846,-2.0818995585505E-15,
-18.25));
#687=CARTESIAN_POINT('',(-2.27132433948517,-1.34535411090531E-15,-15.75));
#688=CARTESIAN_POINT('',(-2.27132433948517,-2.35920245651543E-15,-18.25));
#689=CARTESIAN_POINT('Origin',(-0.00697433948516846,-1.62265700887024E-15,
-15.75));
#690=CARTESIAN_POINT('Origin',(-0.00697433948516846,-1.62265700887024E-15,
-15.75));
#691=CARTESIAN_POINT('Origin',(-0.00697433948516846,18.25,-3.19938976277246E-15));
#692=CARTESIAN_POINT('',(-2.27132433948517,15.75,-2.30976346523385E-15));
#693=CARTESIAN_POINT('',(-2.27132433948517,18.25,-3.47669266073739E-15));
#694=CARTESIAN_POINT('Origin',(-0.00697433948516846,15.75,-2.58706636319878E-15));
#695=CARTESIAN_POINT('Origin',(-0.00697433948516846,15.75,-2.58706636319878E-15));
#696=UNCERTAINTY_MEASURE_WITH_UNIT(LENGTH_MEASURE(0.01),#700,
'DISTANCE_ACCURACY_VALUE',
'Maximum model space distance between geometric entities at asserted c
onnectivities');
#697=UNCERTAINTY_MEASURE_WITH_UNIT(LENGTH_MEASURE(0.01),#700,
'DISTANCE_ACCURACY_VALUE',
'Maximum model space distance between geometric entities at asserted c
onnectivities');
#698=(
GEOMETRIC_REPRESENTATION_CONTEXT(3)
GLOBAL_UNCERTAINTY_ASSIGNED_CONTEXT((#696))
GLOBAL_UNIT_ASSIGNED_CONTEXT((#700,#702,#703))
REPRESENTATION_CONTEXT('','3D')
);
#699=(
GEOMETRIC_REPRESENTATION_CONTEXT(3)
GLOBAL_UNCERTAINTY_ASSIGNED_CONTEXT((#697))
GLOBAL_UNIT_ASSIGNED_CONTEXT((#700,#702,#703))
REPRESENTATION_CONTEXT('','3D')
);
#700=(
LENGTH_UNIT()
NAMED_UNIT(*)
SI_UNIT(.MILLI.,.METRE.)
);
#701=(
LENGTH_UNIT()
NAMED_UNIT(*)
SI_UNIT($,.METRE.)
);
#702=(
NAMED_UNIT(*)
PLANE_ANGLE_UNIT()
SI_UNIT($,.RADIAN.)
);
#703=(
NAMED_UNIT(*)
SI_UNIT($,.STERADIAN.)
SOLID_ANGLE_UNIT()
);
#704=SHAPE_DEFINITION_REPRESENTATION(#705,#706);
#705=PRODUCT_DEFINITION_SHAPE('',$,#708);
#706=SHAPE_REPRESENTATION('',(#330),#698);
#707=PRODUCT_DEFINITION_CONTEXT('part definition',#712,'design');
#708=PRODUCT_DEFINITION('nozzle finalllyyy','nozzle finalllyyy v0',#709,
#707);
#709=PRODUCT_DEFINITION_FORMATION('',$,#714);
#710=PRODUCT_RELATED_PRODUCT_CATEGORY('nozzle finalllyyy v0',
'nozzle finalllyyy v0',(#714));
#711=APPLICATION_PROTOCOL_DEFINITION('international standard',
'automotive_design',2009,#712);
#712=APPLICATION_CONTEXT(
'Core Data for Automotive Mechanical Design Process');
#713=PRODUCT_CONTEXT('part definition',#712,'mechanical');
#714=PRODUCT('nozzle finalllyyy','nozzle finalllyyy v0',$,(#713));
#715=PRESENTATION_STYLE_ASSIGNMENT((#716));
#716=SURFACE_STYLE_USAGE(.BOTH.,#717);
#717=SURFACE_SIDE_STYLE('',(#718));
#718=SURFACE_STYLE_FILL_AREA(#719);
#719=FILL_AREA_STYLE('Steel - Satin',(#720));
#720=FILL_AREA_STYLE_COLOUR('Steel - Satin',#721);
#721=COLOUR_RGB('Steel - Satin',0.627450980392157,0.627450980392157,0.627450980392157);
ENDSEC;
END-ISO-10303-21;
